G04*
G04 #@! TF.GenerationSoftware,Altium Limited,Altium Designer,23.3.1 (30)*
G04*
G04 Layer_Color=128*
%FSLAX44Y44*%
%MOMM*%
G71*
G04*
G04 #@! TF.SameCoordinates,EE3F4187-3FEB-4C8D-94AF-BEFEFA225CE7*
G04*
G04*
G04 #@! TF.FilePolarity,Positive*
G04*
G01*
G75*
%ADD12C,0.1270*%
D12*
X100400Y489940D02*
X161400D01*
X130900Y459440D02*
Y520440D01*
X938600Y489940D02*
X999600D01*
X969100Y459440D02*
Y520440D01*
X938600Y299440D02*
X999600D01*
X969100Y268940D02*
Y329940D01*
X100400Y299440D02*
X161400D01*
X130900Y268940D02*
Y329940D01*
X449670Y601700D02*
X459830D01*
X454750Y596620D02*
Y606780D01*
X640170Y601700D02*
X650330D01*
X645250Y596620D02*
Y606780D01*
X214720Y512800D02*
X224880D01*
X219800Y507720D02*
Y517880D01*
X875120Y512800D02*
X885280D01*
X880200Y507720D02*
Y517880D01*
X214720Y284200D02*
X224880D01*
X219800Y279120D02*
Y289280D01*
X875120Y284200D02*
X885280D01*
X880200Y279120D02*
Y289280D01*
X671920Y131800D02*
X682080D01*
X677000Y126720D02*
Y136880D01*
X697320Y182600D02*
X707480D01*
X702400Y177520D02*
Y187680D01*
X671920Y182600D02*
X682080D01*
X677000Y177520D02*
Y187680D01*
X925920Y81000D02*
X936080D01*
X931000Y75920D02*
Y86080D01*
X773520Y81000D02*
X783680D01*
X778600Y75920D02*
Y86080D01*
X544920Y81000D02*
X555080D01*
X550000Y75920D02*
Y86080D01*
X519520Y81000D02*
X529680D01*
X524600Y75920D02*
Y86080D01*
X494120Y81000D02*
X504280D01*
X499200Y75920D02*
Y86080D01*
X621120Y81000D02*
X631280D01*
X626200Y75920D02*
Y86080D01*
X595720Y81000D02*
X605880D01*
X600800Y75920D02*
Y86080D01*
X392520Y81000D02*
X402680D01*
X397600Y75920D02*
Y86080D01*
X367120Y81000D02*
X377280D01*
X372200Y75920D02*
Y86080D01*
X443320Y81000D02*
X453480D01*
X448400Y75920D02*
Y86080D01*
X316320Y81000D02*
X326480D01*
X321400Y75920D02*
Y86080D01*
X290920Y81000D02*
X301080D01*
X296000Y75920D02*
Y86080D01*
X265520Y81000D02*
X275680D01*
X270600Y75920D02*
Y86080D01*
X163920Y81000D02*
X174080D01*
X169000Y75920D02*
Y86080D01*
X189320Y81000D02*
X199480D01*
X194400Y75920D02*
Y86080D01*
X214720Y81000D02*
X224880D01*
X219800Y75920D02*
Y86080D01*
X722720Y81000D02*
X732880D01*
X727800Y75920D02*
Y86080D01*
X697320Y81000D02*
X707480D01*
X702400Y75920D02*
Y86080D01*
X671920Y81000D02*
X682080D01*
X677000Y75920D02*
Y86080D01*
X824320Y81000D02*
X834480D01*
X829400Y75920D02*
Y86080D01*
X849720Y81000D02*
X859880D01*
X854800Y75920D02*
Y86080D01*
X875120Y81000D02*
X885280D01*
X880200Y75920D02*
Y86080D01*
X84000Y100000D02*
X116000D01*
X100000Y84000D02*
Y116000D01*
X984000Y100000D02*
X1016000D01*
X1000000Y84000D02*
Y116000D01*
X84000Y650000D02*
X116000D01*
X100000Y634000D02*
Y666000D01*
X984000Y650000D02*
X1016000D01*
X1000000Y634000D02*
Y666000D01*
X172580Y421360D02*
X175580D01*
X174080Y419860D02*
Y422860D01*
X185280Y421360D02*
X188280D01*
X186780Y419860D02*
Y422860D01*
X197980Y421360D02*
X200980D01*
X199480Y419860D02*
Y422860D01*
X899020Y421360D02*
X902020D01*
X900520Y419860D02*
Y422860D01*
X911720Y421360D02*
X914720D01*
X913220Y419860D02*
Y422860D01*
X924420Y421360D02*
X927420D01*
X925920Y419860D02*
Y422860D01*
X1038247Y393993D02*
X1041247D01*
X1039747Y392494D02*
Y395494D01*
X695820Y459460D02*
X698820D01*
X697320Y457960D02*
Y460960D01*
X708520Y459460D02*
X711520D01*
X710020Y457960D02*
Y460960D01*
X708520Y472160D02*
X711520D01*
X710020Y470660D02*
Y473660D01*
X695820Y472160D02*
X698820D01*
X697320Y470660D02*
Y473660D01*
X388480Y459460D02*
X391480D01*
X389980Y457960D02*
Y460960D01*
X401180Y459460D02*
X404180D01*
X402680Y457960D02*
Y460960D01*
X401180Y472160D02*
X404180D01*
X402680Y470660D02*
Y473660D01*
X388480Y472160D02*
X391480D01*
X389980Y470660D02*
Y473660D01*
X911720Y347700D02*
X914720D01*
X913220Y346200D02*
Y349200D01*
X899020Y347700D02*
X902020D01*
X900520Y346200D02*
Y349200D01*
X197980Y347700D02*
X200980D01*
X199480Y346200D02*
Y349200D01*
X185280Y347700D02*
X188280D01*
X186780Y346200D02*
Y349200D01*
X163755Y454585D02*
X168755D01*
X166255Y452085D02*
Y457085D01*
X163755Y525295D02*
X168755D01*
X166255Y522795D02*
Y527795D01*
X93045Y525295D02*
X98045D01*
X95545Y522795D02*
Y527795D01*
X93045Y454585D02*
X98045D01*
X95545Y452085D02*
Y457085D01*
X128400Y439940D02*
X133400D01*
X130900Y437440D02*
Y442440D01*
X178400Y489940D02*
X183400D01*
X180900Y487440D02*
Y492440D01*
X128400Y539940D02*
X133400D01*
X130900Y537440D02*
Y542440D01*
X78400Y489940D02*
X83400D01*
X80900Y487440D02*
Y492440D01*
X1001955Y525295D02*
X1006955D01*
X1004455Y522795D02*
Y527795D01*
X931245Y525295D02*
X936245D01*
X933745Y522795D02*
Y527795D01*
X931245Y454585D02*
X936245D01*
X933745Y452085D02*
Y457085D01*
X1001955Y454585D02*
X1006955D01*
X1004455Y452085D02*
Y457085D01*
X1016600Y489940D02*
X1021600D01*
X1019100Y487440D02*
Y492440D01*
X966600Y539940D02*
X971600D01*
X969100Y537440D02*
Y542440D01*
X916600Y489940D02*
X921600D01*
X919100Y487440D02*
Y492440D01*
X966600Y439940D02*
X971600D01*
X969100Y437440D02*
Y442440D01*
X1001955Y334795D02*
X1006955D01*
X1004455Y332295D02*
Y337295D01*
X931245Y334795D02*
X936245D01*
X933745Y332295D02*
Y337295D01*
X931245Y264085D02*
X936245D01*
X933745Y261585D02*
Y266585D01*
X1001955Y264085D02*
X1006955D01*
X1004455Y261585D02*
Y266585D01*
X1016600Y299440D02*
X1021600D01*
X1019100Y296940D02*
Y301940D01*
X966600Y349440D02*
X971600D01*
X969100Y346940D02*
Y351940D01*
X916600Y299440D02*
X921600D01*
X919100Y296940D02*
Y301940D01*
X966600Y249440D02*
X971600D01*
X969100Y246940D02*
Y251940D01*
X163755Y264085D02*
X168755D01*
X166255Y261585D02*
Y266585D01*
X163755Y334795D02*
X168755D01*
X166255Y332295D02*
Y337295D01*
X93045Y334795D02*
X98045D01*
X95545Y332295D02*
Y337295D01*
X93045Y264085D02*
X98045D01*
X95545Y261585D02*
Y266585D01*
X128400Y249440D02*
X133400D01*
X130900Y246940D02*
Y251940D01*
X178400Y299440D02*
X183400D01*
X180900Y296940D02*
Y301940D01*
X128400Y349440D02*
X133400D01*
X130900Y346940D02*
Y351940D01*
X78400Y299440D02*
X83400D01*
X80900Y296940D02*
Y301940D01*
X652640Y489940D02*
X655640D01*
X654140Y488440D02*
Y491440D01*
X652640Y477240D02*
X655640D01*
X654140Y475740D02*
Y478740D01*
X652640Y464540D02*
X655640D01*
X654140Y463040D02*
Y466040D01*
X641210Y489940D02*
X644210D01*
X642710Y488440D02*
Y491440D01*
X629780Y489940D02*
X632780D01*
X631280Y488440D02*
Y491440D01*
X629780Y477240D02*
X632780D01*
X631280Y475740D02*
Y478740D01*
X641210Y477240D02*
X644210D01*
X642710Y475740D02*
Y478740D01*
X641210Y464540D02*
X644210D01*
X642710Y463040D02*
Y466040D01*
X629780Y464540D02*
X632780D01*
X631280Y463040D02*
Y466040D01*
X143370Y139420D02*
X146370D01*
X144870Y137920D02*
Y140920D01*
X486905Y256895D02*
X489905D01*
X488405Y255395D02*
Y258395D01*
X504320Y218160D02*
X509320D01*
X506820Y215660D02*
Y220660D01*
X643391Y260070D02*
X646391D01*
X644891Y258570D02*
Y261570D01*
X635409Y260070D02*
X638409D01*
X636909Y258570D02*
Y261570D01*
X434200Y434060D02*
X437200D01*
X435700Y432560D02*
Y435560D01*
X424040Y434060D02*
X427040D01*
X425540Y432560D02*
Y435560D01*
X461591Y260070D02*
X464591D01*
X463091Y258570D02*
Y261570D01*
X453609Y260070D02*
X456609D01*
X455109Y258570D02*
Y261570D01*
X719950Y194030D02*
X722950D01*
X721450Y192530D02*
Y195530D01*
X718680Y181330D02*
X721680D01*
X720180Y179830D02*
Y182830D01*
X657720Y182600D02*
X660720D01*
X659220Y181100D02*
Y184100D01*
X827900Y143230D02*
X830900D01*
X829400Y141730D02*
Y144730D01*
X660260Y162280D02*
X663260D01*
X661760Y160780D02*
Y163780D01*
X704710Y119100D02*
X707710D01*
X706210Y117600D02*
Y120600D01*
X932040Y124180D02*
X935040D01*
X933540Y122680D02*
Y125680D01*
X777100Y124180D02*
X780100D01*
X778600Y122680D02*
Y125680D01*
X827900Y124180D02*
X830900D01*
X829400Y122680D02*
Y125680D01*
X878700Y124180D02*
X881700D01*
X880200Y122680D02*
Y125680D01*
X512940Y116560D02*
X515940D01*
X514440Y115060D02*
Y118060D01*
X485000Y152120D02*
X488000D01*
X486500Y150620D02*
Y153620D01*
X492620Y114020D02*
X495620D01*
X494120Y112520D02*
Y115520D01*
X421500Y108940D02*
X424500D01*
X423000Y107440D02*
Y110440D01*
X348511Y108955D02*
X351511D01*
X350011Y107455D02*
Y110455D01*
X347840Y139420D02*
X350840D01*
X349340Y137920D02*
Y140920D01*
X159880Y111480D02*
X162880D01*
X161380Y109980D02*
Y112980D01*
X213220Y139420D02*
X216220D01*
X214720Y137920D02*
Y140920D01*
X524640Y238480D02*
X529640D01*
X527140Y235980D02*
Y240980D01*
X570360Y238480D02*
X575360D01*
X572860Y235980D02*
Y240980D01*
X548500Y223556D02*
X551500D01*
X550000Y222056D02*
Y225056D01*
X556278Y215778D02*
X559278D01*
X557778Y214278D02*
Y217278D01*
X564056Y208000D02*
X567056D01*
X565556Y206500D02*
Y209500D01*
X548500Y192444D02*
X551500D01*
X550000Y190944D02*
Y193944D01*
X540722Y200222D02*
X543722D01*
X542222Y198722D02*
Y201722D01*
X532944Y208000D02*
X535944D01*
X534444Y206500D02*
Y209500D01*
X548500Y208000D02*
X551500D01*
X550000Y206500D02*
Y209500D01*
X540722Y215778D02*
X543722D01*
X542222Y214278D02*
Y217278D01*
X556278Y200222D02*
X559278D01*
X557778Y198722D02*
Y201722D01*
X614540Y164820D02*
X617540D01*
X616040Y163320D02*
Y166320D01*
X605650Y373100D02*
X608650D01*
X607150Y371600D02*
Y374600D01*
X707250Y96240D02*
X710250D01*
X708750Y94740D02*
Y97740D01*
X561200Y119100D02*
X564200D01*
X562700Y117600D02*
Y120600D01*
X548500Y131800D02*
X551500D01*
X550000Y130300D02*
Y133300D01*
X548500Y119100D02*
X551500D01*
X550000Y117600D02*
Y120600D01*
X535800Y131800D02*
X538800D01*
X537300Y130300D02*
Y133300D01*
X445630Y187680D02*
X448630D01*
X447130Y186180D02*
Y189180D01*
X554850Y257530D02*
X557850D01*
X556350Y256030D02*
Y259030D01*
X486270Y188950D02*
X489270D01*
X487770Y187450D02*
Y190450D01*
X430390Y192760D02*
X433390D01*
X431890Y191260D02*
Y194260D01*
X399910Y192760D02*
X402910D01*
X401410Y191260D02*
Y194260D01*
X1033640Y159740D02*
X1036640D01*
X1035140Y158240D02*
Y161240D01*
X561200Y157200D02*
X564200D01*
X562700Y155700D02*
Y158700D01*
X573900Y144500D02*
X576900D01*
X575400Y143000D02*
Y146000D01*
X586600Y131800D02*
X589600D01*
X588100Y130300D02*
Y133300D01*
X667880Y395960D02*
X670880D01*
X669380Y394460D02*
Y397460D01*
X590680Y218160D02*
X595680D01*
X593180Y215660D02*
Y220660D01*
X624700Y395960D02*
X627700D01*
X626200Y394460D02*
Y397460D01*
X637400Y395960D02*
X640400D01*
X638900Y394460D02*
Y397460D01*
X482460Y395960D02*
X485460D01*
X483960Y394460D02*
Y397460D01*
X596760Y388340D02*
X599760D01*
X598260Y386840D02*
Y389840D01*
X672960Y434060D02*
X675960D01*
X674460Y432560D02*
Y435560D01*
X662800Y434060D02*
X665800D01*
X664300Y432560D02*
Y435560D01*
X594220Y266420D02*
X597220D01*
X595720Y264920D02*
Y267920D01*
X512940Y279120D02*
X515940D01*
X514440Y277620D02*
Y280620D01*
X455790Y395960D02*
X458790D01*
X457290Y394460D02*
Y397460D01*
X429120Y395960D02*
X432120D01*
X430620Y394460D02*
Y397460D01*
X637400Y411200D02*
X640400D01*
X638900Y409700D02*
Y412700D01*
X624700Y411200D02*
X627700D01*
X626200Y409700D02*
Y412700D01*
X477380Y411200D02*
X480380D01*
X478880Y409700D02*
Y412700D01*
X464680Y411200D02*
X467680D01*
X466180Y409700D02*
Y412700D01*
X566280Y483590D02*
X569280D01*
X567780Y482090D02*
Y485090D01*
X578980Y483590D02*
X581980D01*
X580480Y482090D02*
Y485090D01*
X578980Y496290D02*
X581980D01*
X580480Y494790D02*
Y497790D01*
X566280Y496290D02*
X569280D01*
X567780Y494790D02*
Y497790D01*
X566280Y508990D02*
X569280D01*
X567780Y507490D02*
Y510490D01*
X578980Y508990D02*
X581980D01*
X580480Y507490D02*
Y510490D01*
X591680Y483590D02*
X594680D01*
X593180Y482090D02*
Y485090D01*
X591680Y496290D02*
X594680D01*
X593180Y494790D02*
Y497790D01*
X591680Y508990D02*
X594680D01*
X593180Y507490D02*
Y510490D01*
X505320Y483590D02*
X508320D01*
X506820Y482090D02*
Y485090D01*
X518020Y483590D02*
X521020D01*
X519520Y482090D02*
Y485090D01*
X518020Y496290D02*
X521020D01*
X519520Y494790D02*
Y497790D01*
X505320Y496290D02*
X508320D01*
X506820Y494790D02*
Y497790D01*
X505320Y508990D02*
X508320D01*
X506820Y507490D02*
Y510490D01*
X518020Y508990D02*
X521020D01*
X519520Y507490D02*
Y510490D01*
X530720Y483590D02*
X533720D01*
X532220Y482090D02*
Y485090D01*
X530720Y496290D02*
X533720D01*
X532220Y494790D02*
Y497790D01*
X530720Y508990D02*
X533720D01*
X532220Y507490D02*
Y510490D01*
X444360Y465810D02*
X447360D01*
X445860Y464310D02*
Y467310D01*
X457060Y465810D02*
X460060D01*
X458560Y464310D02*
Y467310D01*
X457060Y478510D02*
X460060D01*
X458560Y477010D02*
Y480010D01*
X444360Y478510D02*
X447360D01*
X445860Y477010D02*
Y480010D01*
X444360Y491210D02*
X447360D01*
X445860Y489710D02*
Y492710D01*
X457060Y491210D02*
X460060D01*
X458560Y489710D02*
Y492710D01*
X469760Y465810D02*
X472760D01*
X471260Y464310D02*
Y467310D01*
X469760Y478510D02*
X472760D01*
X471260Y477010D02*
Y480010D01*
X469760Y491210D02*
X472760D01*
X471260Y489710D02*
Y492710D01*
X624700Y436600D02*
X627700D01*
X626200Y435100D02*
Y438100D01*
X624700Y449300D02*
X627700D01*
X626200Y447800D02*
Y450800D01*
X637400Y436600D02*
X640400D01*
X638900Y435100D02*
Y438100D01*
X637400Y449300D02*
X640400D01*
X638900Y447800D02*
Y450800D01*
X637400Y423900D02*
X640400D01*
X638900Y422400D02*
Y425400D01*
X624700Y423900D02*
X627700D01*
X626200Y422400D02*
Y425400D01*
X464680Y436600D02*
X467680D01*
X466180Y435100D02*
Y438100D01*
X464680Y449300D02*
X467680D01*
X466180Y447800D02*
Y450800D01*
X477380Y436600D02*
X480380D01*
X478880Y435100D02*
Y438100D01*
X477380Y449300D02*
X480380D01*
X478880Y447800D02*
Y450800D01*
X477380Y423900D02*
X480380D01*
X478880Y422400D02*
Y425400D01*
X464680Y423900D02*
X467680D01*
X466180Y422400D02*
Y425400D01*
X599300Y525500D02*
X602300D01*
X600800Y524000D02*
Y527000D01*
X599300Y538200D02*
X602300D01*
X600800Y536700D02*
Y539700D01*
X586600Y538200D02*
X589600D01*
X588100Y536700D02*
Y539700D01*
X586600Y525500D02*
X589600D01*
X588100Y524000D02*
Y527000D01*
X561200Y525500D02*
X564200D01*
X562700Y524000D02*
Y527000D01*
X535800Y525500D02*
X538800D01*
X537300Y524000D02*
Y527000D01*
X561200Y538200D02*
X564200D01*
X562700Y536700D02*
Y539700D01*
X535800Y538200D02*
X538800D01*
X537300Y536700D02*
Y539700D01*
X573900Y538200D02*
X576900D01*
X575400Y536700D02*
Y539700D01*
X573900Y525500D02*
X576900D01*
X575400Y524000D02*
Y527000D01*
X510400Y525500D02*
X513400D01*
X511900Y524000D02*
Y527000D01*
X497700Y525500D02*
X500700D01*
X499200Y524000D02*
Y527000D01*
X485000Y525500D02*
X488000D01*
X486500Y524000D02*
Y527000D01*
X510400Y538200D02*
X513400D01*
X511900Y536700D02*
Y539700D01*
X497700Y538200D02*
X500700D01*
X499200Y536700D02*
Y539700D01*
X485000Y538200D02*
X488000D01*
X486500Y536700D02*
Y539700D01*
X523100Y538200D02*
X526100D01*
X524600Y536700D02*
Y539700D01*
X523100Y525500D02*
X526100D01*
X524600Y524000D02*
Y527000D01*
X459600Y525500D02*
X462600D01*
X461100Y524000D02*
Y527000D01*
X472300Y525500D02*
X475300D01*
X473800Y524000D02*
Y527000D01*
X548500Y436600D02*
X551500D01*
X550000Y435100D02*
Y438100D01*
X573900Y436600D02*
X576900D01*
X575400Y435100D02*
Y438100D01*
X573900Y449300D02*
X576900D01*
X575400Y447800D02*
Y450800D01*
X561200Y449300D02*
X564200D01*
X562700Y447800D02*
Y450800D01*
X561200Y436600D02*
X564200D01*
X562700Y435100D02*
Y438100D01*
X548500Y449300D02*
X551500D01*
X550000Y447800D02*
Y450800D01*
X523100Y436600D02*
X526100D01*
X524600Y435100D02*
Y438100D01*
X523100Y449300D02*
X526100D01*
X524600Y447800D02*
Y450800D01*
X510400Y449300D02*
X513400D01*
X511900Y447800D02*
Y450800D01*
X510400Y436600D02*
X513400D01*
X511900Y435100D02*
Y438100D01*
X497700Y436600D02*
X500700D01*
X499200Y435100D02*
Y438100D01*
X497700Y449300D02*
X500700D01*
X499200Y447800D02*
Y450800D01*
X586600Y449300D02*
X589600D01*
X588100Y447800D02*
Y450800D01*
X586600Y436600D02*
X589600D01*
X588100Y435100D02*
Y438100D01*
X524640Y263880D02*
X529640D01*
X527140Y261380D02*
Y266380D01*
X570360Y263880D02*
X575360D01*
X572860Y261380D02*
Y266380D01*
X683120Y360400D02*
X686120D01*
X684620Y358900D02*
Y361900D01*
X683120Y373100D02*
X686120D01*
X684620Y371600D02*
Y374600D01*
X695820Y373100D02*
X698820D01*
X697320Y371600D02*
Y374600D01*
X695820Y360400D02*
X698820D01*
X697320Y358900D02*
Y361900D01*
X708520Y360400D02*
X711520D01*
X710020Y358900D02*
Y361900D01*
X708520Y373100D02*
X711520D01*
X710020Y371600D02*
Y374600D01*
X721220Y373100D02*
X724220D01*
X722720Y371600D02*
Y374600D01*
X721220Y360400D02*
X724220D01*
X722720Y358900D02*
Y361900D01*
X733920Y360400D02*
X736920D01*
X735420Y358900D02*
Y361900D01*
X733920Y373100D02*
X736920D01*
X735420Y371600D02*
Y374600D01*
X746620Y373100D02*
X749620D01*
X748120Y371600D02*
Y374600D01*
X746620Y360400D02*
X749620D01*
X748120Y358900D02*
Y361900D01*
X759320Y360400D02*
X762320D01*
X760820Y358900D02*
Y361900D01*
X759320Y373100D02*
X762320D01*
X760820Y371600D02*
Y374600D01*
X772020Y373100D02*
X775020D01*
X773520Y371600D02*
Y374600D01*
X772020Y360400D02*
X775020D01*
X773520Y358900D02*
Y361900D01*
X784720Y360400D02*
X787720D01*
X786220Y358900D02*
Y361900D01*
X784720Y373100D02*
X787720D01*
X786220Y371600D02*
Y374600D01*
X797420Y373100D02*
X800420D01*
X798920Y371600D02*
Y374600D01*
X797420Y360400D02*
X800420D01*
X798920Y358900D02*
Y361900D01*
X810120Y360400D02*
X813120D01*
X811620Y358900D02*
Y361900D01*
X810120Y373100D02*
X813120D01*
X811620Y371600D02*
Y374600D01*
X822820Y373100D02*
X825820D01*
X824320Y371600D02*
Y374600D01*
X822820Y360400D02*
X825820D01*
X824320Y358900D02*
Y361900D01*
X835520Y360400D02*
X838520D01*
X837020Y358900D02*
Y361900D01*
X835520Y373100D02*
X838520D01*
X837020Y371600D02*
Y374600D01*
X848220Y373100D02*
X851220D01*
X849720Y371600D02*
Y374600D01*
X848220Y360400D02*
X851220D01*
X849720Y358900D02*
Y361900D01*
X860920Y360400D02*
X863920D01*
X862420Y358900D02*
Y361900D01*
X860920Y373100D02*
X863920D01*
X862420Y371600D02*
Y374600D01*
X899020Y373100D02*
X902020D01*
X900520Y371600D02*
Y374600D01*
X899020Y360400D02*
X902020D01*
X900520Y358900D02*
Y361900D01*
X911720Y360400D02*
X914720D01*
X913220Y358900D02*
Y361900D01*
X911720Y373100D02*
X914720D01*
X913220Y371600D02*
Y374600D01*
X924420Y373100D02*
X927420D01*
X925920Y371600D02*
Y374600D01*
X924420Y360400D02*
X927420D01*
X925920Y358900D02*
Y361900D01*
X924420Y434060D02*
X927420D01*
X925920Y432560D02*
Y435560D01*
X911720Y446760D02*
X914720D01*
X913220Y445260D02*
Y448260D01*
X911720Y434060D02*
X914720D01*
X913220Y432560D02*
Y435560D01*
X899020Y434060D02*
X902020D01*
X900520Y432560D02*
Y435560D01*
X899020Y446760D02*
X902020D01*
X900520Y445260D02*
Y448260D01*
X860920Y446760D02*
X863920D01*
X862420Y445260D02*
Y448260D01*
X860920Y434060D02*
X863920D01*
X862420Y432560D02*
Y435560D01*
X848220Y434060D02*
X851220D01*
X849720Y432560D02*
Y435560D01*
X848220Y446760D02*
X851220D01*
X849720Y445260D02*
Y448260D01*
X835520Y446760D02*
X838520D01*
X837020Y445260D02*
Y448260D01*
X835520Y434060D02*
X838520D01*
X837020Y432560D02*
Y435560D01*
X822820Y434060D02*
X825820D01*
X824320Y432560D02*
Y435560D01*
X822820Y446760D02*
X825820D01*
X824320Y445260D02*
Y448260D01*
X810120Y446760D02*
X813120D01*
X811620Y445260D02*
Y448260D01*
X810120Y434060D02*
X813120D01*
X811620Y432560D02*
Y435560D01*
X797420Y434060D02*
X800420D01*
X798920Y432560D02*
Y435560D01*
X797420Y446760D02*
X800420D01*
X798920Y445260D02*
Y448260D01*
X784720Y446760D02*
X787720D01*
X786220Y445260D02*
Y448260D01*
X784720Y434060D02*
X787720D01*
X786220Y432560D02*
Y435560D01*
X772020Y434060D02*
X775020D01*
X773520Y432560D02*
Y435560D01*
X772020Y446760D02*
X775020D01*
X773520Y445260D02*
Y448260D01*
X759320Y446760D02*
X762320D01*
X760820Y445260D02*
Y448260D01*
X759320Y434060D02*
X762320D01*
X760820Y432560D02*
Y435560D01*
X746620Y434060D02*
X749620D01*
X748120Y432560D02*
Y435560D01*
X746620Y446760D02*
X749620D01*
X748120Y445260D02*
Y448260D01*
X733920Y446760D02*
X736920D01*
X735420Y445260D02*
Y448260D01*
X733920Y434060D02*
X736920D01*
X735420Y432560D02*
Y435560D01*
X721220Y434060D02*
X724220D01*
X722720Y432560D02*
Y435560D01*
X721220Y446760D02*
X724220D01*
X722720Y445260D02*
Y448260D01*
X708520Y446760D02*
X711520D01*
X710020Y445260D02*
Y448260D01*
X708520Y434060D02*
X711520D01*
X710020Y432560D02*
Y435560D01*
X695820Y434060D02*
X698820D01*
X697320Y432560D02*
Y435560D01*
X695820Y446760D02*
X698820D01*
X697320Y445260D02*
Y448260D01*
X401180Y446760D02*
X404180D01*
X402680Y445260D02*
Y448260D01*
X401180Y434060D02*
X404180D01*
X402680Y432560D02*
Y435560D01*
X388480Y434060D02*
X391480D01*
X389980Y432560D02*
Y435560D01*
X388480Y446760D02*
X391480D01*
X389980Y445260D02*
Y448260D01*
X375780Y446760D02*
X378780D01*
X377280Y445260D02*
Y448260D01*
X375780Y434060D02*
X378780D01*
X377280Y432560D02*
Y435560D01*
X363080Y434060D02*
X366080D01*
X364580Y432560D02*
Y435560D01*
X363080Y446760D02*
X366080D01*
X364580Y445260D02*
Y448260D01*
X350380Y446760D02*
X353380D01*
X351880Y445260D02*
Y448260D01*
X350380Y434060D02*
X353380D01*
X351880Y432560D02*
Y435560D01*
X337680Y434060D02*
X340680D01*
X339180Y432560D02*
Y435560D01*
X337680Y446760D02*
X340680D01*
X339180Y445260D02*
Y448260D01*
X324980Y446760D02*
X327980D01*
X326480Y445260D02*
Y448260D01*
X324980Y434060D02*
X327980D01*
X326480Y432560D02*
Y435560D01*
X312280Y434060D02*
X315280D01*
X313780Y432560D02*
Y435560D01*
X312280Y446760D02*
X315280D01*
X313780Y445260D02*
Y448260D01*
X299580Y446760D02*
X302580D01*
X301080Y445260D02*
Y448260D01*
X299580Y434060D02*
X302580D01*
X301080Y432560D02*
Y435560D01*
X286880Y434060D02*
X289880D01*
X288380Y432560D02*
Y435560D01*
X286880Y446760D02*
X289880D01*
X288380Y445260D02*
Y448260D01*
X274180Y446760D02*
X277180D01*
X275680Y445260D02*
Y448260D01*
X274180Y434060D02*
X277180D01*
X275680Y432560D02*
Y435560D01*
X261480Y434060D02*
X264480D01*
X262980Y432560D02*
Y435560D01*
X261480Y446760D02*
X264480D01*
X262980Y445260D02*
Y448260D01*
X248780Y446760D02*
X251780D01*
X250280Y445260D02*
Y448260D01*
X248780Y434060D02*
X251780D01*
X250280Y432560D02*
Y435560D01*
X236080Y434060D02*
X239080D01*
X237580Y432560D02*
Y435560D01*
X236080Y446760D02*
X239080D01*
X237580Y445260D02*
Y448260D01*
X197980Y446760D02*
X200980D01*
X199480Y445260D02*
Y448260D01*
X197980Y434060D02*
X200980D01*
X199480Y432560D02*
Y435560D01*
X185280Y434060D02*
X188280D01*
X186780Y432560D02*
Y435560D01*
X185280Y446760D02*
X188280D01*
X186780Y445260D02*
Y448260D01*
X172580Y434060D02*
X175580D01*
X174080Y432560D02*
Y435560D01*
X172580Y360400D02*
X175580D01*
X174080Y358900D02*
Y361900D01*
X172580Y373100D02*
X175580D01*
X174080Y371600D02*
Y374600D01*
X185280Y373100D02*
X188280D01*
X186780Y371600D02*
Y374600D01*
X185280Y360400D02*
X188280D01*
X186780Y358900D02*
Y361900D01*
X197980Y360400D02*
X200980D01*
X199480Y358900D02*
Y361900D01*
X197980Y373100D02*
X200980D01*
X199480Y371600D02*
Y374600D01*
X236080Y373100D02*
X239080D01*
X237580Y371600D02*
Y374600D01*
X236080Y360400D02*
X239080D01*
X237580Y358900D02*
Y361900D01*
X248780Y360400D02*
X251780D01*
X250280Y358900D02*
Y361900D01*
X248780Y373100D02*
X251780D01*
X250280Y371600D02*
Y374600D01*
X261480Y373100D02*
X264480D01*
X262980Y371600D02*
Y374600D01*
X261480Y360400D02*
X264480D01*
X262980Y358900D02*
Y361900D01*
X274180Y360400D02*
X277180D01*
X275680Y358900D02*
Y361900D01*
X274180Y373100D02*
X277180D01*
X275680Y371600D02*
Y374600D01*
X286880Y373100D02*
X289880D01*
X288380Y371600D02*
Y374600D01*
X286880Y360400D02*
X289880D01*
X288380Y358900D02*
Y361900D01*
X299580Y360400D02*
X302580D01*
X301080Y358900D02*
Y361900D01*
X299580Y373100D02*
X302580D01*
X301080Y371600D02*
Y374600D01*
X312280Y373100D02*
X315280D01*
X313780Y371600D02*
Y374600D01*
X312280Y360400D02*
X315280D01*
X313780Y358900D02*
Y361900D01*
X324980Y360400D02*
X327980D01*
X326480Y358900D02*
Y361900D01*
X324980Y373100D02*
X327980D01*
X326480Y371600D02*
Y374600D01*
X337680Y373100D02*
X340680D01*
X339180Y371600D02*
Y374600D01*
X337680Y360400D02*
X340680D01*
X339180Y358900D02*
Y361900D01*
X350380Y360400D02*
X353380D01*
X351880Y358900D02*
Y361900D01*
X350380Y373100D02*
X353380D01*
X351880Y371600D02*
Y374600D01*
X363080Y373100D02*
X366080D01*
X364580Y371600D02*
Y374600D01*
X363080Y360400D02*
X366080D01*
X364580Y358900D02*
Y361900D01*
X375780Y360400D02*
X378780D01*
X377280Y358900D02*
Y361900D01*
X375780Y373100D02*
X378780D01*
X377280Y371600D02*
Y374600D01*
X388480Y373100D02*
X391480D01*
X389980Y371600D02*
Y374600D01*
X388480Y360400D02*
X391480D01*
X389980Y358900D02*
Y361900D01*
X401180Y360400D02*
X404180D01*
X402680Y358900D02*
Y361900D01*
X401180Y373100D02*
X404180D01*
X402680Y371600D02*
Y374600D01*
X413880Y373100D02*
X416880D01*
X415380Y371600D02*
Y374600D01*
X413880Y360400D02*
X416880D01*
X415380Y358900D02*
Y361900D01*
X437010Y528040D02*
X442010D01*
X439510Y525540D02*
Y530540D01*
X619890Y528040D02*
X624890D01*
X622390Y525540D02*
Y530540D01*
X597030Y446760D02*
X602030D01*
X599530Y444260D02*
Y449260D01*
X536070Y446760D02*
X541070D01*
X538570Y444260D02*
Y449260D01*
X624700Y576300D02*
X627700D01*
X626200Y574800D02*
Y577800D01*
X624700Y563600D02*
X627700D01*
X626200Y562100D02*
Y565100D01*
X472300Y576300D02*
X475300D01*
X473800Y574800D02*
Y577800D01*
X472300Y563600D02*
X475300D01*
X473800Y562100D02*
Y565100D01*
X624700Y550900D02*
X627700D01*
X626200Y549400D02*
Y552400D01*
X624700Y536930D02*
X627700D01*
X626200Y535430D02*
Y538430D01*
X472300Y550900D02*
X475300D01*
X473800Y549400D02*
Y552400D01*
X472300Y538200D02*
X475300D01*
X473800Y536700D02*
Y539700D01*
X650100Y627100D02*
X653100D01*
X651600Y625600D02*
Y628600D01*
X637400Y665200D02*
X640400D01*
X638900Y663700D02*
Y666700D01*
X650100Y665200D02*
X653100D01*
X651600Y663700D02*
Y666700D01*
X650100Y652500D02*
X653100D01*
X651600Y651000D02*
Y654000D01*
X637400Y652500D02*
X640400D01*
X638900Y651000D02*
Y654000D01*
X637400Y639800D02*
X640400D01*
X638900Y638300D02*
Y641300D01*
X650100Y639800D02*
X653100D01*
X651600Y638300D02*
Y641300D01*
X637400Y627100D02*
X640400D01*
X638900Y625600D02*
Y628600D01*
X459600Y665200D02*
X462600D01*
X461100Y663700D02*
Y666700D01*
X446900Y665200D02*
X449900D01*
X448400Y663700D02*
Y666700D01*
X446900Y652500D02*
X449900D01*
X448400Y651000D02*
Y654000D01*
X459600Y652500D02*
X462600D01*
X461100Y651000D02*
Y654000D01*
X459600Y639800D02*
X462600D01*
X461100Y638300D02*
Y641300D01*
X446900Y639800D02*
X449900D01*
X448400Y638300D02*
Y641300D01*
X446900Y627100D02*
X449900D01*
X448400Y625600D02*
Y628600D01*
X459600Y627100D02*
X462600D01*
X461100Y625600D02*
Y628600D01*
X650100Y576300D02*
X653100D01*
X651600Y574800D02*
Y577800D01*
X637400Y576300D02*
X640400D01*
X638900Y574800D02*
Y577800D01*
X637400Y563600D02*
X640400D01*
X638900Y562100D02*
Y565100D01*
X650100Y538200D02*
X653100D01*
X651600Y536700D02*
Y539700D01*
X637400Y536930D02*
X640400D01*
X638900Y535430D02*
Y538430D01*
X637400Y550900D02*
X640400D01*
X638900Y549400D02*
Y552400D01*
X650100Y550900D02*
X653100D01*
X651600Y549400D02*
Y552400D01*
X650100Y563600D02*
X653100D01*
X651600Y562100D02*
Y565100D01*
X459600Y576300D02*
X462600D01*
X461100Y574800D02*
Y577800D01*
X446900Y576300D02*
X449900D01*
X448400Y574800D02*
Y577800D01*
X446900Y563600D02*
X449900D01*
X448400Y562100D02*
Y565100D01*
X459600Y563600D02*
X462600D01*
X461100Y562100D02*
Y565100D01*
X459600Y550900D02*
X462600D01*
X461100Y549400D02*
Y552400D01*
X446900Y550900D02*
X449900D01*
X448400Y549400D02*
Y552400D01*
X446900Y538200D02*
X449900D01*
X448400Y536700D02*
Y539700D01*
X459600Y538200D02*
X462600D01*
X461100Y536700D02*
Y539700D01*
M02*
