G04*
G04 #@! TF.GenerationSoftware,Altium Limited,Altium Designer,23.3.1 (30)*
G04*
G04 Layer_Physical_Order=1*
G04 Layer_Color=255*
%FSLAX44Y44*%
%MOMM*%
G71*
G04*
G04 #@! TF.SameCoordinates,EE3F4187-3FEB-4C8D-94AF-BEFEFA225CE7*
G04*
G04*
G04 #@! TF.FilePolarity,Positive*
G04*
G01*
G75*
%ADD10C,0.2000*%
G04:AMPARAMS|DCode=25|XSize=0.889mm|YSize=0.889mm|CornerRadius=0.1111mm|HoleSize=0mm|Usage=FLASHONLY|Rotation=180.000|XOffset=0mm|YOffset=0mm|HoleType=Round|Shape=RoundedRectangle|*
%AMROUNDEDRECTD25*
21,1,0.8890,0.6668,0,0,180.0*
21,1,0.6668,0.8890,0,0,180.0*
1,1,0.2223,-0.3334,0.3334*
1,1,0.2223,0.3334,0.3334*
1,1,0.2223,0.3334,-0.3334*
1,1,0.2223,-0.3334,-0.3334*
%
%ADD25ROUNDEDRECTD25*%
%ADD26R,1.9000X4.4000*%
G04:AMPARAMS|DCode=27|XSize=0.889mm|YSize=0.889mm|CornerRadius=0.0889mm|HoleSize=0mm|Usage=FLASHONLY|Rotation=0.000|XOffset=0mm|YOffset=0mm|HoleType=Round|Shape=RoundedRectangle|*
%AMROUNDEDRECTD27*
21,1,0.8890,0.7112,0,0,0.0*
21,1,0.7112,0.8890,0,0,0.0*
1,1,0.1778,0.3556,-0.3556*
1,1,0.1778,-0.3556,-0.3556*
1,1,0.1778,-0.3556,0.3556*
1,1,0.1778,0.3556,0.3556*
%
%ADD27ROUNDEDRECTD27*%
G04:AMPARAMS|DCode=28|XSize=0.889mm|YSize=0.889mm|CornerRadius=0.1111mm|HoleSize=0mm|Usage=FLASHONLY|Rotation=270.000|XOffset=0mm|YOffset=0mm|HoleType=Round|Shape=RoundedRectangle|*
%AMROUNDEDRECTD28*
21,1,0.8890,0.6668,0,0,270.0*
21,1,0.6668,0.8890,0,0,270.0*
1,1,0.2223,-0.3334,-0.3334*
1,1,0.2223,-0.3334,0.3334*
1,1,0.2223,0.3334,0.3334*
1,1,0.2223,0.3334,-0.3334*
%
%ADD28ROUNDEDRECTD28*%
G04:AMPARAMS|DCode=29|XSize=0.802mm|YSize=0.972mm|CornerRadius=0.2005mm|HoleSize=0mm|Usage=FLASHONLY|Rotation=0.000|XOffset=0mm|YOffset=0mm|HoleType=Round|Shape=RoundedRectangle|*
%AMROUNDEDRECTD29*
21,1,0.8020,0.5710,0,0,0.0*
21,1,0.4010,0.9720,0,0,0.0*
1,1,0.4010,0.2005,-0.2855*
1,1,0.4010,-0.2005,-0.2855*
1,1,0.4010,-0.2005,0.2855*
1,1,0.4010,0.2005,0.2855*
%
%ADD29ROUNDEDRECTD29*%
G04:AMPARAMS|DCode=30|XSize=1.0795mm|YSize=1.397mm|CornerRadius=0.108mm|HoleSize=0mm|Usage=FLASHONLY|Rotation=90.000|XOffset=0mm|YOffset=0mm|HoleType=Round|Shape=RoundedRectangle|*
%AMROUNDEDRECTD30*
21,1,1.0795,1.1811,0,0,90.0*
21,1,0.8636,1.3970,0,0,90.0*
1,1,0.2159,0.5906,0.4318*
1,1,0.2159,0.5906,-0.4318*
1,1,0.2159,-0.5906,-0.4318*
1,1,0.2159,-0.5906,0.4318*
%
%ADD30ROUNDEDRECTD30*%
G04:AMPARAMS|DCode=31|XSize=0.5mm|YSize=0.2mm|CornerRadius=0mm|HoleSize=0mm|Usage=FLASHONLY|Rotation=135.000|XOffset=0mm|YOffset=0mm|HoleType=Round|Shape=Round|*
%AMOVALD31*
21,1,0.3000,0.2000,0.0000,0.0000,135.0*
1,1,0.2000,0.1061,-0.1061*
1,1,0.2000,-0.1061,0.1061*
%
%ADD31OVALD31*%

G04:AMPARAMS|DCode=32|XSize=0.5mm|YSize=0.2mm|CornerRadius=0mm|HoleSize=0mm|Usage=FLASHONLY|Rotation=225.000|XOffset=0mm|YOffset=0mm|HoleType=Round|Shape=Round|*
%AMOVALD32*
21,1,0.3000,0.2000,0.0000,0.0000,225.0*
1,1,0.2000,0.1061,0.1061*
1,1,0.2000,-0.1061,-0.1061*
%
%ADD32OVALD32*%

G04:AMPARAMS|DCode=33|XSize=0.889mm|YSize=0.889mm|CornerRadius=0.0889mm|HoleSize=0mm|Usage=FLASHONLY|Rotation=315.000|XOffset=0mm|YOffset=0mm|HoleType=Round|Shape=RoundedRectangle|*
%AMROUNDEDRECTD33*
21,1,0.8890,0.7112,0,0,315.0*
21,1,0.7112,0.8890,0,0,315.0*
1,1,0.1778,0.0000,-0.5029*
1,1,0.1778,-0.5029,0.0000*
1,1,0.1778,0.0000,0.5029*
1,1,0.1778,0.5029,0.0000*
%
%ADD33ROUNDEDRECTD33*%
G04:AMPARAMS|DCode=34|XSize=0.889mm|YSize=0.889mm|CornerRadius=0.1111mm|HoleSize=0mm|Usage=FLASHONLY|Rotation=315.000|XOffset=0mm|YOffset=0mm|HoleType=Round|Shape=RoundedRectangle|*
%AMROUNDEDRECTD34*
21,1,0.8890,0.6668,0,0,315.0*
21,1,0.6668,0.8890,0,0,315.0*
1,1,0.2223,0.0000,-0.4715*
1,1,0.2223,-0.4715,0.0000*
1,1,0.2223,0.0000,0.4715*
1,1,0.2223,0.4715,0.0000*
%
%ADD34ROUNDEDRECTD34*%
G04:AMPARAMS|DCode=35|XSize=0.889mm|YSize=0.889mm|CornerRadius=0.1111mm|HoleSize=0mm|Usage=FLASHONLY|Rotation=225.000|XOffset=0mm|YOffset=0mm|HoleType=Round|Shape=RoundedRectangle|*
%AMROUNDEDRECTD35*
21,1,0.8890,0.6668,0,0,225.0*
21,1,0.6668,0.8890,0,0,225.0*
1,1,0.2223,-0.4715,0.0000*
1,1,0.2223,0.0000,0.4715*
1,1,0.2223,0.4715,0.0000*
1,1,0.2223,0.0000,-0.4715*
%
%ADD35ROUNDEDRECTD35*%
G04:AMPARAMS|DCode=36|XSize=0.889mm|YSize=0.889mm|CornerRadius=0.0889mm|HoleSize=0mm|Usage=FLASHONLY|Rotation=45.000|XOffset=0mm|YOffset=0mm|HoleType=Round|Shape=RoundedRectangle|*
%AMROUNDEDRECTD36*
21,1,0.8890,0.7112,0,0,45.0*
21,1,0.7112,0.8890,0,0,45.0*
1,1,0.1778,0.5029,0.0000*
1,1,0.1778,0.0000,-0.5029*
1,1,0.1778,-0.5029,0.0000*
1,1,0.1778,0.0000,0.5029*
%
%ADD36ROUNDEDRECTD36*%
G04:AMPARAMS|DCode=37|XSize=0.9mm|YSize=0.8mm|CornerRadius=0.1mm|HoleSize=0mm|Usage=FLASHONLY|Rotation=45.000|XOffset=0mm|YOffset=0mm|HoleType=Round|Shape=RoundedRectangle|*
%AMROUNDEDRECTD37*
21,1,0.9000,0.6000,0,0,45.0*
21,1,0.7000,0.8000,0,0,45.0*
1,1,0.2000,0.4596,0.0354*
1,1,0.2000,-0.0354,-0.4596*
1,1,0.2000,-0.4596,-0.0354*
1,1,0.2000,0.0354,0.4596*
%
%ADD37ROUNDEDRECTD37*%
G04:AMPARAMS|DCode=38|XSize=0.9mm|YSize=0.8mm|CornerRadius=0.1mm|HoleSize=0mm|Usage=FLASHONLY|Rotation=135.000|XOffset=0mm|YOffset=0mm|HoleType=Round|Shape=RoundedRectangle|*
%AMROUNDEDRECTD38*
21,1,0.9000,0.6000,0,0,135.0*
21,1,0.7000,0.8000,0,0,135.0*
1,1,0.2000,-0.0354,0.4596*
1,1,0.2000,0.4596,-0.0354*
1,1,0.2000,0.0354,-0.4596*
1,1,0.2000,-0.4596,0.0354*
%
%ADD38ROUNDEDRECTD38*%
G04:AMPARAMS|DCode=39|XSize=0.889mm|YSize=0.889mm|CornerRadius=0.0889mm|HoleSize=0mm|Usage=FLASHONLY|Rotation=90.000|XOffset=0mm|YOffset=0mm|HoleType=Round|Shape=RoundedRectangle|*
%AMROUNDEDRECTD39*
21,1,0.8890,0.7112,0,0,90.0*
21,1,0.7112,0.8890,0,0,90.0*
1,1,0.1778,0.3556,0.3556*
1,1,0.1778,0.3556,-0.3556*
1,1,0.1778,-0.3556,-0.3556*
1,1,0.1778,-0.3556,0.3556*
%
%ADD39ROUNDEDRECTD39*%
%ADD40R,3.2500X5.0000*%
G04:AMPARAMS|DCode=41|XSize=2.7mm|YSize=1.3mm|CornerRadius=0.1625mm|HoleSize=0mm|Usage=FLASHONLY|Rotation=180.000|XOffset=0mm|YOffset=0mm|HoleType=Round|Shape=RoundedRectangle|*
%AMROUNDEDRECTD41*
21,1,2.7000,0.9750,0,0,180.0*
21,1,2.3750,1.3000,0,0,180.0*
1,1,0.3250,-1.1875,0.4875*
1,1,0.3250,1.1875,0.4875*
1,1,0.3250,1.1875,-0.4875*
1,1,0.3250,-1.1875,-0.4875*
%
%ADD41ROUNDEDRECTD41*%
G04:AMPARAMS|DCode=42|XSize=1.27mm|YSize=2.032mm|CornerRadius=0.127mm|HoleSize=0mm|Usage=FLASHONLY|Rotation=0.000|XOffset=0mm|YOffset=0mm|HoleType=Round|Shape=RoundedRectangle|*
%AMROUNDEDRECTD42*
21,1,1.2700,1.7780,0,0,0.0*
21,1,1.0160,2.0320,0,0,0.0*
1,1,0.2540,0.5080,-0.8890*
1,1,0.2540,-0.5080,-0.8890*
1,1,0.2540,-0.5080,0.8890*
1,1,0.2540,0.5080,0.8890*
%
%ADD42ROUNDEDRECTD42*%
G04:AMPARAMS|DCode=68|XSize=0.7mm|YSize=1.15mm|CornerRadius=0.175mm|HoleSize=0mm|Usage=FLASHONLY|Rotation=180.000|XOffset=0mm|YOffset=0mm|HoleType=Round|Shape=RoundedRectangle|*
%AMROUNDEDRECTD68*
21,1,0.7000,0.8000,0,0,180.0*
21,1,0.3500,1.1500,0,0,180.0*
1,1,0.3500,-0.1750,0.4000*
1,1,0.3500,0.1750,0.4000*
1,1,0.3500,0.1750,-0.4000*
1,1,0.3500,-0.1750,-0.4000*
%
%ADD68ROUNDEDRECTD68*%
G04:AMPARAMS|DCode=69|XSize=4.7mm|YSize=1.5mm|CornerRadius=0.15mm|HoleSize=0mm|Usage=FLASHONLY|Rotation=180.000|XOffset=0mm|YOffset=0mm|HoleType=Round|Shape=RoundedRectangle|*
%AMROUNDEDRECTD69*
21,1,4.7000,1.2000,0,0,180.0*
21,1,4.4000,1.5000,0,0,180.0*
1,1,0.3000,-2.2000,0.6000*
1,1,0.3000,2.2000,0.6000*
1,1,0.3000,2.2000,-0.6000*
1,1,0.3000,-2.2000,-0.6000*
%
%ADD69ROUNDEDRECTD69*%
G04:AMPARAMS|DCode=70|XSize=4.2mm|YSize=3.3mm|CornerRadius=0.198mm|HoleSize=0mm|Usage=FLASHONLY|Rotation=180.000|XOffset=0mm|YOffset=0mm|HoleType=Round|Shape=RoundedRectangle|*
%AMROUNDEDRECTD70*
21,1,4.2000,2.9040,0,0,180.0*
21,1,3.8040,3.3000,0,0,180.0*
1,1,0.3960,-1.9020,1.4520*
1,1,0.3960,1.9020,1.4520*
1,1,0.3960,1.9020,-1.4520*
1,1,0.3960,-1.9020,-1.4520*
%
%ADD70ROUNDEDRECTD70*%
%ADD71P,3.9598X4X360.0*%
%ADD72C,0.2000*%
%ADD73C,0.2540*%
%ADD74C,0.7000*%
%ADD75C,12.0000*%
%ADD76C,1.6500*%
%ADD77C,8.0000*%
%ADD78C,0.6000*%
%ADD79C,0.8000*%
%ADD80C,0.5000*%
G36*
X661760Y693140D02*
X666840Y688060D01*
Y510260D01*
X661760Y505180D01*
X613500D01*
X608420Y500100D01*
Y477240D01*
X603340Y472160D01*
X560160D01*
X555080Y477240D01*
X555080Y688060D01*
X560160Y693140D01*
X661760Y693140D01*
D02*
G37*
G36*
X539840D02*
X544920Y688060D01*
Y477240D01*
X539840Y472160D01*
X496660D01*
X491580Y477240D01*
Y500100D01*
X486500Y505180D01*
X453480D01*
X448400Y510260D01*
Y530580D01*
X443320Y535660D01*
X438240Y535660D01*
X433160Y540740D01*
Y688060D01*
X438240Y693140D01*
X539840Y693140D01*
D02*
G37*
G36*
X590640Y464540D02*
Y444220D01*
X595720Y439140D01*
X603340D01*
X608420Y434060D01*
Y406120D01*
X613500Y401040D01*
X1037680D01*
X1042760Y395960D01*
X1042760Y157200D01*
X1037680Y152120D01*
X758132D01*
X710581Y199671D01*
X709741Y200233D01*
X708750Y200430D01*
X656112D01*
X655738Y200355D01*
X655088Y201328D01*
X653954Y202086D01*
X652616Y202352D01*
X645504D01*
X644166Y202086D01*
X643032Y201328D01*
X642551Y200609D01*
X641775Y200443D01*
X641105D01*
X640329Y200609D01*
X639848Y201328D01*
X638714Y202086D01*
X637376Y202352D01*
X630264D01*
X628926Y202086D01*
X628434Y201758D01*
X620676D01*
X619847Y203757D01*
X623849Y207760D01*
X624607Y208894D01*
X624851Y210122D01*
X624911Y210295D01*
X625866Y211911D01*
X626395Y212055D01*
X627317Y212238D01*
X628524Y213045D01*
X633239Y217759D01*
X634046Y218967D01*
X634329Y220392D01*
X634139Y221350D01*
X634631Y222091D01*
X634969Y222430D01*
X635710Y222921D01*
X636668Y222731D01*
X638093Y223014D01*
X639301Y223821D01*
X644015Y228536D01*
X644822Y229743D01*
X645106Y231168D01*
X644822Y232593D01*
X644015Y233801D01*
X640544Y237271D01*
X645452Y242179D01*
X646235Y243350D01*
X646509Y244732D01*
Y251504D01*
X647443Y252438D01*
X648225Y253609D01*
X648500Y254990D01*
Y255845D01*
X649587Y256932D01*
X650431Y258968D01*
Y261172D01*
X649587Y263208D01*
X648029Y264767D01*
X645993Y265610D01*
X643789D01*
X641752Y264767D01*
X640900Y263914D01*
X640048Y264767D01*
X638011Y265610D01*
X635807D01*
X633771Y264767D01*
X632213Y263208D01*
X631369Y261172D01*
Y258968D01*
X632213Y256932D01*
X633300Y255845D01*
Y254990D01*
X633575Y253609D01*
X634357Y252438D01*
X635291Y251504D01*
Y247883D01*
X632612Y245204D01*
X629141Y248675D01*
X627933Y249482D01*
X626508Y249766D01*
X625084Y249482D01*
X623876Y248675D01*
X619161Y243960D01*
X618354Y242753D01*
X618071Y241328D01*
X618261Y240370D01*
X617770Y239629D01*
X617431Y239291D01*
X616690Y238799D01*
X615732Y238989D01*
X614307Y238706D01*
X613100Y237899D01*
X608385Y233184D01*
X607578Y231977D01*
X607394Y231055D01*
X607251Y230526D01*
X605635Y229571D01*
X603942Y230584D01*
X603834Y231071D01*
X603671Y231890D01*
X602913Y233024D01*
X597884Y238053D01*
X596750Y238811D01*
X595932Y238974D01*
X595724Y239020D01*
X594669Y240811D01*
X595181Y242420D01*
X595888Y242668D01*
X596236Y242738D01*
X597407Y243520D01*
X602357Y248470D01*
X603139Y249641D01*
X603414Y251022D01*
X603139Y252403D01*
X602357Y253574D01*
X598114Y257817D01*
X596943Y258599D01*
X595562Y258874D01*
X594181Y258599D01*
X593010Y257817D01*
X588060Y252867D01*
X587277Y251696D01*
X587114Y250873D01*
X587003Y250315D01*
X585868Y249237D01*
X585020Y249068D01*
X584354Y249500D01*
X583880Y249974D01*
X583448Y250640D01*
X583617Y251488D01*
X583351Y252826D01*
X582623Y253915D01*
X591507Y262799D01*
X592582Y261723D01*
X594618Y260880D01*
X596822D01*
X598858Y261723D01*
X600417Y263282D01*
X601260Y265318D01*
Y267522D01*
X602265Y268455D01*
X603353Y267017D01*
X603266Y266578D01*
X603541Y265197D01*
X604323Y264026D01*
X608566Y259783D01*
X609737Y259001D01*
X611118Y258726D01*
X612499Y259001D01*
X613670Y259783D01*
X618620Y264733D01*
X619403Y265904D01*
X619677Y267285D01*
X619403Y268666D01*
X618620Y269837D01*
X614378Y274080D01*
X613206Y274862D01*
X611825Y275137D01*
X610444Y274862D01*
X609599Y274298D01*
X606943Y276954D01*
X605683Y277796D01*
X604197Y278092D01*
X567466D01*
X565979Y277796D01*
X564719Y276954D01*
X563143Y275378D01*
X552985D01*
X552891Y275360D01*
X552540D01*
X551549Y275163D01*
X550709Y274601D01*
X550466Y274358D01*
X550375Y274298D01*
X550314Y274207D01*
X549439Y273331D01*
X548877Y272491D01*
X548680Y271500D01*
Y233555D01*
X548665Y233477D01*
Y231257D01*
X547158Y230486D01*
X546783Y230463D01*
X544084Y233162D01*
Y241655D01*
X543810Y243036D01*
X543027Y244207D01*
X538369Y248865D01*
Y256260D01*
X538095Y257641D01*
X537312Y258812D01*
X533559Y262566D01*
X533680Y263019D01*
Y264741D01*
X533234Y266404D01*
X532373Y267896D01*
X531156Y269113D01*
X529664Y269974D01*
X528001Y270420D01*
X526279D01*
X524616Y269974D01*
X523124Y269113D01*
X521907Y267896D01*
X521046Y266404D01*
X520770Y265377D01*
X519217Y264493D01*
X518600Y264382D01*
X518049Y264730D01*
Y274895D01*
X519137Y275982D01*
X519980Y278018D01*
Y280222D01*
X519137Y282258D01*
X517578Y283817D01*
X515542Y284660D01*
X513338D01*
X511302Y283817D01*
X509743Y282258D01*
X508900Y280222D01*
Y278018D01*
X509743Y275982D01*
X510831Y274895D01*
Y261956D01*
X511105Y260575D01*
X511888Y259404D01*
X517377Y253915D01*
X516649Y252826D01*
X516383Y251488D01*
X516552Y250640D01*
X516120Y249974D01*
X515646Y249500D01*
X514980Y249068D01*
X514132Y249237D01*
X512997Y250315D01*
X512723Y251696D01*
X511940Y252867D01*
X506990Y257817D01*
X505819Y258599D01*
X504438Y258874D01*
X503057Y258599D01*
X501886Y257817D01*
X497643Y253574D01*
X496861Y252403D01*
X496586Y251022D01*
X496861Y249641D01*
X497643Y248470D01*
X502593Y243520D01*
X503764Y242738D01*
X504112Y242668D01*
X504819Y242420D01*
X505331Y240811D01*
X504276Y239020D01*
X504069Y238974D01*
X503250Y238811D01*
X502116Y238053D01*
X497087Y233024D01*
X496329Y231890D01*
X496166Y231071D01*
X496058Y230584D01*
X494365Y229571D01*
X492749Y230526D01*
X492606Y231055D01*
X492422Y231977D01*
X491615Y233184D01*
X486901Y237899D01*
X485693Y238706D01*
X484268Y238989D01*
X483310Y238799D01*
X482569Y239290D01*
X482230Y239629D01*
X481739Y240370D01*
X481929Y241328D01*
X481646Y242753D01*
X480839Y243960D01*
X476124Y248675D01*
X474917Y249482D01*
X473492Y249765D01*
X472067Y249482D01*
X470860Y248675D01*
X467389Y245204D01*
X464709Y247883D01*
Y251504D01*
X465643Y252438D01*
X466425Y253609D01*
X466700Y254990D01*
Y255845D01*
X467787Y256932D01*
X468631Y258968D01*
Y261172D01*
X467787Y263208D01*
X466229Y264767D01*
X464193Y265610D01*
X461989D01*
X459953Y264767D01*
X459100Y263914D01*
X458248Y264767D01*
X456211Y265610D01*
X454007D01*
X451971Y264767D01*
X450413Y263208D01*
X449569Y261172D01*
Y258968D01*
X450413Y256932D01*
X451500Y255845D01*
Y254990D01*
X451775Y253609D01*
X452557Y252438D01*
X453491Y251504D01*
Y244732D01*
X453765Y243350D01*
X454548Y242179D01*
X459456Y237271D01*
X455985Y233800D01*
X455178Y232593D01*
X454894Y231168D01*
X455178Y229743D01*
X455985Y228536D01*
X460700Y223821D01*
X461907Y223014D01*
X463332Y222731D01*
X464290Y222921D01*
X465031Y222430D01*
X465370Y222091D01*
X465861Y221350D01*
X465671Y220392D01*
X465954Y218967D01*
X466761Y217759D01*
X471476Y213045D01*
X472683Y212238D01*
X473605Y212054D01*
X474134Y211911D01*
X475089Y210296D01*
X475149Y210122D01*
X475393Y208894D01*
X476151Y207760D01*
X477798Y206112D01*
X477033Y204265D01*
X426810D01*
X425323Y203969D01*
X424063Y203127D01*
X420328Y199392D01*
X417994Y199671D01*
X417154Y200233D01*
X416163Y200430D01*
X391250Y200430D01*
X390259Y200233D01*
X389419Y199671D01*
X341867Y152120D01*
X62320D01*
X57240Y157200D01*
Y395960D01*
X62320Y401040D01*
X486500D01*
X491580Y406120D01*
Y462000D01*
X496660Y467080D01*
X527140D01*
X529680Y464540D01*
Y444220D01*
X534760Y439140D01*
X542380D01*
X547460Y444220D01*
Y462000D01*
X552540Y467080D01*
X588100D01*
X590640Y464540D01*
D02*
G37*
G36*
X680460Y433060D02*
X674460D01*
Y435060D01*
X680460D01*
Y433060D01*
D02*
G37*
G36*
X664300D02*
X658300D01*
Y435060D01*
X664300D01*
Y433060D01*
D02*
G37*
G36*
X441700D02*
X435700D01*
Y435060D01*
X441700D01*
Y433060D01*
D02*
G37*
G36*
X425540D02*
X419540D01*
Y435060D01*
X425540D01*
Y433060D01*
D02*
G37*
G36*
X666840Y495020D02*
X666840Y440561D01*
X665402Y439600D01*
X663198D01*
X661162Y438757D01*
X660055Y437650D01*
X658300D01*
X657309Y437453D01*
X656469Y436891D01*
X655907Y436051D01*
X655710Y435060D01*
Y433060D01*
X655907Y432069D01*
X656469Y431229D01*
X657309Y430667D01*
X658300Y430470D01*
X660055D01*
X661162Y429363D01*
X663198Y428520D01*
X664840D01*
X666840Y427163D01*
Y411200D01*
X661760Y406120D01*
X618580Y406120D01*
X613500Y411200D01*
Y495020D01*
X618580Y500100D01*
X661760D01*
X666840Y495020D01*
D02*
G37*
G36*
X428080Y688060D02*
Y440561D01*
X426642Y439600D01*
X424438D01*
X422402Y438757D01*
X421295Y437650D01*
X419540D01*
X418549Y437453D01*
X417709Y436891D01*
X417147Y436051D01*
X416950Y435060D01*
Y433060D01*
X417147Y432069D01*
X417709Y431229D01*
X418549Y430667D01*
X419540Y430470D01*
X421295D01*
X422402Y429363D01*
X424438Y428520D01*
X426642D01*
X428080Y427559D01*
Y411200D01*
X423000Y406120D01*
X62320Y406120D01*
X57240Y411200D01*
Y594079D01*
X63161Y600000D01*
X103277D01*
X109775Y600855D01*
X116107Y602552D01*
X122162Y605060D01*
X127838Y608337D01*
X133038Y612327D01*
X137673Y616962D01*
X141663Y622162D01*
X144940Y627838D01*
X147448Y633894D01*
X149144Y640225D01*
X150000Y646723D01*
Y650000D01*
Y686840D01*
X156300Y693140D01*
X423000D01*
X428080Y688060D01*
D02*
G37*
G36*
X950000Y686841D02*
Y650000D01*
Y646723D01*
X950855Y640225D01*
X952552Y633894D01*
X955060Y627838D01*
X958337Y622162D01*
X962327Y616962D01*
X966962Y612327D01*
X972162Y608337D01*
X977838Y605060D01*
X983894Y602552D01*
X990225Y600855D01*
X996723Y600000D01*
X1036840D01*
X1042760Y594080D01*
X1042760Y411200D01*
X1037680Y406120D01*
X677000Y406120D01*
X671920Y411200D01*
Y427559D01*
X673358Y428520D01*
X675562D01*
X677598Y429363D01*
X678705Y430470D01*
X680460D01*
X681451Y430667D01*
X682291Y431229D01*
X682853Y432069D01*
X683050Y433060D01*
Y435060D01*
X682853Y436051D01*
X682291Y436891D01*
X681451Y437453D01*
X680460Y437650D01*
X678705D01*
X677598Y438757D01*
X675562Y439600D01*
X673920D01*
X671920Y440957D01*
X671920Y502745D01*
X671920Y688060D01*
X677000Y693140D01*
X943701Y693140D01*
X950000Y686841D01*
D02*
G37*
G36*
X486500Y495020D02*
Y411200D01*
X481420Y406120D01*
X438240Y406120D01*
X433160Y411200D01*
Y427559D01*
X434598Y428520D01*
X436802D01*
X438838Y429363D01*
X439945Y430470D01*
X441700D01*
X442691Y430667D01*
X443531Y431229D01*
X444093Y432069D01*
X444290Y433060D01*
Y435060D01*
X444093Y436051D01*
X443531Y436891D01*
X442691Y437453D01*
X441700Y437650D01*
X439945D01*
X438838Y438757D01*
X436802Y439600D01*
X434598D01*
X433160Y440561D01*
Y495020D01*
X438240Y500100D01*
X481420D01*
X486500Y495020D01*
D02*
G37*
G36*
X566510Y271500D02*
Y265450D01*
X566320Y264741D01*
Y263019D01*
X566441Y262566D01*
X562688Y258812D01*
X561905Y257641D01*
X561631Y256260D01*
Y248865D01*
X556973Y244207D01*
X556190Y243036D01*
X555916Y241655D01*
Y233162D01*
X554215Y231462D01*
X554132Y231390D01*
X552831Y230534D01*
X551441Y231462D01*
X551283Y231620D01*
Y232381D01*
X551270Y232449D01*
Y271500D01*
X552540Y272770D01*
X565240D01*
X566510Y271500D01*
D02*
G37*
G36*
X595720Y229590D02*
Y217525D01*
X594450Y216255D01*
X590005D01*
X584290Y221970D01*
X573495Y221970D01*
Y223562D01*
X581428Y231495D01*
X593815D01*
X595720Y229590D01*
D02*
G37*
G36*
X526505Y223562D02*
Y221970D01*
X515710Y221970D01*
X509995Y216255D01*
X505550D01*
X504280Y217525D01*
Y229590D01*
X506185Y231495D01*
X518572D01*
X526505Y223562D01*
D02*
G37*
G36*
X549963Y228543D02*
X550276Y228075D01*
X551447Y227293D01*
X552177Y227148D01*
X552322Y226418D01*
X553105Y225247D01*
X554276Y224464D01*
X555005Y224319D01*
X555151Y223589D01*
X555933Y222418D01*
X557104Y221636D01*
X557834Y221491D01*
X557979Y220761D01*
X558761Y219590D01*
X559933Y218808D01*
X560662Y218662D01*
X560808Y217932D01*
X561590Y216761D01*
X562761Y215979D01*
X563491Y215834D01*
X563636Y215104D01*
X564418Y213933D01*
X565589Y213151D01*
X566319Y213006D01*
X566464Y212276D01*
X567247Y211105D01*
X568418Y210322D01*
X569148Y210177D01*
X569293Y209447D01*
X570075Y207724D01*
X569293Y206553D01*
X569148Y205823D01*
X568418Y205678D01*
X567247Y204895D01*
X565487Y205796D01*
X564496Y205993D01*
X563505Y205796D01*
X562664Y205235D01*
X561250Y203821D01*
X560689Y202981D01*
X560492Y201990D01*
X560689Y200998D01*
X561590Y199238D01*
X560807Y198067D01*
X560662Y197338D01*
X559933Y197192D01*
X558761Y196410D01*
X557979Y195239D01*
X557834Y194509D01*
X557104Y194364D01*
X555933Y193582D01*
X555151Y192411D01*
X555005Y191681D01*
X554276Y191536D01*
X553105Y190753D01*
X552322Y189582D01*
X552177Y188852D01*
X551447Y188707D01*
X550276Y187925D01*
X549724D01*
X548553Y188707D01*
X547823Y188852D01*
X547678Y189582D01*
X546895Y190753D01*
X545724Y191536D01*
X544995Y191681D01*
X544849Y192411D01*
X544067Y193582D01*
X542896Y194364D01*
X542166Y194509D01*
X542021Y195239D01*
X541239Y196410D01*
X540067Y197192D01*
X539338Y197338D01*
X539192Y198067D01*
X538410Y199238D01*
X537239Y200021D01*
X536509Y200166D01*
X536364Y200896D01*
X535582Y202067D01*
X534411Y202849D01*
X533681Y202994D01*
X533536Y203724D01*
X532753Y204895D01*
X531582Y205678D01*
X530852Y205823D01*
X530707Y206553D01*
X530050Y208000D01*
X530707Y209447D01*
X530852Y210177D01*
X531582Y210322D01*
X532753Y211105D01*
X533536Y212276D01*
X533681Y213006D01*
X534411Y213151D01*
X535582Y213933D01*
X536364Y215104D01*
X536509Y215834D01*
X537239Y215979D01*
X538410Y216761D01*
X539193Y217932D01*
X539338Y218662D01*
X540068Y218808D01*
X541239Y219590D01*
X542021Y220761D01*
X542166Y221491D01*
X542896Y221636D01*
X544067Y222418D01*
X544849Y223589D01*
X544995Y224319D01*
X545724Y224464D01*
X546895Y225247D01*
X547678Y226418D01*
X547945Y227764D01*
X548190Y227920D01*
X549333Y228506D01*
X549825Y228636D01*
X549963Y228543D01*
D02*
G37*
G36*
X568738Y199161D02*
X567324Y197747D01*
X563082Y201990D01*
X564496Y203404D01*
X568738Y199161D01*
D02*
G37*
G36*
X440613Y190387D02*
X439785Y188386D01*
X437446D01*
X436022Y188103D01*
X434814Y187296D01*
X434007Y186088D01*
X433724Y184664D01*
Y177996D01*
X434007Y176572D01*
X434814Y175364D01*
X436022Y174557D01*
X437446Y174273D01*
X444114D01*
X445538Y174557D01*
X446746Y175364D01*
X447289Y176176D01*
X448160Y176352D01*
X448640D01*
X449511Y176176D01*
X450054Y175364D01*
X450866Y174821D01*
X451042Y173949D01*
X451042Y173471D01*
X450866Y172599D01*
X450054Y172056D01*
X449247Y170848D01*
X448963Y169424D01*
Y164138D01*
X441855Y157029D01*
X439385D01*
X437612Y156676D01*
X436108Y155672D01*
X435104Y154168D01*
X434751Y152395D01*
Y146685D01*
X435104Y144912D01*
X436108Y143408D01*
X437612Y142404D01*
X439385Y142051D01*
X443395D01*
X445168Y142404D01*
X446672Y143408D01*
X447676Y144912D01*
X449789Y145280D01*
X450054Y144884D01*
X450866Y144341D01*
X451042Y143470D01*
Y142990D01*
X450866Y142119D01*
X450054Y141576D01*
X449247Y140368D01*
X449073Y139495D01*
X435660D01*
X434361Y139236D01*
X433895Y139329D01*
X429885D01*
X429419Y139236D01*
X428120Y139495D01*
X414707D01*
X414533Y140368D01*
X413726Y141576D01*
X412914Y142119D01*
X412738Y142990D01*
Y143470D01*
X412914Y144341D01*
X413726Y144884D01*
X414533Y146092D01*
X414817Y147516D01*
Y154184D01*
X414533Y155608D01*
X413726Y156816D01*
X412914Y157359D01*
X412738Y158231D01*
Y158709D01*
X412914Y159581D01*
X413726Y160124D01*
X414236Y160887D01*
X415187Y161036D01*
X415820Y161012D01*
X416440Y160859D01*
X416972Y160062D01*
X418106Y159304D01*
X419444Y159038D01*
X426556D01*
X427894Y159304D01*
X429028Y160062D01*
X429786Y161196D01*
X430052Y162534D01*
Y169646D01*
X429786Y170984D01*
X429028Y172118D01*
X427894Y172876D01*
X426556Y173142D01*
X419444D01*
X418106Y172876D01*
X416972Y172118D01*
X416439Y171321D01*
X415820Y171168D01*
X415187Y171144D01*
X414236Y171293D01*
X413726Y172056D01*
X412914Y172599D01*
X412738Y173470D01*
Y173950D01*
X412914Y174821D01*
X413726Y175364D01*
X414533Y176572D01*
X414817Y177996D01*
Y182893D01*
X428419Y196495D01*
X434505D01*
X440613Y190387D01*
D02*
G37*
G36*
X416163Y197840D02*
X416928Y195992D01*
X409323Y188386D01*
X404426D01*
X403002Y188103D01*
X401794Y187296D01*
X400987Y186088D01*
X400704Y184664D01*
Y179767D01*
X346461Y125525D01*
X235040D01*
X233553Y125229D01*
X232293Y124387D01*
X198816Y90910D01*
X198565Y91055D01*
X195821Y91790D01*
X192980D01*
X190235Y91055D01*
X187775Y89634D01*
X185766Y87625D01*
X184345Y85165D01*
X183610Y82421D01*
Y79580D01*
X184345Y76835D01*
X185766Y74375D01*
X187775Y72366D01*
X190235Y70945D01*
X192980Y70210D01*
X195821D01*
X198565Y70945D01*
X201025Y72366D01*
X203034Y74375D01*
X204455Y76835D01*
X205190Y79580D01*
Y82421D01*
X204455Y85165D01*
X204310Y85416D01*
X236649Y117755D01*
X348070D01*
X349557Y118051D01*
X350817Y118893D01*
X398856Y166932D01*
X400704Y166166D01*
Y162756D01*
X400987Y161332D01*
X401794Y160124D01*
X402606Y159581D01*
X402782Y158709D01*
Y158231D01*
X402606Y157359D01*
X401794Y156816D01*
X400987Y155608D01*
X400704Y154184D01*
Y147516D01*
X400987Y146092D01*
X401794Y144884D01*
X402606Y144341D01*
X402782Y143470D01*
Y142990D01*
X402606Y142119D01*
X401794Y141576D01*
X400987Y140368D01*
X400704Y138944D01*
Y132276D01*
X400987Y130852D01*
X401794Y129644D01*
X403002Y128837D01*
X404426Y128554D01*
X411094D01*
X412518Y128837D01*
X413726Y129644D01*
X414533Y130852D01*
X414707Y131726D01*
X425251D01*
Y128985D01*
X425604Y127212D01*
X426608Y125708D01*
X428112Y124704D01*
X429885Y124351D01*
X433895D01*
X435668Y124704D01*
X437172Y125708D01*
X438176Y127212D01*
X438529Y128985D01*
Y131725D01*
X449073D01*
X449247Y130852D01*
X450054Y129644D01*
X451262Y128837D01*
X452686Y128553D01*
X459354D01*
X460261Y128734D01*
X461357Y127001D01*
X434205Y99849D01*
X311240D01*
X309859Y99575D01*
X308688Y98792D01*
X300663Y90767D01*
X300165Y91055D01*
X297421Y91790D01*
X294580D01*
X291835Y91055D01*
X289375Y89634D01*
X287366Y87625D01*
X285945Y85165D01*
X285210Y82421D01*
Y79580D01*
X285945Y76835D01*
X287366Y74375D01*
X289375Y72366D01*
X291835Y70945D01*
X294580Y70210D01*
X297421D01*
X300165Y70945D01*
X302625Y72366D01*
X304634Y74375D01*
X306055Y76835D01*
X306790Y79580D01*
Y82421D01*
X306055Y85165D01*
X305767Y85663D01*
X312735Y92631D01*
X315965D01*
X316501Y90631D01*
X314775Y89634D01*
X312766Y87625D01*
X311345Y85165D01*
X310610Y82421D01*
Y82270D01*
X321400D01*
X332190D01*
Y82421D01*
X331455Y85165D01*
X330034Y87625D01*
X328025Y89634D01*
X326299Y90631D01*
X326835Y92631D01*
X366765D01*
X367301Y90631D01*
X365575Y89634D01*
X363566Y87625D01*
X362145Y85165D01*
X361410Y82421D01*
Y82270D01*
X372200D01*
X382990D01*
Y82421D01*
X382255Y85165D01*
X380834Y87625D01*
X378825Y89634D01*
X377099Y90631D01*
X377635Y92631D01*
X392165D01*
X392701Y90631D01*
X390975Y89634D01*
X388966Y87625D01*
X387545Y85165D01*
X386810Y82421D01*
Y82270D01*
X397600D01*
Y81000D01*
D01*
Y82270D01*
X408390D01*
Y82421D01*
X407655Y85165D01*
X406234Y87625D01*
X404225Y89634D01*
X402499Y90631D01*
X403035Y92631D01*
X435700D01*
X437081Y92905D01*
X438252Y93688D01*
X468732Y124168D01*
X469515Y125339D01*
X469789Y126720D01*
Y143005D01*
X489825Y163040D01*
X491781Y162168D01*
Y129485D01*
X453063Y90767D01*
X452565Y91055D01*
X449821Y91790D01*
X446979D01*
X444235Y91055D01*
X441775Y89634D01*
X439766Y87625D01*
X438345Y85165D01*
X437610Y82421D01*
Y79580D01*
X438345Y76835D01*
X439766Y74375D01*
X441775Y72366D01*
X444235Y70945D01*
X446979Y70210D01*
X449821D01*
X452565Y70945D01*
X455025Y72366D01*
X457034Y74375D01*
X458455Y76835D01*
X459190Y79580D01*
Y82421D01*
X458455Y85165D01*
X458167Y85663D01*
X496131Y123626D01*
X498131Y122798D01*
Y103860D01*
X498405Y102479D01*
X499188Y101308D01*
X514833Y85663D01*
X514545Y85165D01*
X513810Y82421D01*
Y79580D01*
X514545Y76835D01*
X515966Y74375D01*
X517975Y72366D01*
X520435Y70945D01*
X523180Y70210D01*
X526021D01*
X528765Y70945D01*
X531225Y72366D01*
X533234Y74375D01*
X534655Y76835D01*
X535390Y79580D01*
Y82421D01*
X534655Y85165D01*
X533234Y87625D01*
X531225Y89634D01*
X528765Y91055D01*
X526021Y91790D01*
X523180D01*
X520435Y91055D01*
X519937Y90767D01*
X505349Y105355D01*
Y135713D01*
X507197Y136479D01*
X543638Y100038D01*
X544809Y99255D01*
X546190Y98981D01*
X633595D01*
X654128Y78448D01*
X655299Y77665D01*
X656680Y77391D01*
X656680Y77391D01*
X666796D01*
X666945Y76835D01*
X668366Y74375D01*
X670375Y72366D01*
X672835Y70945D01*
X675580Y70210D01*
X678420D01*
X681165Y70945D01*
X681663Y71233D01*
X693498Y59398D01*
X694669Y58615D01*
X696050Y58341D01*
X810350D01*
X811731Y58615D01*
X812902Y59398D01*
X824737Y71233D01*
X825235Y70945D01*
X827980Y70210D01*
X830820D01*
X833565Y70945D01*
X836025Y72366D01*
X838034Y74375D01*
X839455Y76835D01*
X840190Y79580D01*
Y82421D01*
X839455Y85165D01*
X838034Y87625D01*
X836025Y89634D01*
X833565Y91055D01*
X830820Y91790D01*
X827980D01*
X825235Y91055D01*
X822775Y89634D01*
X820766Y87625D01*
X819345Y85165D01*
X818610Y82421D01*
Y79580D01*
X819345Y76835D01*
X819633Y76337D01*
X808855Y65559D01*
X697545D01*
X686767Y76337D01*
X687055Y76835D01*
X687790Y79580D01*
Y82421D01*
X687055Y85165D01*
X685634Y87625D01*
X683625Y89634D01*
X681165Y91055D01*
X678420Y91790D01*
X675580D01*
X672835Y91055D01*
X670375Y89634D01*
X668366Y87625D01*
X666945Y85165D01*
X666796Y84609D01*
X658175D01*
X637642Y105142D01*
X636471Y105925D01*
X635090Y106199D01*
X547685D01*
X510429Y143455D01*
Y154840D01*
X517172Y161582D01*
X519091Y161203D01*
X519409Y160991D01*
X520101Y159956D01*
X524816Y155241D01*
X526023Y154434D01*
X527448Y154151D01*
X527475Y154156D01*
X529176Y152455D01*
X529171Y152428D01*
X529454Y151003D01*
X530261Y149796D01*
X534976Y145081D01*
X536183Y144274D01*
X537608Y143991D01*
X539033Y144274D01*
X540241Y145081D01*
X544391Y149231D01*
X546391Y148433D01*
Y145770D01*
X546665Y144389D01*
X547448Y143218D01*
X575388Y115278D01*
X576559Y114495D01*
X577940Y114221D01*
X641215D01*
X654128Y101308D01*
X655299Y100525D01*
X656680Y100251D01*
X713830D01*
X715211Y100525D01*
X716458Y98953D01*
X707829Y90325D01*
X706565Y91055D01*
X703820Y91790D01*
X700980D01*
X698235Y91055D01*
X695775Y89634D01*
X693766Y87625D01*
X692345Y85165D01*
X691610Y82421D01*
Y79580D01*
X692345Y76835D01*
X693766Y74375D01*
X695775Y72366D01*
X698235Y70945D01*
X700980Y70210D01*
X703820D01*
X706565Y70945D01*
X709025Y72366D01*
X711034Y74375D01*
X712455Y76835D01*
X713190Y79580D01*
Y82421D01*
X712709Y84217D01*
X743076Y114584D01*
X748914D01*
X750338Y114867D01*
X751546Y115674D01*
X752089Y116486D01*
X752960Y116662D01*
X753440D01*
X754311Y116486D01*
X754854Y115674D01*
X755617Y115164D01*
X755766Y114213D01*
X755742Y113580D01*
X755589Y112961D01*
X754792Y112428D01*
X754034Y111294D01*
X753768Y109956D01*
Y102844D01*
X754034Y101506D01*
X754792Y100372D01*
X755926Y99614D01*
X757211Y99358D01*
Y98780D01*
X757485Y97399D01*
X758268Y96228D01*
X768833Y85663D01*
X768545Y85165D01*
X767810Y82421D01*
Y79580D01*
X768545Y76835D01*
X769966Y74375D01*
X771975Y72366D01*
X774435Y70945D01*
X777179Y70210D01*
X780021D01*
X782765Y70945D01*
X785225Y72366D01*
X787234Y74375D01*
X788655Y76835D01*
X789390Y79580D01*
Y82421D01*
X788655Y85165D01*
X787234Y87625D01*
X785225Y89634D01*
X782765Y91055D01*
X780021Y91790D01*
X777179D01*
X774435Y91055D01*
X773937Y90767D01*
X766765Y97939D01*
X766848Y100372D01*
X767606Y101506D01*
X767872Y102844D01*
Y109956D01*
X767606Y111294D01*
X766848Y112428D01*
X766051Y112961D01*
X765898Y113580D01*
X765874Y114213D01*
X766023Y115164D01*
X766786Y115674D01*
X767593Y116882D01*
X767876Y118306D01*
Y124974D01*
X767593Y126398D01*
X766786Y127606D01*
X765578Y128413D01*
X764154Y128696D01*
X758868D01*
X757411Y130153D01*
X758177Y132001D01*
X897755D01*
X899211Y130544D01*
X898446Y128696D01*
X894646D01*
X893222Y128413D01*
X892014Y127606D01*
X891207Y126398D01*
X890923Y124974D01*
Y121279D01*
X860064Y90420D01*
X858965Y91055D01*
X856220Y91790D01*
X853380D01*
X850635Y91055D01*
X848175Y89634D01*
X846166Y87625D01*
X844745Y85165D01*
X844010Y82421D01*
Y79580D01*
X844745Y76835D01*
X846166Y74375D01*
X848175Y72366D01*
X850635Y70945D01*
X853380Y70210D01*
X856220D01*
X858965Y70945D01*
X861425Y72366D01*
X863434Y74375D01*
X864855Y76835D01*
X865590Y79580D01*
Y82421D01*
X865054Y84422D01*
X895216Y114584D01*
X901314D01*
X902738Y114867D01*
X903946Y115674D01*
X904489Y116486D01*
X905360Y116662D01*
X905840D01*
X906711Y116486D01*
X907254Y115674D01*
X908017Y115164D01*
X908166Y114213D01*
X908142Y113580D01*
X907989Y112961D01*
X907192Y112428D01*
X906434Y111294D01*
X906168Y109956D01*
Y102844D01*
X906434Y101506D01*
X907192Y100372D01*
X908326Y99614D01*
X909611Y99358D01*
Y98780D01*
X909885Y97399D01*
X910668Y96228D01*
X921233Y85663D01*
X920945Y85165D01*
X920210Y82421D01*
Y79580D01*
X920945Y76835D01*
X922366Y74375D01*
X924375Y72366D01*
X926835Y70945D01*
X929579Y70210D01*
X932421D01*
X935165Y70945D01*
X937625Y72366D01*
X939634Y74375D01*
X941055Y76835D01*
X941790Y79580D01*
Y82421D01*
X941055Y85165D01*
X939634Y87625D01*
X937625Y89634D01*
X935165Y91055D01*
X932421Y91790D01*
X929579D01*
X926835Y91055D01*
X926337Y90767D01*
X919165Y97939D01*
X919248Y100372D01*
X920006Y101506D01*
X920272Y102844D01*
Y109956D01*
X920006Y111294D01*
X919248Y112428D01*
X918451Y112961D01*
X918298Y113580D01*
X918274Y114213D01*
X918423Y115164D01*
X919186Y115674D01*
X919993Y116882D01*
X920276Y118306D01*
Y124974D01*
X919993Y126398D01*
X919186Y127606D01*
X917978Y128413D01*
X916554Y128696D01*
X911268D01*
X901802Y138162D01*
X900631Y138945D01*
X899250Y139219D01*
X736690D01*
X735309Y138945D01*
X734138Y138162D01*
X708525Y112549D01*
X660715D01*
X647802Y125462D01*
X646631Y126245D01*
X645250Y126519D01*
X581975D01*
X558689Y149805D01*
Y162055D01*
X570967Y174333D01*
X571750Y175504D01*
X572024Y176885D01*
Y186756D01*
X571750Y188138D01*
X570967Y189309D01*
X568766Y191510D01*
X568816Y192013D01*
X569598Y193184D01*
X569835Y194374D01*
X570532Y194808D01*
X571773Y195265D01*
X582259Y184779D01*
Y181652D01*
X578367Y177760D01*
X577609Y176626D01*
X577343Y175288D01*
X577609Y173950D01*
X578367Y172816D01*
X583396Y167787D01*
X584530Y167029D01*
X585284Y166879D01*
X586974Y165128D01*
X587258Y163703D01*
X588065Y162496D01*
X592780Y157781D01*
X593987Y156974D01*
X595412Y156691D01*
X595564Y156721D01*
X597373Y155329D01*
X597440Y154055D01*
X596037Y152715D01*
X596028Y152717D01*
X594690Y152451D01*
X593556Y151693D01*
X588527Y146664D01*
X587769Y145530D01*
X587503Y144192D01*
X587769Y142854D01*
X588527Y141720D01*
X593556Y136691D01*
X594690Y135933D01*
X596028Y135667D01*
X597366Y135933D01*
X598500Y136691D01*
X603529Y141720D01*
X604287Y142854D01*
X604553Y144192D01*
X604552Y144201D01*
X606188Y145914D01*
X607613Y146198D01*
X608821Y147005D01*
X613535Y151719D01*
X614342Y152927D01*
X614626Y154352D01*
X614342Y155777D01*
X613535Y156984D01*
X608821Y161699D01*
X607613Y162506D01*
X606188Y162789D01*
X605230Y162599D01*
X604489Y163090D01*
X604151Y163429D01*
X603659Y164170D01*
X603849Y165128D01*
X603566Y166553D01*
X602759Y167760D01*
X598044Y172475D01*
X596837Y173282D01*
X595915Y173465D01*
X595390Y173608D01*
X594463Y175288D01*
X595391Y176968D01*
X595915Y177111D01*
X596837Y177294D01*
X598044Y178101D01*
X601782Y181839D01*
X606617D01*
X623469Y164987D01*
X622818Y164013D01*
X622534Y162588D01*
X622818Y161163D01*
X623625Y159956D01*
X628340Y155241D01*
X629547Y154434D01*
X630972Y154151D01*
X631930Y154341D01*
X632671Y153849D01*
X633010Y153511D01*
X633501Y152770D01*
X633311Y151812D01*
X633594Y150387D01*
X634401Y149179D01*
X639116Y144465D01*
X640323Y143658D01*
X641748Y143374D01*
X643173Y143658D01*
X644147Y144309D01*
X659208Y129248D01*
X660379Y128465D01*
X661760Y128191D01*
X666796D01*
X666945Y127635D01*
X668366Y125175D01*
X670375Y123166D01*
X672835Y121745D01*
X675580Y121010D01*
X678420D01*
X681165Y121745D01*
X683625Y123166D01*
X685634Y125175D01*
X687055Y127635D01*
X687790Y130379D01*
Y133221D01*
X687055Y135965D01*
X685634Y138425D01*
X683625Y140434D01*
X681165Y141855D01*
X678420Y142590D01*
X675580D01*
X672835Y141855D01*
X670375Y140434D01*
X668366Y138425D01*
X666945Y135965D01*
X666796Y135409D01*
X663255D01*
X649251Y149413D01*
X649902Y150387D01*
X650186Y151812D01*
X649902Y153237D01*
X649095Y154444D01*
X644381Y159159D01*
X643173Y159966D01*
X641748Y160249D01*
X640790Y160059D01*
X640049Y160550D01*
X639711Y160889D01*
X639219Y161630D01*
X639409Y162588D01*
X639126Y164013D01*
X638319Y165220D01*
X633604Y169935D01*
X632397Y170742D01*
X630972Y171026D01*
X629547Y170742D01*
X628573Y170091D01*
X623389Y175275D01*
X624664Y176829D01*
X624819Y176725D01*
X626200Y176451D01*
X626818D01*
X627047Y175302D01*
X627854Y174094D01*
X629062Y173287D01*
X630486Y173004D01*
X635772D01*
X641428Y167348D01*
X642599Y166565D01*
X643980Y166291D01*
X664300D01*
X665681Y166565D01*
X666852Y167348D01*
X672337Y172833D01*
X672835Y172545D01*
X675580Y171810D01*
X678420D01*
X681165Y172545D01*
X683625Y173966D01*
X685634Y175975D01*
X687055Y178435D01*
X687790Y181180D01*
Y184021D01*
X687055Y186765D01*
X685634Y189225D01*
X683625Y191234D01*
X681165Y192655D01*
X678420Y193390D01*
X675580D01*
X672835Y192655D01*
X670375Y191234D01*
X668366Y189225D01*
X666945Y186765D01*
X666210Y184021D01*
Y181180D01*
X666945Y178435D01*
X667233Y177937D01*
X662805Y173509D01*
X657041D01*
X655956Y175119D01*
X655874Y175509D01*
X656116Y176726D01*
Y183394D01*
X655833Y184818D01*
X655026Y186026D01*
X654263Y186536D01*
X654114Y187487D01*
X654138Y188120D01*
X654291Y188739D01*
X655088Y189272D01*
X655846Y190406D01*
X656112Y191744D01*
Y197840D01*
X708750D01*
X759550Y147040D01*
X943700D01*
X948780Y141960D01*
Y60680D01*
X943700Y55600D01*
X156300D01*
X151220Y60680D01*
Y130672D01*
X152966Y132364D01*
X159634D01*
X161059Y132647D01*
X162266Y133454D01*
X162809Y134266D01*
X163680Y134442D01*
X164160D01*
X165031Y134266D01*
X165574Y133454D01*
X166386Y132911D01*
X166562Y132039D01*
X166562Y131561D01*
X166386Y130689D01*
X165574Y130146D01*
X164767Y128938D01*
X164483Y127514D01*
Y120846D01*
X164767Y119422D01*
X165574Y118214D01*
X166782Y117407D01*
X167655Y117233D01*
Y91790D01*
X167579D01*
X164835Y91055D01*
X162375Y89634D01*
X160366Y87625D01*
X158945Y85165D01*
X158210Y82421D01*
Y79580D01*
X158945Y76835D01*
X160366Y74375D01*
X162375Y72366D01*
X164835Y70945D01*
X167579Y70210D01*
X170420D01*
X173165Y70945D01*
X173416Y71090D01*
X185303Y59203D01*
X186563Y58361D01*
X188050Y58065D01*
X251550D01*
X253037Y58361D01*
X254297Y59203D01*
X266184Y71090D01*
X266435Y70945D01*
X269179Y70210D01*
X272020D01*
X274765Y70945D01*
X275016Y71090D01*
X286903Y59203D01*
X288163Y58361D01*
X289650Y58065D01*
X480150D01*
X481637Y58361D01*
X482897Y59203D01*
X494784Y71090D01*
X495035Y70945D01*
X497780Y70210D01*
X500620D01*
X503365Y70945D01*
X505825Y72366D01*
X507834Y74375D01*
X509255Y76835D01*
X509990Y79580D01*
Y82421D01*
X509255Y85165D01*
X507834Y87625D01*
X505825Y89634D01*
X503365Y91055D01*
X500620Y91790D01*
X497780D01*
X495035Y91055D01*
X492575Y89634D01*
X490566Y87625D01*
X489145Y85165D01*
X488410Y82421D01*
Y79580D01*
X489145Y76835D01*
X489290Y76584D01*
X478541Y65835D01*
X291259D01*
X280510Y76584D01*
X280655Y76835D01*
X281390Y79580D01*
Y82421D01*
X280655Y85165D01*
X279234Y87625D01*
X277225Y89634D01*
X274765Y91055D01*
X272020Y91790D01*
X269179D01*
X266435Y91055D01*
X263975Y89634D01*
X261966Y87625D01*
X260545Y85165D01*
X259810Y82421D01*
Y79580D01*
X260545Y76835D01*
X260690Y76584D01*
X249941Y65835D01*
X189659D01*
X178910Y76584D01*
X179055Y76835D01*
X179790Y79580D01*
Y82421D01*
X179055Y85165D01*
X177634Y87625D01*
X175625Y89634D01*
X175424Y89750D01*
Y117233D01*
X176298Y117407D01*
X177506Y118214D01*
X178313Y119422D01*
X178596Y120846D01*
Y127514D01*
X178313Y128938D01*
X177506Y130146D01*
X176694Y130689D01*
X176518Y131561D01*
X176518Y132039D01*
X176694Y132911D01*
X177506Y133454D01*
X178313Y134662D01*
X178596Y136086D01*
Y142754D01*
X178313Y144178D01*
X177738Y145040D01*
X178131Y146312D01*
X178623Y147040D01*
X340450D01*
X391250Y197840D01*
X416163Y197840D01*
D02*
G37*
%LPC*%
G36*
X646671Y612490D02*
X646520D01*
Y602970D01*
X656040D01*
Y603120D01*
X655305Y605865D01*
X653884Y608325D01*
X651875Y610334D01*
X649415Y611755D01*
X646671Y612490D01*
D02*
G37*
G36*
X643980D02*
X643829D01*
X641085Y611755D01*
X638625Y610334D01*
X636616Y608325D01*
X635195Y605865D01*
X634460Y603120D01*
Y602970D01*
X643980D01*
Y612490D01*
D02*
G37*
G36*
X656040Y600430D02*
X646520D01*
Y590910D01*
X646671D01*
X649415Y591645D01*
X651875Y593066D01*
X653884Y595075D01*
X655305Y597535D01*
X656040Y600280D01*
Y600430D01*
D02*
G37*
G36*
X643980D02*
X634460D01*
Y600280D01*
X635195Y597535D01*
X636616Y595075D01*
X638625Y593066D01*
X641085Y591645D01*
X643829Y590910D01*
X643980D01*
Y600430D01*
D02*
G37*
G36*
X623251Y534580D02*
X621529D01*
X619866Y534134D01*
X618374Y533273D01*
X617157Y532056D01*
X616296Y530564D01*
X615850Y528901D01*
Y527179D01*
X616232Y525755D01*
Y515775D01*
X616266Y515603D01*
Y511775D01*
X616599Y510101D01*
X617547Y508682D01*
X618966Y507734D01*
X620640Y507401D01*
X624140D01*
X625814Y507734D01*
X627233Y508682D01*
X628181Y510101D01*
X628514Y511775D01*
Y515603D01*
X628548Y515775D01*
Y525755D01*
X628930Y527179D01*
Y528901D01*
X628484Y530564D01*
X627623Y532056D01*
X626406Y533273D01*
X624914Y534134D01*
X623251Y534580D01*
D02*
G37*
G36*
X456171Y612490D02*
X456020D01*
Y602970D01*
X465540D01*
Y603120D01*
X464805Y605865D01*
X463384Y608325D01*
X461375Y610334D01*
X458915Y611755D01*
X456171Y612490D01*
D02*
G37*
G36*
X453480D02*
X453330D01*
X450585Y611755D01*
X448125Y610334D01*
X446116Y608325D01*
X444695Y605865D01*
X443960Y603120D01*
Y602970D01*
X453480D01*
Y612490D01*
D02*
G37*
G36*
X465540Y600430D02*
X456020D01*
Y590910D01*
X456171D01*
X458915Y591645D01*
X461375Y593066D01*
X463384Y595075D01*
X464805Y597535D01*
X465540Y600280D01*
Y600430D01*
D02*
G37*
G36*
X453480D02*
X443960D01*
Y600280D01*
X444695Y597535D01*
X446116Y595075D01*
X448125Y593066D01*
X450585Y591645D01*
X453330Y590910D01*
X453480D01*
Y600430D01*
D02*
G37*
G36*
X881620Y294990D02*
X881470D01*
Y285470D01*
X890990D01*
Y285620D01*
X890255Y288365D01*
X888834Y290825D01*
X886825Y292834D01*
X884365Y294255D01*
X881620Y294990D01*
D02*
G37*
G36*
X221220D02*
X221070D01*
Y285470D01*
X230590D01*
Y285620D01*
X229855Y288365D01*
X228434Y290825D01*
X226425Y292834D01*
X223965Y294255D01*
X221220Y294990D01*
D02*
G37*
G36*
X218530D02*
X218379D01*
X215635Y294255D01*
X213175Y292834D01*
X211166Y290825D01*
X209745Y288365D01*
X209010Y285620D01*
Y285470D01*
X218530D01*
Y294990D01*
D02*
G37*
G36*
X878930D02*
X878780D01*
X876035Y294255D01*
X873575Y292834D01*
X871566Y290825D01*
X870145Y288365D01*
X869410Y285620D01*
Y285470D01*
X878930D01*
Y294990D01*
D02*
G37*
G36*
X890990Y282930D02*
X881470D01*
Y273410D01*
X881620D01*
X884365Y274145D01*
X886825Y275566D01*
X888834Y277575D01*
X890255Y280035D01*
X890990Y282780D01*
Y282930D01*
D02*
G37*
G36*
X878930D02*
X869410D01*
Y282780D01*
X870145Y280035D01*
X871566Y277575D01*
X873575Y275566D01*
X876035Y274145D01*
X878780Y273410D01*
X878930D01*
Y282930D01*
D02*
G37*
G36*
X230590D02*
X221070D01*
Y273410D01*
X221220D01*
X223965Y274145D01*
X226425Y275566D01*
X228434Y277575D01*
X229855Y280035D01*
X230590Y282780D01*
Y282930D01*
D02*
G37*
G36*
X218530D02*
X209010D01*
Y282780D01*
X209745Y280035D01*
X211166Y277575D01*
X213175Y275566D01*
X215635Y274145D01*
X218379Y273410D01*
X218530D01*
Y282930D01*
D02*
G37*
G36*
X488175Y275137D02*
X486794Y274862D01*
X485622Y274080D01*
X481380Y269837D01*
X480597Y268666D01*
X480323Y267285D01*
X480597Y265904D01*
X481380Y264733D01*
X484644Y261469D01*
Y260968D01*
X483708Y260033D01*
X482865Y257997D01*
Y255793D01*
X483708Y253757D01*
X485267Y252198D01*
X487303Y251355D01*
X489507D01*
X491543Y252198D01*
X493102Y253757D01*
X493945Y255793D01*
Y257997D01*
X493102Y260033D01*
X492413Y260722D01*
Y260762D01*
X495677Y264026D01*
X496459Y265197D01*
X496734Y266578D01*
X496459Y267959D01*
X495677Y269130D01*
X490727Y274080D01*
X489556Y274862D01*
X488175Y275137D01*
D02*
G37*
G36*
X221220Y523590D02*
X221070D01*
Y514070D01*
X230590D01*
Y514221D01*
X229855Y516965D01*
X228434Y519425D01*
X226425Y521434D01*
X223965Y522855D01*
X221220Y523590D01*
D02*
G37*
G36*
X218530D02*
X218379D01*
X215635Y522855D01*
X213175Y521434D01*
X211166Y519425D01*
X209745Y516965D01*
X209010Y514221D01*
Y514070D01*
X218530D01*
Y523590D01*
D02*
G37*
G36*
X230590Y511530D02*
X221070D01*
Y502010D01*
X221220D01*
X223965Y502745D01*
X226425Y504166D01*
X228434Y506175D01*
X229855Y508635D01*
X230590Y511380D01*
Y511530D01*
D02*
G37*
G36*
X218530D02*
X209010D01*
Y511380D01*
X209745Y508635D01*
X211166Y506175D01*
X213175Y504166D01*
X215635Y502745D01*
X218379Y502010D01*
X218530D01*
Y511530D01*
D02*
G37*
G36*
X881620Y523590D02*
X881470D01*
Y514070D01*
X890990D01*
Y514221D01*
X890255Y516965D01*
X888834Y519425D01*
X886825Y521434D01*
X884365Y522855D01*
X881620Y523590D01*
D02*
G37*
G36*
X878930D02*
X878780D01*
X876035Y522855D01*
X873575Y521434D01*
X871566Y519425D01*
X870145Y516965D01*
X869410Y514221D01*
Y514070D01*
X878930D01*
Y523590D01*
D02*
G37*
G36*
X890990Y511530D02*
X881470D01*
Y502010D01*
X881620D01*
X884365Y502745D01*
X886825Y504166D01*
X888834Y506175D01*
X890255Y508635D01*
X890990Y511380D01*
Y511530D01*
D02*
G37*
G36*
X878930D02*
X869410D01*
Y511380D01*
X870145Y508635D01*
X871566Y506175D01*
X873575Y504166D01*
X876035Y502745D01*
X878780Y502010D01*
X878930D01*
Y511530D01*
D02*
G37*
G36*
X703820Y193390D02*
X700980D01*
X698235Y192655D01*
X695775Y191234D01*
X693766Y189225D01*
X692345Y186765D01*
X691610Y184021D01*
Y181180D01*
X692345Y178435D01*
X693766Y175975D01*
X695775Y173966D01*
X698235Y172545D01*
X700980Y171810D01*
X703820D01*
X706565Y172545D01*
X709025Y173966D01*
X711034Y175975D01*
X712455Y178435D01*
X713190Y181180D01*
Y184021D01*
X712455Y186765D01*
X711034Y189225D01*
X709025Y191234D01*
X706565Y192655D01*
X703820Y193390D01*
D02*
G37*
G36*
X729221Y91790D02*
X729070D01*
Y82270D01*
X738590D01*
Y82421D01*
X737855Y85165D01*
X736434Y87625D01*
X734425Y89634D01*
X731965Y91055D01*
X729221Y91790D01*
D02*
G37*
G36*
X627621D02*
X627470D01*
Y82270D01*
X636990D01*
Y82421D01*
X636255Y85165D01*
X634834Y87625D01*
X632825Y89634D01*
X630365Y91055D01*
X627621Y91790D01*
D02*
G37*
G36*
X602220D02*
X602070D01*
Y82270D01*
X611590D01*
Y82421D01*
X610855Y85165D01*
X609434Y87625D01*
X607425Y89634D01*
X604965Y91055D01*
X602220Y91790D01*
D02*
G37*
G36*
X221220D02*
X221070D01*
Y82270D01*
X230590D01*
Y82421D01*
X229855Y85165D01*
X228434Y87625D01*
X226425Y89634D01*
X223965Y91055D01*
X221220Y91790D01*
D02*
G37*
G36*
X881620D02*
X881470D01*
Y82270D01*
X890990D01*
Y82421D01*
X890255Y85165D01*
X888834Y87625D01*
X886825Y89634D01*
X884365Y91055D01*
X881620Y91790D01*
D02*
G37*
G36*
X551421D02*
X551270D01*
Y82270D01*
X560790D01*
Y82421D01*
X560055Y85165D01*
X558634Y87625D01*
X556625Y89634D01*
X554165Y91055D01*
X551421Y91790D01*
D02*
G37*
G36*
X878930D02*
X878780D01*
X876035Y91055D01*
X873575Y89634D01*
X871566Y87625D01*
X870145Y85165D01*
X869410Y82421D01*
Y82270D01*
X878930D01*
Y91790D01*
D02*
G37*
G36*
X548730D02*
X548579D01*
X545835Y91055D01*
X543375Y89634D01*
X541366Y87625D01*
X539945Y85165D01*
X539210Y82421D01*
Y82270D01*
X548730D01*
Y91790D01*
D02*
G37*
G36*
X726530D02*
X726379D01*
X723635Y91055D01*
X721175Y89634D01*
X719166Y87625D01*
X717745Y85165D01*
X717010Y82421D01*
Y82270D01*
X726530D01*
Y91790D01*
D02*
G37*
G36*
X624930D02*
X624780D01*
X622035Y91055D01*
X619575Y89634D01*
X617566Y87625D01*
X616145Y85165D01*
X615410Y82421D01*
Y82270D01*
X624930D01*
Y91790D01*
D02*
G37*
G36*
X599530D02*
X599380D01*
X596635Y91055D01*
X594175Y89634D01*
X592166Y87625D01*
X590745Y85165D01*
X590010Y82421D01*
Y82270D01*
X599530D01*
Y91790D01*
D02*
G37*
G36*
X218530D02*
X218379D01*
X215635Y91055D01*
X213175Y89634D01*
X211166Y87625D01*
X209745Y85165D01*
X209010Y82421D01*
Y82270D01*
X218530D01*
Y91790D01*
D02*
G37*
G36*
X890990Y79730D02*
X881470D01*
Y70210D01*
X881620D01*
X884365Y70945D01*
X886825Y72366D01*
X888834Y74375D01*
X890255Y76835D01*
X890990Y79580D01*
Y79730D01*
D02*
G37*
G36*
X878930D02*
X869410D01*
Y79580D01*
X870145Y76835D01*
X871566Y74375D01*
X873575Y72366D01*
X876035Y70945D01*
X878780Y70210D01*
X878930D01*
Y79730D01*
D02*
G37*
G36*
X738590D02*
X729070D01*
Y70210D01*
X729221D01*
X731965Y70945D01*
X734425Y72366D01*
X736434Y74375D01*
X737855Y76835D01*
X738590Y79580D01*
Y79730D01*
D02*
G37*
G36*
X726530D02*
X717010D01*
Y79580D01*
X717745Y76835D01*
X719166Y74375D01*
X721175Y72366D01*
X723635Y70945D01*
X726379Y70210D01*
X726530D01*
Y79730D01*
D02*
G37*
G36*
X636990D02*
X627470D01*
Y70210D01*
X627621D01*
X630365Y70945D01*
X632825Y72366D01*
X634834Y74375D01*
X636255Y76835D01*
X636990Y79580D01*
Y79730D01*
D02*
G37*
G36*
X624930D02*
X615410D01*
Y79580D01*
X616145Y76835D01*
X617566Y74375D01*
X619575Y72366D01*
X622035Y70945D01*
X624780Y70210D01*
X624930D01*
Y79730D01*
D02*
G37*
G36*
X611590D02*
X602070D01*
Y70210D01*
X602220D01*
X604965Y70945D01*
X607425Y72366D01*
X609434Y74375D01*
X610855Y76835D01*
X611590Y79580D01*
Y79730D01*
D02*
G37*
G36*
X599530D02*
X590010D01*
Y79580D01*
X590745Y76835D01*
X592166Y74375D01*
X594175Y72366D01*
X596635Y70945D01*
X599380Y70210D01*
X599530D01*
Y79730D01*
D02*
G37*
G36*
X560790D02*
X551270D01*
Y70210D01*
X551421D01*
X554165Y70945D01*
X556625Y72366D01*
X558634Y74375D01*
X560055Y76835D01*
X560790Y79580D01*
Y79730D01*
D02*
G37*
G36*
X548730D02*
X539210D01*
Y79580D01*
X539945Y76835D01*
X541366Y74375D01*
X543375Y72366D01*
X545835Y70945D01*
X548579Y70210D01*
X548730D01*
Y79730D01*
D02*
G37*
G36*
X408390D02*
X398870D01*
Y70210D01*
X399021D01*
X401765Y70945D01*
X404225Y72366D01*
X406234Y74375D01*
X407655Y76835D01*
X408390Y79580D01*
Y79730D01*
D02*
G37*
G36*
X396330D02*
X386810D01*
Y79580D01*
X387545Y76835D01*
X388966Y74375D01*
X390975Y72366D01*
X393435Y70945D01*
X396180Y70210D01*
X396330D01*
Y79730D01*
D02*
G37*
G36*
X382990D02*
X373470D01*
Y70210D01*
X373620D01*
X376365Y70945D01*
X378825Y72366D01*
X380834Y74375D01*
X382255Y76835D01*
X382990Y79580D01*
Y79730D01*
D02*
G37*
G36*
X370930D02*
X361410D01*
Y79580D01*
X362145Y76835D01*
X363566Y74375D01*
X365575Y72366D01*
X368035Y70945D01*
X370779Y70210D01*
X370930D01*
Y79730D01*
D02*
G37*
G36*
X332190D02*
X322670D01*
Y70210D01*
X322821D01*
X325565Y70945D01*
X328025Y72366D01*
X330034Y74375D01*
X331455Y76835D01*
X332190Y79580D01*
Y79730D01*
D02*
G37*
G36*
X320130D02*
X310610D01*
Y79580D01*
X311345Y76835D01*
X312766Y74375D01*
X314775Y72366D01*
X317235Y70945D01*
X319979Y70210D01*
X320130D01*
Y79730D01*
D02*
G37*
G36*
X230590D02*
X221070D01*
Y70210D01*
X221220D01*
X223965Y70945D01*
X226425Y72366D01*
X228434Y74375D01*
X229855Y76835D01*
X230590Y79580D01*
Y79730D01*
D02*
G37*
G36*
X218530D02*
X209010D01*
Y79580D01*
X209745Y76835D01*
X211166Y74375D01*
X213175Y72366D01*
X215635Y70945D01*
X218379Y70210D01*
X218530D01*
Y79730D01*
D02*
G37*
%LPD*%
D10*
X642900Y244732D02*
Y252999D01*
X644891Y254990D01*
X638900Y246388D02*
Y252999D01*
X636909Y254990D02*
X638900Y252999D01*
X636668Y238500D02*
X642900Y244732D01*
X636668Y231168D02*
Y238500D01*
X633840Y241328D02*
X638900Y246388D01*
X626508Y241328D02*
X633840D01*
X644891Y254990D02*
Y260070D01*
X636909Y254990D02*
Y260070D01*
X463091Y254990D02*
Y260070D01*
X455109Y254990D02*
Y260070D01*
X144870Y139420D02*
X156300D01*
X504588Y230552D02*
X518963D01*
X531969Y217546D01*
X581037Y230552D02*
X595412D01*
X568031Y217546D02*
X581037Y230552D01*
X466160Y241328D02*
X473492D01*
X461100Y246388D02*
X466160Y241328D01*
X463332Y231168D02*
Y238500D01*
X457100Y244732D02*
X463332Y238500D01*
X461100Y252999D02*
X463091Y254990D01*
X461100Y246388D02*
Y252999D01*
X455109Y254990D02*
X457100Y252999D01*
Y244732D02*
Y252999D01*
X608400Y210232D02*
X616348D01*
X605572Y213060D02*
Y221008D01*
X625892Y219776D02*
Y220392D01*
X616348Y210232D02*
X625892Y219776D01*
X615116Y230552D02*
X615732D01*
X605572Y221008D02*
X615116Y230552D01*
X570860Y214718D02*
X574302Y218160D01*
X573688Y211889D02*
X575959Y214160D01*
X602416Y209905D02*
X605572Y213060D01*
X604073Y205905D02*
X608400Y210232D01*
X574302Y218160D02*
X581750D01*
X580093Y214160D02*
X588348Y205905D01*
X581750Y218160D02*
X590005Y209905D01*
X602416D01*
X575959Y214160D02*
X580093D01*
X588348Y205905D02*
X604073D01*
X495927D02*
X511652D01*
X519907Y214160D02*
X524041D01*
X497584Y209905D02*
X509995D01*
X518250Y218160D01*
X511652Y205905D02*
X519907Y214160D01*
X518250Y218160D02*
X525698D01*
X491600Y210232D02*
X495927Y205905D01*
X494428Y213060D02*
X497584Y209905D01*
X537935Y176136D02*
X546111Y184312D01*
X537935Y173075D02*
Y176136D01*
X527448Y162588D02*
X537935Y173075D01*
X524908Y251488D02*
X536348Y240049D01*
Y230138D02*
X540454Y226031D01*
X536348Y230138D02*
Y240049D01*
X532220Y228608D02*
Y233400D01*
X527140Y238480D02*
X532220Y233400D01*
X563652Y240049D02*
X575092Y251488D01*
X559546Y226031D02*
X563652Y230138D01*
Y240049D01*
X559525Y231667D02*
Y241655D01*
X556717Y228860D02*
X559525Y231667D01*
X567780Y228608D02*
Y233400D01*
X572860Y238480D01*
X559525Y241655D02*
X565240Y247370D01*
X562374Y223203D02*
X567780Y228608D01*
X540475Y231667D02*
Y241655D01*
X534760Y247370D02*
X540475Y241655D01*
Y231667D02*
X543283Y228860D01*
X532220Y228608D02*
X537626Y223203D01*
X548851Y226676D02*
Y228896D01*
X552274Y231257D02*
Y233477D01*
X547674Y230161D02*
Y232381D01*
X570697Y193559D02*
Y195779D01*
X466180Y126720D02*
Y144500D01*
X435700Y96240D02*
X466180Y126720D01*
Y144500D02*
X516980Y195300D01*
X810350Y61950D02*
X829400Y81000D01*
X677000D02*
X696050Y61950D01*
X810350D01*
X447130Y187680D02*
Y187680D01*
X440780Y181330D02*
X447130Y187680D01*
X495390Y127990D02*
Y162934D01*
X448400Y81000D02*
X495390Y127990D01*
Y162934D02*
X510938Y178482D01*
X501740Y103860D02*
X524600Y81000D01*
X501740Y156912D02*
X537626Y192797D01*
X506820Y156335D02*
X540454Y189969D01*
X506820Y141960D02*
X546190Y102590D01*
X506820Y141960D02*
Y156335D01*
X501740Y103860D02*
Y156912D01*
X441390Y149540D02*
Y151460D01*
X456020Y166090D01*
X456020D02*
Y181330D01*
X516980Y195300D02*
X528815D01*
X510938Y178482D02*
X518866Y186410D01*
X525582D02*
X534797Y195626D01*
X518866Y186410D02*
X525582D01*
X423000Y166090D02*
X423000Y166090D01*
X407760Y166090D02*
X423000D01*
X407760Y150850D02*
Y166090D01*
X296000Y81000D02*
X311240Y96240D01*
X435700D01*
X528815Y195300D02*
X531969Y198454D01*
X550000Y145770D02*
Y164820D01*
X563970Y178790D01*
X555080Y148310D02*
X580480Y122910D01*
X550000Y145770D02*
X577940Y117830D01*
X555080Y148310D02*
Y163550D01*
X568415Y176885D01*
X760820Y106400D02*
X760820Y106400D01*
X760820Y106400D02*
Y121640D01*
X760820Y98780D02*
X778600Y81000D01*
X760820Y98780D02*
Y106400D01*
X913220Y98780D02*
X931000Y81000D01*
X913220Y98780D02*
Y106400D01*
X913220Y106400D02*
X913220Y106400D01*
X913220Y106400D02*
Y121640D01*
X656680Y103860D02*
X713830D01*
X645250Y122910D02*
X659220Y108940D01*
X710020D01*
X736690Y135610D01*
X713830Y103860D02*
X740500Y130530D01*
X642710Y117830D02*
X656680Y103860D01*
X577940Y117830D02*
X642710D01*
X580480Y122910D02*
X645250D01*
X546190Y102590D02*
X635090D01*
X656680Y81000D01*
X677000D01*
X661760Y131800D02*
X677000D01*
X641748Y151812D02*
X661760Y131800D01*
X664300Y169900D02*
X677000Y182600D01*
X643980Y169900D02*
X664300D01*
X633820Y180060D02*
X643980Y169900D01*
X649060Y180060D02*
X649060Y180060D01*
Y195300D01*
X618888Y187372D02*
X626200Y180060D01*
X633820D01*
X630972Y198148D02*
X633820Y195300D01*
X608112Y198148D02*
X630972D01*
X596028Y144192D02*
X606188Y154352D01*
X585868Y174672D02*
X595412Y165128D01*
X585868Y174672D02*
Y175288D01*
X608112Y185448D02*
X608112Y185448D01*
X608112Y185448D02*
Y198148D01*
X595412Y185448D02*
X608112D01*
X630972Y162588D01*
X573688Y204111D02*
X592351Y185448D01*
X595412D01*
X751930Y130530D02*
X760820Y121640D01*
X740500Y130530D02*
X751930D01*
X899250Y135610D02*
X913220Y121640D01*
X736690Y135610D02*
X899250D01*
X562374Y192797D02*
X568415Y186756D01*
Y176885D02*
Y186756D01*
X559546Y189969D02*
X563970Y185545D01*
Y178790D02*
Y185545D01*
X559525Y180695D02*
Y184333D01*
X542380Y163550D02*
X559525Y180695D01*
X556717Y187140D02*
X559525Y184333D01*
X537608Y152428D02*
X542380Y157200D01*
Y163550D01*
X581255Y183010D02*
Y185231D01*
X568031Y198454D02*
X581255Y185231D01*
X570860Y201283D02*
X585868Y186274D01*
Y175288D02*
Y186274D01*
X522581Y200380D02*
X526312Y204111D01*
X524041Y214160D02*
X526312Y211889D01*
X525698Y218160D02*
X529140Y214718D01*
X590024Y266420D02*
X595720D01*
X575092Y251488D02*
X590024Y266420D01*
X514440Y261956D02*
Y279120D01*
Y261956D02*
X524908Y251488D01*
X585868Y241328D02*
X595208Y250668D01*
X585868Y240712D02*
Y241328D01*
X504792Y250052D02*
X514132Y240712D01*
X504792Y250052D02*
Y250668D01*
X484884Y230552D02*
X494428Y221008D01*
X484268Y230552D02*
X484884D01*
X474108Y219776D02*
X483652Y210232D01*
X474108Y219776D02*
Y220392D01*
X527140Y263880D02*
X534760Y256260D01*
Y247370D02*
Y256260D01*
X565240D02*
X572860Y263880D01*
X565240Y247370D02*
Y256260D01*
X565203Y220374D02*
X585540Y240712D01*
X494428Y213060D02*
Y221008D01*
X483652Y210232D02*
X491600D01*
X514460Y240712D02*
X534797Y220374D01*
X514132Y240712D02*
X514460D01*
X550000Y223556D02*
Y227799D01*
X546111Y231688D02*
X550000Y227799D01*
D25*
X440780Y181330D02*
D03*
X456020D02*
D03*
X456020Y166090D02*
D03*
X440780D02*
D03*
X897980Y121640D02*
D03*
X913220D02*
D03*
X745580D02*
D03*
X760820D02*
D03*
X156300Y139420D02*
D03*
X171540D02*
D03*
X171540Y124180D02*
D03*
X156300D02*
D03*
X649060Y180060D02*
D03*
X633820D02*
D03*
D26*
X880200Y447080D02*
D03*
Y360080D02*
D03*
X219800Y447080D02*
D03*
Y360080D02*
D03*
D27*
X897980Y106400D02*
D03*
X913220D02*
D03*
X745580D02*
D03*
X760820D02*
D03*
X649060Y195300D02*
D03*
X633820D02*
D03*
D28*
X407760Y135610D02*
D03*
Y150850D02*
D03*
X456020Y150850D02*
D03*
Y135610D02*
D03*
X407760Y166090D02*
D03*
Y181330D02*
D03*
D29*
X431890Y131840D02*
D03*
X422390Y149540D02*
D03*
X441390D02*
D03*
D30*
X558890Y267370D02*
D03*
Y285790D02*
D03*
D31*
X568031Y198454D02*
D03*
X546111Y231688D02*
D03*
X573688Y204111D02*
D03*
X570860Y201283D02*
D03*
X565203Y195626D02*
D03*
X562374Y192797D02*
D03*
X559546Y189969D02*
D03*
X556717Y187140D02*
D03*
X553889Y184312D02*
D03*
X531969Y217546D02*
D03*
X543283Y228860D02*
D03*
X540454Y226031D02*
D03*
X537626Y223203D02*
D03*
X529140Y214718D02*
D03*
X526312Y211889D02*
D03*
X534797Y220374D02*
D03*
D32*
X553889Y231688D02*
D03*
X556717Y228860D02*
D03*
X559546Y226031D02*
D03*
X562374Y223203D02*
D03*
X565203Y220374D02*
D03*
X568031Y217546D02*
D03*
X570860Y214718D02*
D03*
X573688Y211889D02*
D03*
X546111Y184312D02*
D03*
X543283Y187140D02*
D03*
X540454Y189969D02*
D03*
X537626Y192797D02*
D03*
X534797Y195626D02*
D03*
X531969Y198454D02*
D03*
X529140Y201283D02*
D03*
X526312Y204111D02*
D03*
D33*
X605572Y221008D02*
D03*
X616348Y210232D02*
D03*
X585252Y154968D02*
D03*
X596028Y144192D02*
D03*
X585868Y240712D02*
D03*
X575092Y251488D02*
D03*
X493812Y241328D02*
D03*
X504588Y230552D02*
D03*
D34*
X608112Y198148D02*
D03*
X618888Y187372D02*
D03*
X606188Y174672D02*
D03*
X595412Y185448D02*
D03*
X630972Y162588D02*
D03*
X641748Y151812D02*
D03*
X606188Y154352D02*
D03*
X595412Y165128D02*
D03*
X484268Y230552D02*
D03*
X473492Y241328D02*
D03*
X474108Y220392D02*
D03*
X463332Y231168D02*
D03*
X510938Y178482D02*
D03*
X500162Y189258D02*
D03*
D35*
X636668Y231168D02*
D03*
X625892Y220392D02*
D03*
X626508Y241328D02*
D03*
X615732Y230552D02*
D03*
X527448Y162588D02*
D03*
X516672Y151812D02*
D03*
X537608Y152428D02*
D03*
X526832Y141652D02*
D03*
D36*
X575092Y164512D02*
D03*
X585868Y175288D02*
D03*
X606188Y241328D02*
D03*
X595412Y230552D02*
D03*
X524908Y251488D02*
D03*
X514132Y240712D02*
D03*
X483652Y210232D02*
D03*
X494428Y221008D02*
D03*
D37*
X611472Y266932D02*
D03*
X595208Y250668D02*
D03*
D38*
X488528Y266932D02*
D03*
X504792Y250668D02*
D03*
D39*
X423000Y166090D02*
D03*
Y181330D02*
D03*
X651600Y395960D02*
D03*
Y411200D02*
D03*
X687160Y395960D02*
D03*
Y411200D02*
D03*
X448400Y395960D02*
D03*
Y411200D02*
D03*
X412840Y395960D02*
D03*
Y411200D02*
D03*
D40*
X493750Y601700D02*
D03*
X606250D02*
D03*
D41*
X289650Y417580D02*
D03*
Y389580D02*
D03*
X355690Y417580D02*
D03*
Y389580D02*
D03*
X711290Y417580D02*
D03*
Y389580D02*
D03*
X744310Y417580D02*
D03*
Y389580D02*
D03*
X810350Y417580D02*
D03*
Y389580D02*
D03*
X777330Y417580D02*
D03*
Y389580D02*
D03*
X322670Y417580D02*
D03*
Y389580D02*
D03*
X388710Y417580D02*
D03*
Y389580D02*
D03*
D42*
X652870Y434060D02*
D03*
X685890D02*
D03*
X414110D02*
D03*
X447130D02*
D03*
D68*
X464910Y515775D02*
D03*
X477610D02*
D03*
X439510D02*
D03*
X452210D02*
D03*
X525870Y459025D02*
D03*
X538570D02*
D03*
X500470D02*
D03*
X513170D02*
D03*
X574130D02*
D03*
X561430D02*
D03*
X599530D02*
D03*
X586830D02*
D03*
X635090Y515775D02*
D03*
X622390D02*
D03*
X660490D02*
D03*
X647790D02*
D03*
D69*
X458560Y461025D02*
D03*
X519520Y513775D02*
D03*
X580480D02*
D03*
X641440Y461025D02*
D03*
D70*
X458560Y483025D02*
D03*
X519520Y491775D02*
D03*
X580480D02*
D03*
X641440Y483025D02*
D03*
D71*
X550000Y208000D02*
D03*
D72*
X568031Y198454D02*
D03*
X563789Y202697D02*
D03*
X425540Y434060D02*
D03*
X419540D02*
D03*
X435700D02*
D03*
X441700D02*
D03*
X664300D02*
D03*
X658300D02*
D03*
X674460D02*
D03*
X680460D02*
D03*
D73*
X488405Y256895D02*
X488528Y257018D01*
Y266932D01*
X194400Y81000D02*
X235040Y121640D01*
X348070D02*
X407760Y181330D01*
X235040Y121640D02*
X348070D01*
X487770Y182600D02*
Y188950D01*
X456020Y150850D02*
X487770Y182600D01*
X856138Y81000D02*
X896778Y121640D01*
X854800Y81000D02*
X856138D01*
X896778Y121640D02*
X897980D01*
X744639D02*
X745580D01*
X703998Y81000D02*
X744639Y121640D01*
X702400Y81000D02*
X703998D01*
X169000D02*
X188050Y61950D01*
X251550D02*
X270600Y81000D01*
X188050Y61950D02*
X251550D01*
X270600Y81000D02*
X289650Y61950D01*
X480150D02*
X499200Y81000D01*
X289650Y61950D02*
X480150D01*
X169000Y81000D02*
X171540Y83540D01*
Y124180D01*
X171540Y124180D01*
Y139420D01*
X487770Y188950D02*
X499854D01*
X500162Y189258D01*
X435660Y135610D02*
X456020D01*
X431890Y131840D02*
X435660Y135610D01*
X428120Y135610D02*
X431890Y131840D01*
X407760Y135610D02*
X428120D01*
X426810Y200380D02*
X522581D01*
X407760Y181330D02*
X426810Y200380D01*
X604197Y274207D02*
X611472Y266932D01*
X567466Y274207D02*
X604197D01*
X560629Y267370D02*
X567466Y274207D01*
X558890Y267370D02*
X560629D01*
D74*
X439510Y515775D02*
Y528040D01*
X622390Y515775D02*
Y528040D01*
X599530Y446760D02*
Y459025D01*
X538570Y446760D02*
Y459025D01*
D75*
X130900Y489940D02*
D03*
X969100D02*
D03*
Y299440D02*
D03*
X130900D02*
D03*
D76*
X454750Y601700D02*
D03*
X645250D02*
D03*
X219800Y512800D02*
D03*
X880200D02*
D03*
X219800Y284200D02*
D03*
X880200D02*
D03*
X677000Y131800D02*
D03*
X702400Y182600D02*
D03*
X677000D02*
D03*
X931000Y81000D02*
D03*
X778600D02*
D03*
X550000D02*
D03*
X524600D02*
D03*
X499200D02*
D03*
X626200D02*
D03*
X600800D02*
D03*
X397600D02*
D03*
X372200D02*
D03*
X448400D02*
D03*
X321400D02*
D03*
X296000D02*
D03*
X270600D02*
D03*
X169000D02*
D03*
X194400D02*
D03*
X219800D02*
D03*
X727800D02*
D03*
X702400D02*
D03*
X677000D02*
D03*
X829400D02*
D03*
X854800D02*
D03*
X880200D02*
D03*
D77*
X100000Y100000D02*
D03*
X1000000D02*
D03*
X100000Y650000D02*
D03*
X1000000D02*
D03*
D78*
X174080Y421360D02*
D03*
X186780D02*
D03*
X199480D02*
D03*
X900520D02*
D03*
X913220D02*
D03*
X925920D02*
D03*
X1039747Y393993D02*
D03*
X697320Y459460D02*
D03*
X710020D02*
D03*
Y472160D02*
D03*
X697320D02*
D03*
X389980Y459460D02*
D03*
X402680D02*
D03*
Y472160D02*
D03*
X389980D02*
D03*
X913220Y347700D02*
D03*
X900520D02*
D03*
X199480D02*
D03*
X186780D02*
D03*
X654140Y489940D02*
D03*
Y477240D02*
D03*
Y464540D02*
D03*
X642710Y489940D02*
D03*
X631280D02*
D03*
Y477240D02*
D03*
X642710D02*
D03*
Y464540D02*
D03*
X631280D02*
D03*
X144870Y139420D02*
D03*
X488405Y256895D02*
D03*
X644891Y260070D02*
D03*
X636909D02*
D03*
X435700Y434060D02*
D03*
X425540D02*
D03*
X463091Y260070D02*
D03*
X455109D02*
D03*
X721450Y194030D02*
D03*
X720180Y181330D02*
D03*
X659220Y182600D02*
D03*
X829400Y143230D02*
D03*
X661760Y162280D02*
D03*
X706210Y119100D02*
D03*
X933540Y124180D02*
D03*
X778600D02*
D03*
X829400D02*
D03*
X880200D02*
D03*
X514440Y116560D02*
D03*
X486500Y152120D02*
D03*
X494120Y114020D02*
D03*
X423000Y108940D02*
D03*
X350011Y108955D02*
D03*
X349340Y139420D02*
D03*
X161380Y111480D02*
D03*
X214720Y139420D02*
D03*
X616040Y164820D02*
D03*
X607150Y373100D02*
D03*
X708750Y96240D02*
D03*
X562700Y119100D02*
D03*
X550000Y131800D02*
D03*
Y119100D02*
D03*
X537300Y131800D02*
D03*
X447130Y187680D02*
D03*
X556350Y257530D02*
D03*
X487770Y188950D02*
D03*
X431890Y192760D02*
D03*
X401410D02*
D03*
X1035140Y159740D02*
D03*
X562700Y157200D02*
D03*
X575400Y144500D02*
D03*
X588100Y131800D02*
D03*
X669380Y395960D02*
D03*
X626200D02*
D03*
X638900D02*
D03*
X483960D02*
D03*
X598260Y388340D02*
D03*
X674460Y434060D02*
D03*
X664300D02*
D03*
X595720Y266420D02*
D03*
X514440Y279120D02*
D03*
X457290Y395960D02*
D03*
X430620D02*
D03*
X638900Y411200D02*
D03*
X626200D02*
D03*
X478880D02*
D03*
X466180D02*
D03*
X567780Y483590D02*
D03*
X580480D02*
D03*
Y496290D02*
D03*
X567780D02*
D03*
Y508990D02*
D03*
X580480D02*
D03*
X593180Y483590D02*
D03*
Y496290D02*
D03*
Y508990D02*
D03*
X506820Y483590D02*
D03*
X519520D02*
D03*
Y496290D02*
D03*
X506820D02*
D03*
Y508990D02*
D03*
X519520D02*
D03*
X532220Y483590D02*
D03*
Y496290D02*
D03*
Y508990D02*
D03*
X445860Y465810D02*
D03*
X458560D02*
D03*
Y478510D02*
D03*
X445860D02*
D03*
Y491210D02*
D03*
X458560D02*
D03*
X471260Y465810D02*
D03*
Y478510D02*
D03*
Y491210D02*
D03*
X626200Y436600D02*
D03*
Y449300D02*
D03*
X638900Y436600D02*
D03*
Y449300D02*
D03*
Y423900D02*
D03*
X626200D02*
D03*
X466180Y436600D02*
D03*
Y449300D02*
D03*
X478880Y436600D02*
D03*
Y449300D02*
D03*
Y423900D02*
D03*
X466180D02*
D03*
X600800Y525500D02*
D03*
Y538200D02*
D03*
X588100D02*
D03*
Y525500D02*
D03*
X562700D02*
D03*
X537300D02*
D03*
X562700Y538200D02*
D03*
X537300D02*
D03*
X575400D02*
D03*
Y525500D02*
D03*
X511900D02*
D03*
X499200D02*
D03*
X486500D02*
D03*
X511900Y538200D02*
D03*
X499200D02*
D03*
X486500D02*
D03*
X524600D02*
D03*
Y525500D02*
D03*
X461100D02*
D03*
X473800D02*
D03*
X550000Y436600D02*
D03*
X575400D02*
D03*
Y449300D02*
D03*
X562700D02*
D03*
Y436600D02*
D03*
X550000Y449300D02*
D03*
X524600Y436600D02*
D03*
Y449300D02*
D03*
X511900D02*
D03*
Y436600D02*
D03*
X499200D02*
D03*
Y449300D02*
D03*
X588100D02*
D03*
Y436600D02*
D03*
X684620Y360400D02*
D03*
Y373100D02*
D03*
X697320D02*
D03*
Y360400D02*
D03*
X710020D02*
D03*
Y373100D02*
D03*
X722720D02*
D03*
Y360400D02*
D03*
X735420D02*
D03*
Y373100D02*
D03*
X748120D02*
D03*
Y360400D02*
D03*
X760820D02*
D03*
Y373100D02*
D03*
X773520D02*
D03*
Y360400D02*
D03*
X786220D02*
D03*
Y373100D02*
D03*
X798920D02*
D03*
Y360400D02*
D03*
X811620D02*
D03*
Y373100D02*
D03*
X824320D02*
D03*
Y360400D02*
D03*
X837020D02*
D03*
Y373100D02*
D03*
X849720D02*
D03*
Y360400D02*
D03*
X862420D02*
D03*
Y373100D02*
D03*
X900520D02*
D03*
Y360400D02*
D03*
X913220D02*
D03*
Y373100D02*
D03*
X925920D02*
D03*
Y360400D02*
D03*
Y434060D02*
D03*
X913220Y446760D02*
D03*
Y434060D02*
D03*
X900520D02*
D03*
Y446760D02*
D03*
X862420D02*
D03*
Y434060D02*
D03*
X849720D02*
D03*
Y446760D02*
D03*
X837020D02*
D03*
Y434060D02*
D03*
X824320D02*
D03*
Y446760D02*
D03*
X811620D02*
D03*
Y434060D02*
D03*
X798920D02*
D03*
Y446760D02*
D03*
X786220D02*
D03*
Y434060D02*
D03*
X773520D02*
D03*
Y446760D02*
D03*
X760820D02*
D03*
Y434060D02*
D03*
X748120D02*
D03*
Y446760D02*
D03*
X735420D02*
D03*
Y434060D02*
D03*
X722720D02*
D03*
Y446760D02*
D03*
X710020D02*
D03*
Y434060D02*
D03*
X697320D02*
D03*
Y446760D02*
D03*
X402680D02*
D03*
Y434060D02*
D03*
X389980D02*
D03*
Y446760D02*
D03*
X377280D02*
D03*
Y434060D02*
D03*
X364580D02*
D03*
Y446760D02*
D03*
X351880D02*
D03*
Y434060D02*
D03*
X339180D02*
D03*
Y446760D02*
D03*
X326480D02*
D03*
Y434060D02*
D03*
X313780D02*
D03*
Y446760D02*
D03*
X301080D02*
D03*
Y434060D02*
D03*
X288380D02*
D03*
Y446760D02*
D03*
X275680D02*
D03*
Y434060D02*
D03*
X262980D02*
D03*
Y446760D02*
D03*
X250280D02*
D03*
Y434060D02*
D03*
X237580D02*
D03*
Y446760D02*
D03*
X199480D02*
D03*
Y434060D02*
D03*
X186780D02*
D03*
Y446760D02*
D03*
X174080Y434060D02*
D03*
Y360400D02*
D03*
Y373100D02*
D03*
X186780D02*
D03*
Y360400D02*
D03*
X199480D02*
D03*
Y373100D02*
D03*
X237580D02*
D03*
Y360400D02*
D03*
X250280D02*
D03*
Y373100D02*
D03*
X262980D02*
D03*
Y360400D02*
D03*
X275680D02*
D03*
Y373100D02*
D03*
X288380D02*
D03*
Y360400D02*
D03*
X301080D02*
D03*
Y373100D02*
D03*
X313780D02*
D03*
Y360400D02*
D03*
X326480D02*
D03*
Y373100D02*
D03*
X339180D02*
D03*
Y360400D02*
D03*
X351880D02*
D03*
Y373100D02*
D03*
X364580D02*
D03*
Y360400D02*
D03*
X377280D02*
D03*
Y373100D02*
D03*
X389980D02*
D03*
Y360400D02*
D03*
X402680D02*
D03*
Y373100D02*
D03*
X415380D02*
D03*
Y360400D02*
D03*
X626200Y576300D02*
D03*
Y563600D02*
D03*
X473800Y576300D02*
D03*
Y563600D02*
D03*
X626200Y550900D02*
D03*
Y536930D02*
D03*
X473800Y550900D02*
D03*
Y538200D02*
D03*
X651600Y627100D02*
D03*
X638900Y665200D02*
D03*
X651600D02*
D03*
Y652500D02*
D03*
X638900D02*
D03*
Y639800D02*
D03*
X651600D02*
D03*
X638900Y627100D02*
D03*
X461100Y665200D02*
D03*
X448400D02*
D03*
Y652500D02*
D03*
X461100D02*
D03*
Y639800D02*
D03*
X448400D02*
D03*
Y627100D02*
D03*
X461100D02*
D03*
X651600Y576300D02*
D03*
X638900D02*
D03*
Y563600D02*
D03*
X651600Y538200D02*
D03*
X638900Y536930D02*
D03*
Y550900D02*
D03*
X651600D02*
D03*
Y563600D02*
D03*
X461100Y576300D02*
D03*
X448400D02*
D03*
Y563600D02*
D03*
X461100D02*
D03*
Y550900D02*
D03*
X448400D02*
D03*
Y538200D02*
D03*
X461100D02*
D03*
D79*
X166255Y454585D02*
D03*
Y525295D02*
D03*
X95545D02*
D03*
Y454585D02*
D03*
X130900Y439940D02*
D03*
X180900Y489940D02*
D03*
X130900Y539940D02*
D03*
X80900Y489940D02*
D03*
X1004455Y525295D02*
D03*
X933745D02*
D03*
Y454585D02*
D03*
X1004455D02*
D03*
X1019100Y489940D02*
D03*
X969100Y539940D02*
D03*
X919100Y489940D02*
D03*
X969100Y439940D02*
D03*
X1004455Y334795D02*
D03*
X933745D02*
D03*
Y264085D02*
D03*
X1004455D02*
D03*
X1019100Y299440D02*
D03*
X969100Y349440D02*
D03*
X919100Y299440D02*
D03*
X969100Y249440D02*
D03*
X166255Y264085D02*
D03*
Y334795D02*
D03*
X95545D02*
D03*
Y264085D02*
D03*
X130900Y249440D02*
D03*
X180900Y299440D02*
D03*
X130900Y349440D02*
D03*
X80900Y299440D02*
D03*
X506820Y218160D02*
D03*
X527140Y238480D02*
D03*
X572860D02*
D03*
X593180Y218160D02*
D03*
X527140Y263880D02*
D03*
X572860D02*
D03*
X439510Y528040D02*
D03*
X622390D02*
D03*
X599530Y446760D02*
D03*
X538570D02*
D03*
D80*
X550000Y223556D02*
D03*
X557778Y215778D02*
D03*
X565556Y208000D02*
D03*
X550000Y192444D02*
D03*
X542222Y200222D02*
D03*
X534444Y208000D02*
D03*
X550000D02*
D03*
X542222Y215778D02*
D03*
X557778Y200222D02*
D03*
M02*
