M48
;Layer_Color=9474304
;FILE_FORMAT=2:5
INCH,LZ
;TYPE=PLATED
T1F00S00C0.01181
T2F00S00C0.01968
T3F00S00C0.04000
T4F00S00C0.12598
T5F00S00C0.24016
%
T01
X0063535Y004389
X0057035Y005489
X0084535
X0078535Y013689
X0073535
Y014189
X0068535
Y014689
X0073535
X0078535
Y014189
X0093535
Y014689
X0098535
Y014189
X0103535
Y014689
X0108535
Y014189
X0113535
Y014689
X0118535
Y014189
X0123535
Y014689
X0128535
Y014189
X0133535
Y014689
X0138535
Y014189
X0143535
Y014689
X0148535
Y014189
X0153535
Y014689
X0158535
Y014189
X0163535
Y014689
X0179177Y010239
X0182319
X0192285Y010114
X0202535Y010989
X0219035Y010139
X0216535Y0088014
Y008189
X0213473Y0084952
X0219598
X022266Y008189
X0219598Y0078828
X0216535Y0075765
X0213473Y0078828
X0210411Y008189
X0192035Y007439
X0191535Y005989
X0194535Y004489
X0202535Y004589
X0216535Y004689
X0221535
X0216535Y005189
X0211535
X0221535Y006189
X0226535Y005689
X0231535Y005189
X0242535Y006489
X0260535Y006389
X0259535Y007189
X0283535Y007139
X0284035Y007639
X0278035Y004689
X0279035Y003789
X0253894Y010239
X0250752
X0234535Y010489
X0239035Y014689
X0269535
Y014189
X0274535
Y014689
X0279535
Y014189
X0284535
Y014689
X0176035Y007389
X0170035Y007589
X0158035
X0166535Y004289
X01378Y0042896
X0137535Y005489
X0306535Y004889
X0326535
Y005639
X0346535Y004889
X0367535
X0407535Y006289
X0359535Y013689
X0354535
Y014189
Y014689
X0359535
Y014189
X0364535
Y014689
X0339535
X0334535
X0329535
X0324535
X0319535
X0314535
X0309535
X0304535
X0299535
X0294535
X0289535
Y014189
X0294535
X0299535
X0304535
X0309535
X0314535
X0319535
X0324535
X0329535
X0334535
X0339535
Y017089
Y017589
X0334535
Y017089
X0329535
Y017589
X0324535
Y017089
X0319535
Y017589
X0314535
Y017089
X0309535
Y017589
X0304535
Y017089
X0299535
Y017589
X0294535
Y017089
X0289535
Y017589
X0354535
X0359535
Y017089
Y016589
X0354535
Y017089
X0364535
Y016589
X0409349Y0155116
X0284535Y017089
Y017589
X0279535
Y018089
X0274535
Y018589
X0279535
Y017089
X0274535
Y017589
X0265535Y017089
X0261535
X0251535Y017189
X0246535
Y017689
X0251535
X0253035Y018289
X0257535
Y018789
X0253035
X0248535
Y019289
X0253035
X0257535
X0248535Y018289
X0246535Y016689
Y016189
X0251535
Y016689
Y015589
X0246535
X0235535Y015289
X0231535Y017189
X0226535
Y017689
X0221535
Y017189
X0216535
Y017689
X0206535
Y017189
X0201535
Y017689
X0196535
Y017189
X0188535
X0183535
Y017689
X0188535
X0185535Y018339
X0180535
X0175535
Y018839
X0180535
Y019339
X0175535
X0185535
Y018839
X0199535Y019039
X0204535
Y019539
X0199535
Y020039
X0204535
X0209535
Y019539
Y019039
X0223535
X0228535
Y019539
X0223535
Y020039
X0228535
X0233535
Y019539
Y019039
X0231535Y017689
Y020689
X0236535
Y021189
X0231535
X0226535
X0221535
Y020689
X0226535
X0211535
Y021189
X0206535
X0201535
Y020689
X0196535
X0191535
Y021189
X0196535
X0186535
Y020689
X0181535
Y021189
Y021689
X0186535
Y022189
Y022689
X0181535
X0176535
Y022189
X0181535
X0176535Y021689
Y021189
X0206535Y020689
X0246535Y021139
X0251535
X0256535Y021189
Y021689
X0251535
X0246535
Y022189
Y022689
X0251535
X0256535
Y022189
X0251535
Y024689
X0256535
Y025189
Y025689
Y026189
X0251535
Y025689
Y025189
X0181535
Y025689
Y026189
X0176535
Y025689
Y025189
Y024689
X0181535
X0183535Y016689
Y016189
X0188535
Y016689
X0190535Y015589
X0180035
X0169535
X0171535Y017089
X0167535
X0158535
Y017589
Y018089
X0153535
Y018589
X0158535
X0153535Y017589
Y017089
X0148535
Y017589
X0143535
Y017089
X0138535
Y017589
X0133535
Y017089
X0263535Y015589
X0128535Y017089
Y017589
X0123535
Y017089
X0118535
Y017589
X0113535
Y017089
X0108535
Y017589
X0103535
Y017089
X0098535
Y017589
X0093535
Y017089
X0078535
Y016589
X0073535
X0068535
Y017089
X0073535
Y017589
X0078535
T02
X0037616Y010397
X0051535Y0098205
X0065455Y010397
X007122Y011789
X0065455Y0131809
X0051535Y0137575
X0037616Y0131809
X003185Y011789
X0207535Y010389
Y009389
X0199535Y008589
X0225535Y009389
Y010389
X0233535Y008589
X0367616Y010397
X036185Y011789
X0367616Y0131809
X0381535Y0137575
X0395455Y0131809
X0401221Y011789
X0395455Y010397
X0381535Y0098205
Y0173205
X0367616Y017897
X036185Y019289
X0367616Y0206809
X0381535Y0212575
X0395455Y0206809
X0401221Y019289
X0395455Y017897
X0236035Y017589
X0212035
X0245035Y020789
X0173035
X0065455Y0206809
X007122Y019289
X0065455Y017897
X0051535Y0173205
X0037616Y017897
X003185Y019289
X0037616Y0206809
X0051535Y0212575
T03
X0066535Y003189
X0076535
X0086535
X0106535
X0116535
X0126535
X0086535Y011189
X0146535Y003189
X0156535
X0176535
X0196535
X0206535
X0216535
X0236535
X0246535
X0266535
X0276535
X0266535Y005189
Y007189
X0276535
X0286535Y003189
X0306535
X0326535
X0336535
X0346535
X0366535
X0346535Y011189
Y020189
X0254035Y023689
X0179035
X0086535Y020189
T04
X003937Y003937
X0393701
Y0255906
X003937
T05
X0051535Y011789
X0381535
Y019289
X0051535
M30
