G04*
G04 #@! TF.GenerationSoftware,Altium Limited,Altium Designer,23.3.1 (30)*
G04*
G04 Layer_Color=2752767*
%FSLAX44Y44*%
%MOMM*%
G71*
G04*
G04 #@! TF.SameCoordinates,EE3F4187-3FEB-4C8D-94AF-BEFEFA225CE7*
G04*
G04*
G04 #@! TF.FilePolarity,Positive*
G04*
G01*
G75*
%ADD12C,0.1270*%
%ADD90C,0.1693*%
%ADD91C,0.2400*%
%ADD92C,0.1500*%
%ADD93C,0.0847*%
D12*
X130900Y484860D02*
X125820Y495020D01*
X135980D01*
X130900Y484860D01*
X969100D02*
X964020Y495020D01*
X974180D01*
X969100Y484860D01*
Y294360D02*
X964020Y304520D01*
X974180D01*
X969100Y294360D01*
X130900D02*
X125820Y304520D01*
X135980D01*
X130900Y294360D01*
X454750Y596620D02*
X457290Y599160D01*
X459830D01*
X457290Y601700D01*
X459830Y604240D01*
X457290D01*
X454750Y606780D01*
X452210Y604240D01*
X449670D01*
X452210Y601700D01*
X449670Y599160D01*
X452210D01*
X454750Y596620D01*
Y598652D02*
X456274Y600176D01*
X457798D01*
X456274Y601700D01*
X457798Y603224D01*
X456274D01*
X454750Y604748D01*
X453226Y603224D01*
X451702D01*
X453226Y601700D01*
X451702Y600176D01*
X453226D01*
X454750Y598652D01*
X645250Y596620D02*
X647790Y599160D01*
X650330D01*
X647790Y601700D01*
X650330Y604240D01*
X647790D01*
X645250Y606780D01*
X642710Y604240D01*
X640170D01*
X642710Y601700D01*
X640170Y599160D01*
X642710D01*
X645250Y596620D01*
Y598652D02*
X646774Y600176D01*
X648298D01*
X646774Y601700D01*
X648298Y603224D01*
X646774D01*
X645250Y604748D01*
X643726Y603224D01*
X642202D01*
X643726Y601700D01*
X642202Y600176D01*
X643726D01*
X645250Y598652D01*
X219800Y507720D02*
X222340Y510260D01*
X224880D01*
X222340Y512800D01*
X224880Y515340D01*
X222340D01*
X219800Y517880D01*
X217260Y515340D01*
X214720D01*
X217260Y512800D01*
X214720Y510260D01*
X217260D01*
X219800Y507720D01*
Y509752D02*
X221324Y511276D01*
X222848D01*
X221324Y512800D01*
X222848Y514324D01*
X221324D01*
X219800Y515848D01*
X218276Y514324D01*
X216752D01*
X218276Y512800D01*
X216752Y511276D01*
X218276D01*
X219800Y509752D01*
X880200Y507720D02*
X882740Y510260D01*
X885280D01*
X882740Y512800D01*
X885280Y515340D01*
X882740D01*
X880200Y517880D01*
X877660Y515340D01*
X875120D01*
X877660Y512800D01*
X875120Y510260D01*
X877660D01*
X880200Y507720D01*
Y509752D02*
X881724Y511276D01*
X883248D01*
X881724Y512800D01*
X883248Y514324D01*
X881724D01*
X880200Y515848D01*
X878676Y514324D01*
X877152D01*
X878676Y512800D01*
X877152Y511276D01*
X878676D01*
X880200Y509752D01*
X219800Y279120D02*
X222340Y281660D01*
X224880D01*
X222340Y284200D01*
X224880Y286740D01*
X222340D01*
X219800Y289280D01*
X217260Y286740D01*
X214720D01*
X217260Y284200D01*
X214720Y281660D01*
X217260D01*
X219800Y279120D01*
Y281152D02*
X221324Y282676D01*
X222848D01*
X221324Y284200D01*
X222848Y285724D01*
X221324D01*
X219800Y287248D01*
X218276Y285724D01*
X216752D01*
X218276Y284200D01*
X216752Y282676D01*
X218276D01*
X219800Y281152D01*
X880200Y279120D02*
X882740Y281660D01*
X885280D01*
X882740Y284200D01*
X885280Y286740D01*
X882740D01*
X880200Y289280D01*
X877660Y286740D01*
X875120D01*
X877660Y284200D01*
X875120Y281660D01*
X877660D01*
X880200Y279120D01*
Y281152D02*
X881724Y282676D01*
X883248D01*
X881724Y284200D01*
X883248Y285724D01*
X881724D01*
X880200Y287248D01*
X878676Y285724D01*
X877152D01*
X878676Y284200D01*
X877152Y282676D01*
X878676D01*
X880200Y281152D01*
X677000Y126720D02*
X679540Y129260D01*
X682080D01*
X679540Y131800D01*
X682080Y134340D01*
X679540D01*
X677000Y136880D01*
X674460Y134340D01*
X671920D01*
X674460Y131800D01*
X671920Y129260D01*
X674460D01*
X677000Y126720D01*
Y128752D02*
X678524Y130276D01*
X680048D01*
X678524Y131800D01*
X680048Y133324D01*
X678524D01*
X677000Y134848D01*
X675476Y133324D01*
X673952D01*
X675476Y131800D01*
X673952Y130276D01*
X675476D01*
X677000Y128752D01*
X702400Y177520D02*
X704940Y180060D01*
X707480D01*
X704940Y182600D01*
X707480Y185140D01*
X704940D01*
X702400Y187680D01*
X699860Y185140D01*
X697320D01*
X699860Y182600D01*
X697320Y180060D01*
X699860D01*
X702400Y177520D01*
Y179552D02*
X703924Y181076D01*
X705448D01*
X703924Y182600D01*
X705448Y184124D01*
X703924D01*
X702400Y185648D01*
X700876Y184124D01*
X699352D01*
X700876Y182600D01*
X699352Y181076D01*
X700876D01*
X702400Y179552D01*
X677000Y177520D02*
X679540Y180060D01*
X682080D01*
X679540Y182600D01*
X682080Y185140D01*
X679540D01*
X677000Y187680D01*
X674460Y185140D01*
X671920D01*
X674460Y182600D01*
X671920Y180060D01*
X674460D01*
X677000Y177520D01*
Y179552D02*
X678524Y181076D01*
X680048D01*
X678524Y182600D01*
X680048Y184124D01*
X678524D01*
X677000Y185648D01*
X675476Y184124D01*
X673952D01*
X675476Y182600D01*
X673952Y181076D01*
X675476D01*
X677000Y179552D01*
X931000Y75920D02*
X933540Y78460D01*
X936080D01*
X933540Y81000D01*
X936080Y83540D01*
X933540D01*
X931000Y86080D01*
X928460Y83540D01*
X925920D01*
X928460Y81000D01*
X925920Y78460D01*
X928460D01*
X931000Y75920D01*
Y77952D02*
X932524Y79476D01*
X934048D01*
X932524Y81000D01*
X934048Y82524D01*
X932524D01*
X931000Y84048D01*
X929476Y82524D01*
X927952D01*
X929476Y81000D01*
X927952Y79476D01*
X929476D01*
X931000Y77952D01*
X778600Y75920D02*
X781140Y78460D01*
X783680D01*
X781140Y81000D01*
X783680Y83540D01*
X781140D01*
X778600Y86080D01*
X776060Y83540D01*
X773520D01*
X776060Y81000D01*
X773520Y78460D01*
X776060D01*
X778600Y75920D01*
Y77952D02*
X780124Y79476D01*
X781648D01*
X780124Y81000D01*
X781648Y82524D01*
X780124D01*
X778600Y84048D01*
X777076Y82524D01*
X775552D01*
X777076Y81000D01*
X775552Y79476D01*
X777076D01*
X778600Y77952D01*
X550000Y75920D02*
X552540Y78460D01*
X555080D01*
X552540Y81000D01*
X555080Y83540D01*
X552540D01*
X550000Y86080D01*
X547460Y83540D01*
X544920D01*
X547460Y81000D01*
X544920Y78460D01*
X547460D01*
X550000Y75920D01*
Y77952D02*
X551524Y79476D01*
X553048D01*
X551524Y81000D01*
X553048Y82524D01*
X551524D01*
X550000Y84048D01*
X548476Y82524D01*
X546952D01*
X548476Y81000D01*
X546952Y79476D01*
X548476D01*
X550000Y77952D01*
X524600Y75920D02*
X527140Y78460D01*
X529680D01*
X527140Y81000D01*
X529680Y83540D01*
X527140D01*
X524600Y86080D01*
X522060Y83540D01*
X519520D01*
X522060Y81000D01*
X519520Y78460D01*
X522060D01*
X524600Y75920D01*
Y77952D02*
X526124Y79476D01*
X527648D01*
X526124Y81000D01*
X527648Y82524D01*
X526124D01*
X524600Y84048D01*
X523076Y82524D01*
X521552D01*
X523076Y81000D01*
X521552Y79476D01*
X523076D01*
X524600Y77952D01*
X499200Y75920D02*
X501740Y78460D01*
X504280D01*
X501740Y81000D01*
X504280Y83540D01*
X501740D01*
X499200Y86080D01*
X496660Y83540D01*
X494120D01*
X496660Y81000D01*
X494120Y78460D01*
X496660D01*
X499200Y75920D01*
Y77952D02*
X500724Y79476D01*
X502248D01*
X500724Y81000D01*
X502248Y82524D01*
X500724D01*
X499200Y84048D01*
X497676Y82524D01*
X496152D01*
X497676Y81000D01*
X496152Y79476D01*
X497676D01*
X499200Y77952D01*
X626200Y75920D02*
X628740Y78460D01*
X631280D01*
X628740Y81000D01*
X631280Y83540D01*
X628740D01*
X626200Y86080D01*
X623660Y83540D01*
X621120D01*
X623660Y81000D01*
X621120Y78460D01*
X623660D01*
X626200Y75920D01*
Y77952D02*
X627724Y79476D01*
X629248D01*
X627724Y81000D01*
X629248Y82524D01*
X627724D01*
X626200Y84048D01*
X624676Y82524D01*
X623152D01*
X624676Y81000D01*
X623152Y79476D01*
X624676D01*
X626200Y77952D01*
X600800Y75920D02*
X603340Y78460D01*
X605880D01*
X603340Y81000D01*
X605880Y83540D01*
X603340D01*
X600800Y86080D01*
X598260Y83540D01*
X595720D01*
X598260Y81000D01*
X595720Y78460D01*
X598260D01*
X600800Y75920D01*
Y77952D02*
X602324Y79476D01*
X603848D01*
X602324Y81000D01*
X603848Y82524D01*
X602324D01*
X600800Y84048D01*
X599276Y82524D01*
X597752D01*
X599276Y81000D01*
X597752Y79476D01*
X599276D01*
X600800Y77952D01*
X397600Y75920D02*
X400140Y78460D01*
X402680D01*
X400140Y81000D01*
X402680Y83540D01*
X400140D01*
X397600Y86080D01*
X395060Y83540D01*
X392520D01*
X395060Y81000D01*
X392520Y78460D01*
X395060D01*
X397600Y75920D01*
Y77952D02*
X399124Y79476D01*
X400648D01*
X399124Y81000D01*
X400648Y82524D01*
X399124D01*
X397600Y84048D01*
X396076Y82524D01*
X394552D01*
X396076Y81000D01*
X394552Y79476D01*
X396076D01*
X397600Y77952D01*
X372200Y75920D02*
X374740Y78460D01*
X377280D01*
X374740Y81000D01*
X377280Y83540D01*
X374740D01*
X372200Y86080D01*
X369660Y83540D01*
X367120D01*
X369660Y81000D01*
X367120Y78460D01*
X369660D01*
X372200Y75920D01*
Y77952D02*
X373724Y79476D01*
X375248D01*
X373724Y81000D01*
X375248Y82524D01*
X373724D01*
X372200Y84048D01*
X370676Y82524D01*
X369152D01*
X370676Y81000D01*
X369152Y79476D01*
X370676D01*
X372200Y77952D01*
X448400Y75920D02*
X450940Y78460D01*
X453480D01*
X450940Y81000D01*
X453480Y83540D01*
X450940D01*
X448400Y86080D01*
X445860Y83540D01*
X443320D01*
X445860Y81000D01*
X443320Y78460D01*
X445860D01*
X448400Y75920D01*
Y77952D02*
X449924Y79476D01*
X451448D01*
X449924Y81000D01*
X451448Y82524D01*
X449924D01*
X448400Y84048D01*
X446876Y82524D01*
X445352D01*
X446876Y81000D01*
X445352Y79476D01*
X446876D01*
X448400Y77952D01*
X321400Y75920D02*
X323940Y78460D01*
X326480D01*
X323940Y81000D01*
X326480Y83540D01*
X323940D01*
X321400Y86080D01*
X318860Y83540D01*
X316320D01*
X318860Y81000D01*
X316320Y78460D01*
X318860D01*
X321400Y75920D01*
Y77952D02*
X322924Y79476D01*
X324448D01*
X322924Y81000D01*
X324448Y82524D01*
X322924D01*
X321400Y84048D01*
X319876Y82524D01*
X318352D01*
X319876Y81000D01*
X318352Y79476D01*
X319876D01*
X321400Y77952D01*
X296000Y75920D02*
X298540Y78460D01*
X301080D01*
X298540Y81000D01*
X301080Y83540D01*
X298540D01*
X296000Y86080D01*
X293460Y83540D01*
X290920D01*
X293460Y81000D01*
X290920Y78460D01*
X293460D01*
X296000Y75920D01*
Y77952D02*
X297524Y79476D01*
X299048D01*
X297524Y81000D01*
X299048Y82524D01*
X297524D01*
X296000Y84048D01*
X294476Y82524D01*
X292952D01*
X294476Y81000D01*
X292952Y79476D01*
X294476D01*
X296000Y77952D01*
X270600Y75920D02*
X273140Y78460D01*
X275680D01*
X273140Y81000D01*
X275680Y83540D01*
X273140D01*
X270600Y86080D01*
X268060Y83540D01*
X265520D01*
X268060Y81000D01*
X265520Y78460D01*
X268060D01*
X270600Y75920D01*
Y77952D02*
X272124Y79476D01*
X273648D01*
X272124Y81000D01*
X273648Y82524D01*
X272124D01*
X270600Y84048D01*
X269076Y82524D01*
X267552D01*
X269076Y81000D01*
X267552Y79476D01*
X269076D01*
X270600Y77952D01*
X169000Y75920D02*
X171540Y78460D01*
X174080D01*
X171540Y81000D01*
X174080Y83540D01*
X171540D01*
X169000Y86080D01*
X166460Y83540D01*
X163920D01*
X166460Y81000D01*
X163920Y78460D01*
X166460D01*
X169000Y75920D01*
Y77952D02*
X170524Y79476D01*
X172048D01*
X170524Y81000D01*
X172048Y82524D01*
X170524D01*
X169000Y84048D01*
X167476Y82524D01*
X165952D01*
X167476Y81000D01*
X165952Y79476D01*
X167476D01*
X169000Y77952D01*
X194400Y75920D02*
X196940Y78460D01*
X199480D01*
X196940Y81000D01*
X199480Y83540D01*
X196940D01*
X194400Y86080D01*
X191860Y83540D01*
X189320D01*
X191860Y81000D01*
X189320Y78460D01*
X191860D01*
X194400Y75920D01*
Y77952D02*
X195924Y79476D01*
X197448D01*
X195924Y81000D01*
X197448Y82524D01*
X195924D01*
X194400Y84048D01*
X192876Y82524D01*
X191352D01*
X192876Y81000D01*
X191352Y79476D01*
X192876D01*
X194400Y77952D01*
X219800Y75920D02*
X222340Y78460D01*
X224880D01*
X222340Y81000D01*
X224880Y83540D01*
X222340D01*
X219800Y86080D01*
X217260Y83540D01*
X214720D01*
X217260Y81000D01*
X214720Y78460D01*
X217260D01*
X219800Y75920D01*
Y77952D02*
X221324Y79476D01*
X222848D01*
X221324Y81000D01*
X222848Y82524D01*
X221324D01*
X219800Y84048D01*
X218276Y82524D01*
X216752D01*
X218276Y81000D01*
X216752Y79476D01*
X218276D01*
X219800Y77952D01*
X727800Y75920D02*
X730340Y78460D01*
X732880D01*
X730340Y81000D01*
X732880Y83540D01*
X730340D01*
X727800Y86080D01*
X725260Y83540D01*
X722720D01*
X725260Y81000D01*
X722720Y78460D01*
X725260D01*
X727800Y75920D01*
Y77952D02*
X729324Y79476D01*
X730848D01*
X729324Y81000D01*
X730848Y82524D01*
X729324D01*
X727800Y84048D01*
X726276Y82524D01*
X724752D01*
X726276Y81000D01*
X724752Y79476D01*
X726276D01*
X727800Y77952D01*
X702400Y75920D02*
X704940Y78460D01*
X707480D01*
X704940Y81000D01*
X707480Y83540D01*
X704940D01*
X702400Y86080D01*
X699860Y83540D01*
X697320D01*
X699860Y81000D01*
X697320Y78460D01*
X699860D01*
X702400Y75920D01*
Y77952D02*
X703924Y79476D01*
X705448D01*
X703924Y81000D01*
X705448Y82524D01*
X703924D01*
X702400Y84048D01*
X700876Y82524D01*
X699352D01*
X700876Y81000D01*
X699352Y79476D01*
X700876D01*
X702400Y77952D01*
X677000Y75920D02*
X679540Y78460D01*
X682080D01*
X679540Y81000D01*
X682080Y83540D01*
X679540D01*
X677000Y86080D01*
X674460Y83540D01*
X671920D01*
X674460Y81000D01*
X671920Y78460D01*
X674460D01*
X677000Y75920D01*
Y77952D02*
X678524Y79476D01*
X680048D01*
X678524Y81000D01*
X680048Y82524D01*
X678524D01*
X677000Y84048D01*
X675476Y82524D01*
X673952D01*
X675476Y81000D01*
X673952Y79476D01*
X675476D01*
X677000Y77952D01*
X829400Y75920D02*
X831940Y78460D01*
X834480D01*
X831940Y81000D01*
X834480Y83540D01*
X831940D01*
X829400Y86080D01*
X826860Y83540D01*
X824320D01*
X826860Y81000D01*
X824320Y78460D01*
X826860D01*
X829400Y75920D01*
Y77952D02*
X830924Y79476D01*
X832448D01*
X830924Y81000D01*
X832448Y82524D01*
X830924D01*
X829400Y84048D01*
X827876Y82524D01*
X826352D01*
X827876Y81000D01*
X826352Y79476D01*
X827876D01*
X829400Y77952D01*
X854800Y75920D02*
X857340Y78460D01*
X859880D01*
X857340Y81000D01*
X859880Y83540D01*
X857340D01*
X854800Y86080D01*
X852260Y83540D01*
X849720D01*
X852260Y81000D01*
X849720Y78460D01*
X852260D01*
X854800Y75920D01*
Y77952D02*
X856324Y79476D01*
X857848D01*
X856324Y81000D01*
X857848Y82524D01*
X856324D01*
X854800Y84048D01*
X853276Y82524D01*
X851752D01*
X853276Y81000D01*
X851752Y79476D01*
X853276D01*
X854800Y77952D01*
X880200Y75920D02*
X882740Y78460D01*
X885280D01*
X882740Y81000D01*
X885280Y83540D01*
X882740D01*
X880200Y86080D01*
X877660Y83540D01*
X875120D01*
X877660Y81000D01*
X875120Y78460D01*
X877660D01*
X880200Y75920D01*
Y77952D02*
X881724Y79476D01*
X883248D01*
X881724Y81000D01*
X883248Y82524D01*
X881724D01*
X880200Y84048D01*
X878676Y82524D01*
X877152D01*
X878676Y81000D01*
X877152Y79476D01*
X878676D01*
X880200Y77952D01*
X174080Y416280D02*
X169000Y426440D01*
X179160D01*
X174080Y416280D01*
Y418312D02*
X171032Y424408D01*
X177128D01*
X174080Y418312D01*
X186780Y416280D02*
X181700Y426440D01*
X191860D01*
X186780Y416280D01*
Y418312D02*
X183732Y424408D01*
X189828D01*
X186780Y418312D01*
X199480Y416280D02*
X194400Y426440D01*
X204560D01*
X199480Y416280D01*
Y418312D02*
X196432Y424408D01*
X202528D01*
X199480Y418312D01*
X900520Y416280D02*
X895440Y426440D01*
X905600D01*
X900520Y416280D01*
Y418312D02*
X897472Y424408D01*
X903568D01*
X900520Y418312D01*
X913220Y416280D02*
X908140Y426440D01*
X918300D01*
X913220Y416280D01*
Y418312D02*
X910172Y424408D01*
X916268D01*
X913220Y418312D01*
X925920Y416280D02*
X920840Y426440D01*
X931000D01*
X925920Y416280D01*
Y418312D02*
X922872Y424408D01*
X928968D01*
X925920Y418312D01*
X1039747Y388913D02*
X1034667Y399073D01*
X1044827D01*
X1039747Y388913D01*
Y390946D02*
X1036699Y397042D01*
X1042795D01*
X1039747Y390946D01*
X697320Y454380D02*
X692240Y464540D01*
X702400D01*
X697320Y454380D01*
Y456412D02*
X694272Y462508D01*
X700368D01*
X697320Y456412D01*
X710020Y454380D02*
X704940Y464540D01*
X715100D01*
X710020Y454380D01*
Y456412D02*
X706972Y462508D01*
X713068D01*
X710020Y456412D01*
Y467080D02*
X704940Y477240D01*
X715100D01*
X710020Y467080D01*
Y469112D02*
X706972Y475208D01*
X713068D01*
X710020Y469112D01*
X697320Y467080D02*
X692240Y477240D01*
X702400D01*
X697320Y467080D01*
Y469112D02*
X694272Y475208D01*
X700368D01*
X697320Y469112D01*
X389980Y454380D02*
X384900Y464540D01*
X395060D01*
X389980Y454380D01*
Y456412D02*
X386932Y462508D01*
X393028D01*
X389980Y456412D01*
X402680Y454380D02*
X397600Y464540D01*
X407760D01*
X402680Y454380D01*
Y456412D02*
X399632Y462508D01*
X405728D01*
X402680Y456412D01*
Y467080D02*
X397600Y477240D01*
X407760D01*
X402680Y467080D01*
Y469112D02*
X399632Y475208D01*
X405728D01*
X402680Y469112D01*
X389980Y467080D02*
X384900Y477240D01*
X395060D01*
X389980Y467080D01*
Y469112D02*
X386932Y475208D01*
X393028D01*
X389980Y469112D01*
X913220Y342620D02*
X908140Y352780D01*
X918300D01*
X913220Y342620D01*
Y344652D02*
X910172Y350748D01*
X916268D01*
X913220Y344652D01*
X900520Y342620D02*
X895440Y352780D01*
X905600D01*
X900520Y342620D01*
Y344652D02*
X897472Y350748D01*
X903568D01*
X900520Y344652D01*
X199480Y342620D02*
X194400Y352780D01*
X204560D01*
X199480Y342620D01*
Y344652D02*
X196432Y350748D01*
X202528D01*
X199480Y344652D01*
X186780Y342620D02*
X181700Y352780D01*
X191860D01*
X186780Y342620D01*
Y344652D02*
X183732Y350748D01*
X189828D01*
X186780Y344652D01*
X166255Y449505D02*
X168795Y452045D01*
X171335D01*
X168795Y454585D01*
X171335Y457125D01*
X168795D01*
X166255Y459665D01*
X163715Y457125D01*
X161175D01*
X163715Y454585D01*
X161175Y452045D01*
X163715D01*
X166255Y449505D01*
Y520215D02*
X168795Y522755D01*
X171335D01*
X168795Y525295D01*
X171335Y527835D01*
X168795D01*
X166255Y530375D01*
X163715Y527835D01*
X161175D01*
X163715Y525295D01*
X161175Y522755D01*
X163715D01*
X166255Y520215D01*
X95545D02*
X98085Y522755D01*
X100625D01*
X98085Y525295D01*
X100625Y527835D01*
X98085D01*
X95545Y530375D01*
X93005Y527835D01*
X90465D01*
X93005Y525295D01*
X90465Y522755D01*
X93005D01*
X95545Y520215D01*
Y449505D02*
X98085Y452045D01*
X100625D01*
X98085Y454585D01*
X100625Y457125D01*
X98085D01*
X95545Y459665D01*
X93005Y457125D01*
X90465D01*
X93005Y454585D01*
X90465Y452045D01*
X93005D01*
X95545Y449505D01*
X130900Y434860D02*
X133440Y437400D01*
X135980D01*
X133440Y439940D01*
X135980Y442480D01*
X133440D01*
X130900Y445020D01*
X128360Y442480D01*
X125820D01*
X128360Y439940D01*
X125820Y437400D01*
X128360D01*
X130900Y434860D01*
X180900Y484860D02*
X183440Y487400D01*
X185980D01*
X183440Y489940D01*
X185980Y492480D01*
X183440D01*
X180900Y495020D01*
X178360Y492480D01*
X175820D01*
X178360Y489940D01*
X175820Y487400D01*
X178360D01*
X180900Y484860D01*
X130900Y534860D02*
X133440Y537400D01*
X135980D01*
X133440Y539940D01*
X135980Y542480D01*
X133440D01*
X130900Y545020D01*
X128360Y542480D01*
X125820D01*
X128360Y539940D01*
X125820Y537400D01*
X128360D01*
X130900Y534860D01*
X80900Y484860D02*
X83440Y487400D01*
X85980D01*
X83440Y489940D01*
X85980Y492480D01*
X83440D01*
X80900Y495020D01*
X78360Y492480D01*
X75820D01*
X78360Y489940D01*
X75820Y487400D01*
X78360D01*
X80900Y484860D01*
X1004455Y520215D02*
X1006995Y522755D01*
X1009535D01*
X1006995Y525295D01*
X1009535Y527835D01*
X1006995D01*
X1004455Y530375D01*
X1001915Y527835D01*
X999375D01*
X1001915Y525295D01*
X999375Y522755D01*
X1001915D01*
X1004455Y520215D01*
X933745D02*
X936285Y522755D01*
X938825D01*
X936285Y525295D01*
X938825Y527835D01*
X936285D01*
X933745Y530375D01*
X931205Y527835D01*
X928665D01*
X931205Y525295D01*
X928665Y522755D01*
X931205D01*
X933745Y520215D01*
Y449505D02*
X936285Y452045D01*
X938825D01*
X936285Y454585D01*
X938825Y457125D01*
X936285D01*
X933745Y459665D01*
X931205Y457125D01*
X928665D01*
X931205Y454585D01*
X928665Y452045D01*
X931205D01*
X933745Y449505D01*
X1004455D02*
X1006995Y452045D01*
X1009535D01*
X1006995Y454585D01*
X1009535Y457125D01*
X1006995D01*
X1004455Y459665D01*
X1001915Y457125D01*
X999375D01*
X1001915Y454585D01*
X999375Y452045D01*
X1001915D01*
X1004455Y449505D01*
X1019100Y484860D02*
X1021640Y487400D01*
X1024180D01*
X1021640Y489940D01*
X1024180Y492480D01*
X1021640D01*
X1019100Y495020D01*
X1016560Y492480D01*
X1014020D01*
X1016560Y489940D01*
X1014020Y487400D01*
X1016560D01*
X1019100Y484860D01*
X969100Y534860D02*
X971640Y537400D01*
X974180D01*
X971640Y539940D01*
X974180Y542480D01*
X971640D01*
X969100Y545020D01*
X966560Y542480D01*
X964020D01*
X966560Y539940D01*
X964020Y537400D01*
X966560D01*
X969100Y534860D01*
X919100Y484860D02*
X921640Y487400D01*
X924180D01*
X921640Y489940D01*
X924180Y492480D01*
X921640D01*
X919100Y495020D01*
X916560Y492480D01*
X914020D01*
X916560Y489940D01*
X914020Y487400D01*
X916560D01*
X919100Y484860D01*
X969100Y434860D02*
X971640Y437400D01*
X974180D01*
X971640Y439940D01*
X974180Y442480D01*
X971640D01*
X969100Y445020D01*
X966560Y442480D01*
X964020D01*
X966560Y439940D01*
X964020Y437400D01*
X966560D01*
X969100Y434860D01*
X1004455Y329715D02*
X1006995Y332255D01*
X1009535D01*
X1006995Y334795D01*
X1009535Y337335D01*
X1006995D01*
X1004455Y339875D01*
X1001915Y337335D01*
X999375D01*
X1001915Y334795D01*
X999375Y332255D01*
X1001915D01*
X1004455Y329715D01*
X933745D02*
X936285Y332255D01*
X938825D01*
X936285Y334795D01*
X938825Y337335D01*
X936285D01*
X933745Y339875D01*
X931205Y337335D01*
X928665D01*
X931205Y334795D01*
X928665Y332255D01*
X931205D01*
X933745Y329715D01*
Y259005D02*
X936285Y261545D01*
X938825D01*
X936285Y264085D01*
X938825Y266625D01*
X936285D01*
X933745Y269165D01*
X931205Y266625D01*
X928665D01*
X931205Y264085D01*
X928665Y261545D01*
X931205D01*
X933745Y259005D01*
X1004455D02*
X1006995Y261545D01*
X1009535D01*
X1006995Y264085D01*
X1009535Y266625D01*
X1006995D01*
X1004455Y269165D01*
X1001915Y266625D01*
X999375D01*
X1001915Y264085D01*
X999375Y261545D01*
X1001915D01*
X1004455Y259005D01*
X1019100Y294360D02*
X1021640Y296900D01*
X1024180D01*
X1021640Y299440D01*
X1024180Y301980D01*
X1021640D01*
X1019100Y304520D01*
X1016560Y301980D01*
X1014020D01*
X1016560Y299440D01*
X1014020Y296900D01*
X1016560D01*
X1019100Y294360D01*
X969100Y344360D02*
X971640Y346900D01*
X974180D01*
X971640Y349440D01*
X974180Y351980D01*
X971640D01*
X969100Y354520D01*
X966560Y351980D01*
X964020D01*
X966560Y349440D01*
X964020Y346900D01*
X966560D01*
X969100Y344360D01*
X919100Y294360D02*
X921640Y296900D01*
X924180D01*
X921640Y299440D01*
X924180Y301980D01*
X921640D01*
X919100Y304520D01*
X916560Y301980D01*
X914020D01*
X916560Y299440D01*
X914020Y296900D01*
X916560D01*
X919100Y294360D01*
X969100Y244360D02*
X971640Y246900D01*
X974180D01*
X971640Y249440D01*
X974180Y251980D01*
X971640D01*
X969100Y254520D01*
X966560Y251980D01*
X964020D01*
X966560Y249440D01*
X964020Y246900D01*
X966560D01*
X969100Y244360D01*
X166255Y259005D02*
X168795Y261545D01*
X171335D01*
X168795Y264085D01*
X171335Y266625D01*
X168795D01*
X166255Y269165D01*
X163715Y266625D01*
X161175D01*
X163715Y264085D01*
X161175Y261545D01*
X163715D01*
X166255Y259005D01*
Y329715D02*
X168795Y332255D01*
X171335D01*
X168795Y334795D01*
X171335Y337335D01*
X168795D01*
X166255Y339875D01*
X163715Y337335D01*
X161175D01*
X163715Y334795D01*
X161175Y332255D01*
X163715D01*
X166255Y329715D01*
X95545D02*
X98085Y332255D01*
X100625D01*
X98085Y334795D01*
X100625Y337335D01*
X98085D01*
X95545Y339875D01*
X93005Y337335D01*
X90465D01*
X93005Y334795D01*
X90465Y332255D01*
X93005D01*
X95545Y329715D01*
Y259005D02*
X98085Y261545D01*
X100625D01*
X98085Y264085D01*
X100625Y266625D01*
X98085D01*
X95545Y269165D01*
X93005Y266625D01*
X90465D01*
X93005Y264085D01*
X90465Y261545D01*
X93005D01*
X95545Y259005D01*
X130900Y244360D02*
X133440Y246900D01*
X135980D01*
X133440Y249440D01*
X135980Y251980D01*
X133440D01*
X130900Y254520D01*
X128360Y251980D01*
X125820D01*
X128360Y249440D01*
X125820Y246900D01*
X128360D01*
X130900Y244360D01*
X180900Y294360D02*
X183440Y296900D01*
X185980D01*
X183440Y299440D01*
X185980Y301980D01*
X183440D01*
X180900Y304520D01*
X178360Y301980D01*
X175820D01*
X178360Y299440D01*
X175820Y296900D01*
X178360D01*
X180900Y294360D01*
X130900Y344360D02*
X133440Y346900D01*
X135980D01*
X133440Y349440D01*
X135980Y351980D01*
X133440D01*
X130900Y354520D01*
X128360Y351980D01*
X125820D01*
X128360Y349440D01*
X125820Y346900D01*
X128360D01*
X130900Y344360D01*
X80900Y294360D02*
X83440Y296900D01*
X85980D01*
X83440Y299440D01*
X85980Y301980D01*
X83440D01*
X80900Y304520D01*
X78360Y301980D01*
X75820D01*
X78360Y299440D01*
X75820Y296900D01*
X78360D01*
X80900Y294360D01*
X654140Y484860D02*
X649060Y495020D01*
X659220D01*
X654140Y484860D01*
Y486892D02*
X651092Y492988D01*
X657188D01*
X654140Y486892D01*
Y472160D02*
X649060Y482320D01*
X659220D01*
X654140Y472160D01*
Y474192D02*
X651092Y480288D01*
X657188D01*
X654140Y474192D01*
Y459460D02*
X649060Y469620D01*
X659220D01*
X654140Y459460D01*
Y461492D02*
X651092Y467588D01*
X657188D01*
X654140Y461492D01*
X642710Y484860D02*
X637630Y495020D01*
X647790D01*
X642710Y484860D01*
Y486892D02*
X639662Y492988D01*
X645758D01*
X642710Y486892D01*
X631280Y484860D02*
X626200Y495020D01*
X636360D01*
X631280Y484860D01*
Y486892D02*
X628232Y492988D01*
X634328D01*
X631280Y486892D01*
Y472160D02*
X626200Y482320D01*
X636360D01*
X631280Y472160D01*
Y474192D02*
X628232Y480288D01*
X634328D01*
X631280Y474192D01*
X642710Y472160D02*
X637630Y482320D01*
X647790D01*
X642710Y472160D01*
Y474192D02*
X639662Y480288D01*
X645758D01*
X642710Y474192D01*
Y459460D02*
X637630Y469620D01*
X647790D01*
X642710Y459460D01*
Y461492D02*
X639662Y467588D01*
X645758D01*
X642710Y461492D01*
X631280Y459460D02*
X626200Y469620D01*
X636360D01*
X631280Y459460D01*
Y461492D02*
X628232Y467588D01*
X634328D01*
X631280Y461492D01*
X144870Y134340D02*
X139790Y144500D01*
X149950D01*
X144870Y134340D01*
Y136372D02*
X141822Y142468D01*
X147918D01*
X144870Y136372D01*
X488405Y251815D02*
X483325Y261975D01*
X493485D01*
X488405Y251815D01*
Y253847D02*
X485357Y259943D01*
X491453D01*
X488405Y253847D01*
X506820Y213080D02*
X509360Y215620D01*
X511900D01*
X509360Y218160D01*
X511900Y220700D01*
X509360D01*
X506820Y223240D01*
X504280Y220700D01*
X501740D01*
X504280Y218160D01*
X501740Y215620D01*
X504280D01*
X506820Y213080D01*
X644891Y254990D02*
X639811Y265150D01*
X649971D01*
X644891Y254990D01*
Y257022D02*
X641843Y263118D01*
X647939D01*
X644891Y257022D01*
X636909Y254990D02*
X631829Y265150D01*
X641989D01*
X636909Y254990D01*
Y257022D02*
X633861Y263118D01*
X639957D01*
X636909Y257022D01*
X435700Y428980D02*
X430620Y439140D01*
X440780D01*
X435700Y428980D01*
Y431012D02*
X432652Y437108D01*
X438748D01*
X435700Y431012D01*
X425540Y428980D02*
X420460Y439140D01*
X430620D01*
X425540Y428980D01*
Y431012D02*
X422492Y437108D01*
X428588D01*
X425540Y431012D01*
X463091Y254990D02*
X458011Y265150D01*
X468171D01*
X463091Y254990D01*
Y257022D02*
X460043Y263118D01*
X466139D01*
X463091Y257022D01*
X455109Y254990D02*
X450029Y265150D01*
X460189D01*
X455109Y254990D01*
Y257022D02*
X452061Y263118D01*
X458157D01*
X455109Y257022D01*
X721450Y188950D02*
X716370Y199110D01*
X726530D01*
X721450Y188950D01*
Y190982D02*
X718402Y197078D01*
X724498D01*
X721450Y190982D01*
X720180Y176250D02*
X715100Y186410D01*
X725260D01*
X720180Y176250D01*
Y178282D02*
X717132Y184378D01*
X723228D01*
X720180Y178282D01*
X659220Y177520D02*
X654140Y187680D01*
X664300D01*
X659220Y177520D01*
Y179552D02*
X656172Y185648D01*
X662268D01*
X659220Y179552D01*
X829400Y138150D02*
X824320Y148310D01*
X834480D01*
X829400Y138150D01*
Y140182D02*
X826352Y146278D01*
X832448D01*
X829400Y140182D01*
X661760Y157200D02*
X656680Y167360D01*
X666840D01*
X661760Y157200D01*
Y159232D02*
X658712Y165328D01*
X664808D01*
X661760Y159232D01*
X706210Y114020D02*
X701130Y124180D01*
X711290D01*
X706210Y114020D01*
Y116052D02*
X703162Y122148D01*
X709258D01*
X706210Y116052D01*
X933540Y119100D02*
X928460Y129260D01*
X938620D01*
X933540Y119100D01*
Y121132D02*
X930492Y127228D01*
X936588D01*
X933540Y121132D01*
X778600Y119100D02*
X773520Y129260D01*
X783680D01*
X778600Y119100D01*
Y121132D02*
X775552Y127228D01*
X781648D01*
X778600Y121132D01*
X829400Y119100D02*
X824320Y129260D01*
X834480D01*
X829400Y119100D01*
Y121132D02*
X826352Y127228D01*
X832448D01*
X829400Y121132D01*
X880200Y119100D02*
X875120Y129260D01*
X885280D01*
X880200Y119100D01*
Y121132D02*
X877152Y127228D01*
X883248D01*
X880200Y121132D01*
X514440Y111480D02*
X509360Y121640D01*
X519520D01*
X514440Y111480D01*
Y113512D02*
X511392Y119608D01*
X517488D01*
X514440Y113512D01*
X486500Y147040D02*
X481420Y157200D01*
X491580D01*
X486500Y147040D01*
Y149072D02*
X483452Y155168D01*
X489548D01*
X486500Y149072D01*
X494120Y108940D02*
X489040Y119100D01*
X499200D01*
X494120Y108940D01*
Y110972D02*
X491072Y117068D01*
X497168D01*
X494120Y110972D01*
X423000Y103860D02*
X417920Y114020D01*
X428080D01*
X423000Y103860D01*
Y105892D02*
X419952Y111988D01*
X426048D01*
X423000Y105892D01*
X350011Y103875D02*
X344931Y114035D01*
X355091D01*
X350011Y103875D01*
Y105907D02*
X346963Y112003D01*
X353059D01*
X350011Y105907D01*
X349340Y134340D02*
X344260Y144500D01*
X354420D01*
X349340Y134340D01*
Y136372D02*
X346292Y142468D01*
X352388D01*
X349340Y136372D01*
X161380Y106400D02*
X156300Y116560D01*
X166460D01*
X161380Y106400D01*
Y108432D02*
X158332Y114528D01*
X164428D01*
X161380Y108432D01*
X214720Y134340D02*
X209640Y144500D01*
X219800D01*
X214720Y134340D01*
Y136372D02*
X211672Y142468D01*
X217768D01*
X214720Y136372D01*
X527140Y233400D02*
X529680Y235940D01*
X532220D01*
X529680Y238480D01*
X532220Y241020D01*
X529680D01*
X527140Y243560D01*
X524600Y241020D01*
X522060D01*
X524600Y238480D01*
X522060Y235940D01*
X524600D01*
X527140Y233400D01*
X572860D02*
X575400Y235940D01*
X577940D01*
X575400Y238480D01*
X577940Y241020D01*
X575400D01*
X572860Y243560D01*
X570320Y241020D01*
X567780D01*
X570320Y238480D01*
X567780Y235940D01*
X570320D01*
X572860Y233400D01*
X550000Y218476D02*
X544920Y228636D01*
X555080D01*
X550000Y218476D01*
Y220508D02*
X546952Y226604D01*
X553048D01*
X550000Y220508D01*
X557778Y210698D02*
X552698Y220858D01*
X562858D01*
X557778Y210698D01*
Y212730D02*
X554730Y218826D01*
X560826D01*
X557778Y212730D01*
X565556Y202920D02*
X560476Y213080D01*
X570636D01*
X565556Y202920D01*
Y204952D02*
X562508Y211048D01*
X568604D01*
X565556Y204952D01*
X550000Y187364D02*
X544920Y197524D01*
X555080D01*
X550000Y187364D01*
Y189396D02*
X546952Y195492D01*
X553048D01*
X550000Y189396D01*
X542222Y195142D02*
X537142Y205302D01*
X547302D01*
X542222Y195142D01*
Y197174D02*
X539174Y203270D01*
X545270D01*
X542222Y197174D01*
X534444Y202920D02*
X529364Y213080D01*
X539524D01*
X534444Y202920D01*
Y204952D02*
X531396Y211048D01*
X537492D01*
X534444Y204952D01*
X550000Y202920D02*
X544920Y213080D01*
X555080D01*
X550000Y202920D01*
Y204952D02*
X546952Y211048D01*
X553048D01*
X550000Y204952D01*
X542222Y210698D02*
X537142Y220858D01*
X547302D01*
X542222Y210698D01*
Y212730D02*
X539174Y218826D01*
X545270D01*
X542222Y212730D01*
X557778Y195142D02*
X552698Y205302D01*
X562858D01*
X557778Y195142D01*
Y197174D02*
X554730Y203270D01*
X560826D01*
X557778Y197174D01*
X616040Y159740D02*
X610960Y169900D01*
X621120D01*
X616040Y159740D01*
Y161772D02*
X612992Y167868D01*
X619088D01*
X616040Y161772D01*
X607150Y368020D02*
X602070Y378180D01*
X612230D01*
X607150Y368020D01*
Y370052D02*
X604102Y376148D01*
X610198D01*
X607150Y370052D01*
X708750Y91160D02*
X703670Y101320D01*
X713830D01*
X708750Y91160D01*
Y93192D02*
X705702Y99288D01*
X711798D01*
X708750Y93192D01*
X562700Y114020D02*
X557620Y124180D01*
X567780D01*
X562700Y114020D01*
Y116052D02*
X559652Y122148D01*
X565748D01*
X562700Y116052D01*
X550000Y126720D02*
X544920Y136880D01*
X555080D01*
X550000Y126720D01*
Y128752D02*
X546952Y134848D01*
X553048D01*
X550000Y128752D01*
Y114020D02*
X544920Y124180D01*
X555080D01*
X550000Y114020D01*
Y116052D02*
X546952Y122148D01*
X553048D01*
X550000Y116052D01*
X537300Y126720D02*
X532220Y136880D01*
X542380D01*
X537300Y126720D01*
Y128752D02*
X534252Y134848D01*
X540348D01*
X537300Y128752D01*
X447130Y182600D02*
X442050Y192760D01*
X452210D01*
X447130Y182600D01*
Y184632D02*
X444082Y190728D01*
X450178D01*
X447130Y184632D01*
X556350Y252450D02*
X551270Y262610D01*
X561430D01*
X556350Y252450D01*
Y254482D02*
X553302Y260578D01*
X559398D01*
X556350Y254482D01*
X487770Y183870D02*
X482690Y194030D01*
X492850D01*
X487770Y183870D01*
Y185902D02*
X484722Y191998D01*
X490818D01*
X487770Y185902D01*
X431890Y187680D02*
X426810Y197840D01*
X436970D01*
X431890Y187680D01*
Y189712D02*
X428842Y195808D01*
X434938D01*
X431890Y189712D01*
X401410Y187680D02*
X396330Y197840D01*
X406490D01*
X401410Y187680D01*
Y189712D02*
X398362Y195808D01*
X404458D01*
X401410Y189712D01*
X1035140Y154660D02*
X1030060Y164820D01*
X1040220D01*
X1035140Y154660D01*
Y156692D02*
X1032092Y162788D01*
X1038188D01*
X1035140Y156692D01*
X562700Y152120D02*
X557620Y162280D01*
X567780D01*
X562700Y152120D01*
Y154152D02*
X559652Y160248D01*
X565748D01*
X562700Y154152D01*
X575400Y139420D02*
X570320Y149580D01*
X580480D01*
X575400Y139420D01*
Y141452D02*
X572352Y147548D01*
X578448D01*
X575400Y141452D01*
X588100Y126720D02*
X583020Y136880D01*
X593180D01*
X588100Y126720D01*
Y128752D02*
X585052Y134848D01*
X591148D01*
X588100Y128752D01*
X669380Y390880D02*
X664300Y401040D01*
X674460D01*
X669380Y390880D01*
Y392912D02*
X666332Y399008D01*
X672428D01*
X669380Y392912D01*
X593180Y213080D02*
X595720Y215620D01*
X598260D01*
X595720Y218160D01*
X598260Y220700D01*
X595720D01*
X593180Y223240D01*
X590640Y220700D01*
X588100D01*
X590640Y218160D01*
X588100Y215620D01*
X590640D01*
X593180Y213080D01*
X626200Y390880D02*
X621120Y401040D01*
X631280D01*
X626200Y390880D01*
Y392912D02*
X623152Y399008D01*
X629248D01*
X626200Y392912D01*
X638900Y390880D02*
X633820Y401040D01*
X643980D01*
X638900Y390880D01*
Y392912D02*
X635852Y399008D01*
X641948D01*
X638900Y392912D01*
X483960Y390880D02*
X478880Y401040D01*
X489040D01*
X483960Y390880D01*
Y392912D02*
X480912Y399008D01*
X487008D01*
X483960Y392912D01*
X598260Y383260D02*
X593180Y393420D01*
X603340D01*
X598260Y383260D01*
Y385292D02*
X595212Y391388D01*
X601308D01*
X598260Y385292D01*
X674460Y428980D02*
X669380Y439140D01*
X679540D01*
X674460Y428980D01*
Y431012D02*
X671412Y437108D01*
X677508D01*
X674460Y431012D01*
X664300Y428980D02*
X659220Y439140D01*
X669380D01*
X664300Y428980D01*
Y431012D02*
X661252Y437108D01*
X667348D01*
X664300Y431012D01*
X595720Y261340D02*
X590640Y271500D01*
X600800D01*
X595720Y261340D01*
Y263372D02*
X592672Y269468D01*
X598768D01*
X595720Y263372D01*
X514440Y274040D02*
X509360Y284200D01*
X519520D01*
X514440Y274040D01*
Y276072D02*
X511392Y282168D01*
X517488D01*
X514440Y276072D01*
X457290Y390880D02*
X452210Y401040D01*
X462370D01*
X457290Y390880D01*
Y392912D02*
X454242Y399008D01*
X460338D01*
X457290Y392912D01*
X430620Y390880D02*
X425540Y401040D01*
X435700D01*
X430620Y390880D01*
Y392912D02*
X427572Y399008D01*
X433668D01*
X430620Y392912D01*
X638900Y406120D02*
X633820Y416280D01*
X643980D01*
X638900Y406120D01*
Y408152D02*
X635852Y414248D01*
X641948D01*
X638900Y408152D01*
X626200Y406120D02*
X621120Y416280D01*
X631280D01*
X626200Y406120D01*
Y408152D02*
X623152Y414248D01*
X629248D01*
X626200Y408152D01*
X478880Y406120D02*
X473800Y416280D01*
X483960D01*
X478880Y406120D01*
Y408152D02*
X475832Y414248D01*
X481928D01*
X478880Y408152D01*
X466180Y406120D02*
X461100Y416280D01*
X471260D01*
X466180Y406120D01*
Y408152D02*
X463132Y414248D01*
X469228D01*
X466180Y408152D01*
X567780Y478510D02*
X562700Y488670D01*
X572860D01*
X567780Y478510D01*
Y480542D02*
X564732Y486638D01*
X570828D01*
X567780Y480542D01*
X580480Y478510D02*
X575400Y488670D01*
X585560D01*
X580480Y478510D01*
Y480542D02*
X577432Y486638D01*
X583528D01*
X580480Y480542D01*
Y491210D02*
X575400Y501370D01*
X585560D01*
X580480Y491210D01*
Y493242D02*
X577432Y499338D01*
X583528D01*
X580480Y493242D01*
X567780Y491210D02*
X562700Y501370D01*
X572860D01*
X567780Y491210D01*
Y493242D02*
X564732Y499338D01*
X570828D01*
X567780Y493242D01*
Y503910D02*
X562700Y514070D01*
X572860D01*
X567780Y503910D01*
Y505942D02*
X564732Y512038D01*
X570828D01*
X567780Y505942D01*
X580480Y503910D02*
X575400Y514070D01*
X585560D01*
X580480Y503910D01*
Y505942D02*
X577432Y512038D01*
X583528D01*
X580480Y505942D01*
X593180Y478510D02*
X588100Y488670D01*
X598260D01*
X593180Y478510D01*
Y480542D02*
X590132Y486638D01*
X596228D01*
X593180Y480542D01*
Y491210D02*
X588100Y501370D01*
X598260D01*
X593180Y491210D01*
Y493242D02*
X590132Y499338D01*
X596228D01*
X593180Y493242D01*
Y503910D02*
X588100Y514070D01*
X598260D01*
X593180Y503910D01*
Y505942D02*
X590132Y512038D01*
X596228D01*
X593180Y505942D01*
X506820Y478510D02*
X501740Y488670D01*
X511900D01*
X506820Y478510D01*
Y480542D02*
X503772Y486638D01*
X509868D01*
X506820Y480542D01*
X519520Y478510D02*
X514440Y488670D01*
X524600D01*
X519520Y478510D01*
Y480542D02*
X516472Y486638D01*
X522568D01*
X519520Y480542D01*
Y491210D02*
X514440Y501370D01*
X524600D01*
X519520Y491210D01*
Y493242D02*
X516472Y499338D01*
X522568D01*
X519520Y493242D01*
X506820Y491210D02*
X501740Y501370D01*
X511900D01*
X506820Y491210D01*
Y493242D02*
X503772Y499338D01*
X509868D01*
X506820Y493242D01*
Y503910D02*
X501740Y514070D01*
X511900D01*
X506820Y503910D01*
Y505942D02*
X503772Y512038D01*
X509868D01*
X506820Y505942D01*
X519520Y503910D02*
X514440Y514070D01*
X524600D01*
X519520Y503910D01*
Y505942D02*
X516472Y512038D01*
X522568D01*
X519520Y505942D01*
X532220Y478510D02*
X527140Y488670D01*
X537300D01*
X532220Y478510D01*
Y480542D02*
X529172Y486638D01*
X535268D01*
X532220Y480542D01*
Y491210D02*
X527140Y501370D01*
X537300D01*
X532220Y491210D01*
Y493242D02*
X529172Y499338D01*
X535268D01*
X532220Y493242D01*
Y503910D02*
X527140Y514070D01*
X537300D01*
X532220Y503910D01*
Y505942D02*
X529172Y512038D01*
X535268D01*
X532220Y505942D01*
X445860Y460730D02*
X440780Y470890D01*
X450940D01*
X445860Y460730D01*
Y462762D02*
X442812Y468858D01*
X448908D01*
X445860Y462762D01*
X458560Y460730D02*
X453480Y470890D01*
X463640D01*
X458560Y460730D01*
Y462762D02*
X455512Y468858D01*
X461608D01*
X458560Y462762D01*
Y473430D02*
X453480Y483590D01*
X463640D01*
X458560Y473430D01*
Y475462D02*
X455512Y481558D01*
X461608D01*
X458560Y475462D01*
X445860Y473430D02*
X440780Y483590D01*
X450940D01*
X445860Y473430D01*
Y475462D02*
X442812Y481558D01*
X448908D01*
X445860Y475462D01*
Y486130D02*
X440780Y496290D01*
X450940D01*
X445860Y486130D01*
Y488162D02*
X442812Y494258D01*
X448908D01*
X445860Y488162D01*
X458560Y486130D02*
X453480Y496290D01*
X463640D01*
X458560Y486130D01*
Y488162D02*
X455512Y494258D01*
X461608D01*
X458560Y488162D01*
X471260Y460730D02*
X466180Y470890D01*
X476340D01*
X471260Y460730D01*
Y462762D02*
X468212Y468858D01*
X474308D01*
X471260Y462762D01*
Y473430D02*
X466180Y483590D01*
X476340D01*
X471260Y473430D01*
Y475462D02*
X468212Y481558D01*
X474308D01*
X471260Y475462D01*
Y486130D02*
X466180Y496290D01*
X476340D01*
X471260Y486130D01*
Y488162D02*
X468212Y494258D01*
X474308D01*
X471260Y488162D01*
X626200Y431520D02*
X621120Y441680D01*
X631280D01*
X626200Y431520D01*
Y433552D02*
X623152Y439648D01*
X629248D01*
X626200Y433552D01*
Y444220D02*
X621120Y454380D01*
X631280D01*
X626200Y444220D01*
Y446252D02*
X623152Y452348D01*
X629248D01*
X626200Y446252D01*
X638900Y431520D02*
X633820Y441680D01*
X643980D01*
X638900Y431520D01*
Y433552D02*
X635852Y439648D01*
X641948D01*
X638900Y433552D01*
Y444220D02*
X633820Y454380D01*
X643980D01*
X638900Y444220D01*
Y446252D02*
X635852Y452348D01*
X641948D01*
X638900Y446252D01*
Y418820D02*
X633820Y428980D01*
X643980D01*
X638900Y418820D01*
Y420852D02*
X635852Y426948D01*
X641948D01*
X638900Y420852D01*
X626200Y418820D02*
X621120Y428980D01*
X631280D01*
X626200Y418820D01*
Y420852D02*
X623152Y426948D01*
X629248D01*
X626200Y420852D01*
X466180Y431520D02*
X461100Y441680D01*
X471260D01*
X466180Y431520D01*
Y433552D02*
X463132Y439648D01*
X469228D01*
X466180Y433552D01*
Y444220D02*
X461100Y454380D01*
X471260D01*
X466180Y444220D01*
Y446252D02*
X463132Y452348D01*
X469228D01*
X466180Y446252D01*
X478880Y431520D02*
X473800Y441680D01*
X483960D01*
X478880Y431520D01*
Y433552D02*
X475832Y439648D01*
X481928D01*
X478880Y433552D01*
Y444220D02*
X473800Y454380D01*
X483960D01*
X478880Y444220D01*
Y446252D02*
X475832Y452348D01*
X481928D01*
X478880Y446252D01*
Y418820D02*
X473800Y428980D01*
X483960D01*
X478880Y418820D01*
Y420852D02*
X475832Y426948D01*
X481928D01*
X478880Y420852D01*
X466180Y418820D02*
X461100Y428980D01*
X471260D01*
X466180Y418820D01*
Y420852D02*
X463132Y426948D01*
X469228D01*
X466180Y420852D01*
X600800Y520420D02*
X595720Y530580D01*
X605880D01*
X600800Y520420D01*
Y522452D02*
X597752Y528548D01*
X603848D01*
X600800Y522452D01*
Y533120D02*
X595720Y543280D01*
X605880D01*
X600800Y533120D01*
Y535152D02*
X597752Y541248D01*
X603848D01*
X600800Y535152D01*
X588100Y533120D02*
X583020Y543280D01*
X593180D01*
X588100Y533120D01*
Y535152D02*
X585052Y541248D01*
X591148D01*
X588100Y535152D01*
Y520420D02*
X583020Y530580D01*
X593180D01*
X588100Y520420D01*
Y522452D02*
X585052Y528548D01*
X591148D01*
X588100Y522452D01*
X562700Y520420D02*
X557620Y530580D01*
X567780D01*
X562700Y520420D01*
Y522452D02*
X559652Y528548D01*
X565748D01*
X562700Y522452D01*
X537300Y520420D02*
X532220Y530580D01*
X542380D01*
X537300Y520420D01*
Y522452D02*
X534252Y528548D01*
X540348D01*
X537300Y522452D01*
X562700Y533120D02*
X557620Y543280D01*
X567780D01*
X562700Y533120D01*
Y535152D02*
X559652Y541248D01*
X565748D01*
X562700Y535152D01*
X537300Y533120D02*
X532220Y543280D01*
X542380D01*
X537300Y533120D01*
Y535152D02*
X534252Y541248D01*
X540348D01*
X537300Y535152D01*
X575400Y533120D02*
X570320Y543280D01*
X580480D01*
X575400Y533120D01*
Y535152D02*
X572352Y541248D01*
X578448D01*
X575400Y535152D01*
Y520420D02*
X570320Y530580D01*
X580480D01*
X575400Y520420D01*
Y522452D02*
X572352Y528548D01*
X578448D01*
X575400Y522452D01*
X511900Y520420D02*
X506820Y530580D01*
X516980D01*
X511900Y520420D01*
Y522452D02*
X508852Y528548D01*
X514948D01*
X511900Y522452D01*
X499200Y520420D02*
X494120Y530580D01*
X504280D01*
X499200Y520420D01*
Y522452D02*
X496152Y528548D01*
X502248D01*
X499200Y522452D01*
X486500Y520420D02*
X481420Y530580D01*
X491580D01*
X486500Y520420D01*
Y522452D02*
X483452Y528548D01*
X489548D01*
X486500Y522452D01*
X511900Y533120D02*
X506820Y543280D01*
X516980D01*
X511900Y533120D01*
Y535152D02*
X508852Y541248D01*
X514948D01*
X511900Y535152D01*
X499200Y533120D02*
X494120Y543280D01*
X504280D01*
X499200Y533120D01*
Y535152D02*
X496152Y541248D01*
X502248D01*
X499200Y535152D01*
X486500Y533120D02*
X481420Y543280D01*
X491580D01*
X486500Y533120D01*
Y535152D02*
X483452Y541248D01*
X489548D01*
X486500Y535152D01*
X524600Y533120D02*
X519520Y543280D01*
X529680D01*
X524600Y533120D01*
Y535152D02*
X521552Y541248D01*
X527648D01*
X524600Y535152D01*
Y520420D02*
X519520Y530580D01*
X529680D01*
X524600Y520420D01*
Y522452D02*
X521552Y528548D01*
X527648D01*
X524600Y522452D01*
X461100Y520420D02*
X456020Y530580D01*
X466180D01*
X461100Y520420D01*
Y522452D02*
X458052Y528548D01*
X464148D01*
X461100Y522452D01*
X473800Y520420D02*
X468720Y530580D01*
X478880D01*
X473800Y520420D01*
Y522452D02*
X470752Y528548D01*
X476848D01*
X473800Y522452D01*
X550000Y431520D02*
X544920Y441680D01*
X555080D01*
X550000Y431520D01*
Y433552D02*
X546952Y439648D01*
X553048D01*
X550000Y433552D01*
X575400Y431520D02*
X570320Y441680D01*
X580480D01*
X575400Y431520D01*
Y433552D02*
X572352Y439648D01*
X578448D01*
X575400Y433552D01*
Y444220D02*
X570320Y454380D01*
X580480D01*
X575400Y444220D01*
Y446252D02*
X572352Y452348D01*
X578448D01*
X575400Y446252D01*
X562700Y444220D02*
X557620Y454380D01*
X567780D01*
X562700Y444220D01*
Y446252D02*
X559652Y452348D01*
X565748D01*
X562700Y446252D01*
Y431520D02*
X557620Y441680D01*
X567780D01*
X562700Y431520D01*
Y433552D02*
X559652Y439648D01*
X565748D01*
X562700Y433552D01*
X550000Y444220D02*
X544920Y454380D01*
X555080D01*
X550000Y444220D01*
Y446252D02*
X546952Y452348D01*
X553048D01*
X550000Y446252D01*
X524600Y431520D02*
X519520Y441680D01*
X529680D01*
X524600Y431520D01*
Y433552D02*
X521552Y439648D01*
X527648D01*
X524600Y433552D01*
Y444220D02*
X519520Y454380D01*
X529680D01*
X524600Y444220D01*
Y446252D02*
X521552Y452348D01*
X527648D01*
X524600Y446252D01*
X511900Y444220D02*
X506820Y454380D01*
X516980D01*
X511900Y444220D01*
Y446252D02*
X508852Y452348D01*
X514948D01*
X511900Y446252D01*
Y431520D02*
X506820Y441680D01*
X516980D01*
X511900Y431520D01*
Y433552D02*
X508852Y439648D01*
X514948D01*
X511900Y433552D01*
X499200Y431520D02*
X494120Y441680D01*
X504280D01*
X499200Y431520D01*
Y433552D02*
X496152Y439648D01*
X502248D01*
X499200Y433552D01*
Y444220D02*
X494120Y454380D01*
X504280D01*
X499200Y444220D01*
Y446252D02*
X496152Y452348D01*
X502248D01*
X499200Y446252D01*
X588100Y444220D02*
X583020Y454380D01*
X593180D01*
X588100Y444220D01*
Y446252D02*
X585052Y452348D01*
X591148D01*
X588100Y446252D01*
Y431520D02*
X583020Y441680D01*
X593180D01*
X588100Y431520D01*
Y433552D02*
X585052Y439648D01*
X591148D01*
X588100Y433552D01*
X527140Y258800D02*
X529680Y261340D01*
X532220D01*
X529680Y263880D01*
X532220Y266420D01*
X529680D01*
X527140Y268960D01*
X524600Y266420D01*
X522060D01*
X524600Y263880D01*
X522060Y261340D01*
X524600D01*
X527140Y258800D01*
X572860D02*
X575400Y261340D01*
X577940D01*
X575400Y263880D01*
X577940Y266420D01*
X575400D01*
X572860Y268960D01*
X570320Y266420D01*
X567780D01*
X570320Y263880D01*
X567780Y261340D01*
X570320D01*
X572860Y258800D01*
X684620Y355320D02*
X679540Y365480D01*
X689700D01*
X684620Y355320D01*
Y357352D02*
X681572Y363448D01*
X687668D01*
X684620Y357352D01*
Y368020D02*
X679540Y378180D01*
X689700D01*
X684620Y368020D01*
Y370052D02*
X681572Y376148D01*
X687668D01*
X684620Y370052D01*
X697320Y368020D02*
X692240Y378180D01*
X702400D01*
X697320Y368020D01*
Y370052D02*
X694272Y376148D01*
X700368D01*
X697320Y370052D01*
Y355320D02*
X692240Y365480D01*
X702400D01*
X697320Y355320D01*
Y357352D02*
X694272Y363448D01*
X700368D01*
X697320Y357352D01*
X710020Y355320D02*
X704940Y365480D01*
X715100D01*
X710020Y355320D01*
Y357352D02*
X706972Y363448D01*
X713068D01*
X710020Y357352D01*
Y368020D02*
X704940Y378180D01*
X715100D01*
X710020Y368020D01*
Y370052D02*
X706972Y376148D01*
X713068D01*
X710020Y370052D01*
X722720Y368020D02*
X717640Y378180D01*
X727800D01*
X722720Y368020D01*
Y370052D02*
X719672Y376148D01*
X725768D01*
X722720Y370052D01*
Y355320D02*
X717640Y365480D01*
X727800D01*
X722720Y355320D01*
Y357352D02*
X719672Y363448D01*
X725768D01*
X722720Y357352D01*
X735420Y355320D02*
X730340Y365480D01*
X740500D01*
X735420Y355320D01*
Y357352D02*
X732372Y363448D01*
X738468D01*
X735420Y357352D01*
Y368020D02*
X730340Y378180D01*
X740500D01*
X735420Y368020D01*
Y370052D02*
X732372Y376148D01*
X738468D01*
X735420Y370052D01*
X748120Y368020D02*
X743040Y378180D01*
X753200D01*
X748120Y368020D01*
Y370052D02*
X745072Y376148D01*
X751168D01*
X748120Y370052D01*
Y355320D02*
X743040Y365480D01*
X753200D01*
X748120Y355320D01*
Y357352D02*
X745072Y363448D01*
X751168D01*
X748120Y357352D01*
X760820Y355320D02*
X755740Y365480D01*
X765900D01*
X760820Y355320D01*
Y357352D02*
X757772Y363448D01*
X763868D01*
X760820Y357352D01*
Y368020D02*
X755740Y378180D01*
X765900D01*
X760820Y368020D01*
Y370052D02*
X757772Y376148D01*
X763868D01*
X760820Y370052D01*
X773520Y368020D02*
X768440Y378180D01*
X778600D01*
X773520Y368020D01*
Y370052D02*
X770472Y376148D01*
X776568D01*
X773520Y370052D01*
Y355320D02*
X768440Y365480D01*
X778600D01*
X773520Y355320D01*
Y357352D02*
X770472Y363448D01*
X776568D01*
X773520Y357352D01*
X786220Y355320D02*
X781140Y365480D01*
X791300D01*
X786220Y355320D01*
Y357352D02*
X783172Y363448D01*
X789268D01*
X786220Y357352D01*
Y368020D02*
X781140Y378180D01*
X791300D01*
X786220Y368020D01*
Y370052D02*
X783172Y376148D01*
X789268D01*
X786220Y370052D01*
X798920Y368020D02*
X793840Y378180D01*
X804000D01*
X798920Y368020D01*
Y370052D02*
X795872Y376148D01*
X801968D01*
X798920Y370052D01*
Y355320D02*
X793840Y365480D01*
X804000D01*
X798920Y355320D01*
Y357352D02*
X795872Y363448D01*
X801968D01*
X798920Y357352D01*
X811620Y355320D02*
X806540Y365480D01*
X816700D01*
X811620Y355320D01*
Y357352D02*
X808572Y363448D01*
X814668D01*
X811620Y357352D01*
Y368020D02*
X806540Y378180D01*
X816700D01*
X811620Y368020D01*
Y370052D02*
X808572Y376148D01*
X814668D01*
X811620Y370052D01*
X824320Y368020D02*
X819240Y378180D01*
X829400D01*
X824320Y368020D01*
Y370052D02*
X821272Y376148D01*
X827368D01*
X824320Y370052D01*
Y355320D02*
X819240Y365480D01*
X829400D01*
X824320Y355320D01*
Y357352D02*
X821272Y363448D01*
X827368D01*
X824320Y357352D01*
X837020Y355320D02*
X831940Y365480D01*
X842100D01*
X837020Y355320D01*
Y357352D02*
X833972Y363448D01*
X840068D01*
X837020Y357352D01*
Y368020D02*
X831940Y378180D01*
X842100D01*
X837020Y368020D01*
Y370052D02*
X833972Y376148D01*
X840068D01*
X837020Y370052D01*
X849720Y368020D02*
X844640Y378180D01*
X854800D01*
X849720Y368020D01*
Y370052D02*
X846672Y376148D01*
X852768D01*
X849720Y370052D01*
Y355320D02*
X844640Y365480D01*
X854800D01*
X849720Y355320D01*
Y357352D02*
X846672Y363448D01*
X852768D01*
X849720Y357352D01*
X862420Y355320D02*
X857340Y365480D01*
X867500D01*
X862420Y355320D01*
Y357352D02*
X859372Y363448D01*
X865468D01*
X862420Y357352D01*
Y368020D02*
X857340Y378180D01*
X867500D01*
X862420Y368020D01*
Y370052D02*
X859372Y376148D01*
X865468D01*
X862420Y370052D01*
X900520Y368020D02*
X895440Y378180D01*
X905600D01*
X900520Y368020D01*
Y370052D02*
X897472Y376148D01*
X903568D01*
X900520Y370052D01*
Y355320D02*
X895440Y365480D01*
X905600D01*
X900520Y355320D01*
Y357352D02*
X897472Y363448D01*
X903568D01*
X900520Y357352D01*
X913220Y355320D02*
X908140Y365480D01*
X918300D01*
X913220Y355320D01*
Y357352D02*
X910172Y363448D01*
X916268D01*
X913220Y357352D01*
Y368020D02*
X908140Y378180D01*
X918300D01*
X913220Y368020D01*
Y370052D02*
X910172Y376148D01*
X916268D01*
X913220Y370052D01*
X925920Y368020D02*
X920840Y378180D01*
X931000D01*
X925920Y368020D01*
Y370052D02*
X922872Y376148D01*
X928968D01*
X925920Y370052D01*
Y355320D02*
X920840Y365480D01*
X931000D01*
X925920Y355320D01*
Y357352D02*
X922872Y363448D01*
X928968D01*
X925920Y357352D01*
Y428980D02*
X920840Y439140D01*
X931000D01*
X925920Y428980D01*
Y431012D02*
X922872Y437108D01*
X928968D01*
X925920Y431012D01*
X913220Y441680D02*
X908140Y451840D01*
X918300D01*
X913220Y441680D01*
Y443712D02*
X910172Y449808D01*
X916268D01*
X913220Y443712D01*
Y428980D02*
X908140Y439140D01*
X918300D01*
X913220Y428980D01*
Y431012D02*
X910172Y437108D01*
X916268D01*
X913220Y431012D01*
X900520Y428980D02*
X895440Y439140D01*
X905600D01*
X900520Y428980D01*
Y431012D02*
X897472Y437108D01*
X903568D01*
X900520Y431012D01*
Y441680D02*
X895440Y451840D01*
X905600D01*
X900520Y441680D01*
Y443712D02*
X897472Y449808D01*
X903568D01*
X900520Y443712D01*
X862420Y441680D02*
X857340Y451840D01*
X867500D01*
X862420Y441680D01*
Y443712D02*
X859372Y449808D01*
X865468D01*
X862420Y443712D01*
Y428980D02*
X857340Y439140D01*
X867500D01*
X862420Y428980D01*
Y431012D02*
X859372Y437108D01*
X865468D01*
X862420Y431012D01*
X849720Y428980D02*
X844640Y439140D01*
X854800D01*
X849720Y428980D01*
Y431012D02*
X846672Y437108D01*
X852768D01*
X849720Y431012D01*
Y441680D02*
X844640Y451840D01*
X854800D01*
X849720Y441680D01*
Y443712D02*
X846672Y449808D01*
X852768D01*
X849720Y443712D01*
X837020Y441680D02*
X831940Y451840D01*
X842100D01*
X837020Y441680D01*
Y443712D02*
X833972Y449808D01*
X840068D01*
X837020Y443712D01*
Y428980D02*
X831940Y439140D01*
X842100D01*
X837020Y428980D01*
Y431012D02*
X833972Y437108D01*
X840068D01*
X837020Y431012D01*
X824320Y428980D02*
X819240Y439140D01*
X829400D01*
X824320Y428980D01*
Y431012D02*
X821272Y437108D01*
X827368D01*
X824320Y431012D01*
Y441680D02*
X819240Y451840D01*
X829400D01*
X824320Y441680D01*
Y443712D02*
X821272Y449808D01*
X827368D01*
X824320Y443712D01*
X811620Y441680D02*
X806540Y451840D01*
X816700D01*
X811620Y441680D01*
Y443712D02*
X808572Y449808D01*
X814668D01*
X811620Y443712D01*
Y428980D02*
X806540Y439140D01*
X816700D01*
X811620Y428980D01*
Y431012D02*
X808572Y437108D01*
X814668D01*
X811620Y431012D01*
X798920Y428980D02*
X793840Y439140D01*
X804000D01*
X798920Y428980D01*
Y431012D02*
X795872Y437108D01*
X801968D01*
X798920Y431012D01*
Y441680D02*
X793840Y451840D01*
X804000D01*
X798920Y441680D01*
Y443712D02*
X795872Y449808D01*
X801968D01*
X798920Y443712D01*
X786220Y441680D02*
X781140Y451840D01*
X791300D01*
X786220Y441680D01*
Y443712D02*
X783172Y449808D01*
X789268D01*
X786220Y443712D01*
Y428980D02*
X781140Y439140D01*
X791300D01*
X786220Y428980D01*
Y431012D02*
X783172Y437108D01*
X789268D01*
X786220Y431012D01*
X773520Y428980D02*
X768440Y439140D01*
X778600D01*
X773520Y428980D01*
Y431012D02*
X770472Y437108D01*
X776568D01*
X773520Y431012D01*
Y441680D02*
X768440Y451840D01*
X778600D01*
X773520Y441680D01*
Y443712D02*
X770472Y449808D01*
X776568D01*
X773520Y443712D01*
X760820Y441680D02*
X755740Y451840D01*
X765900D01*
X760820Y441680D01*
Y443712D02*
X757772Y449808D01*
X763868D01*
X760820Y443712D01*
Y428980D02*
X755740Y439140D01*
X765900D01*
X760820Y428980D01*
Y431012D02*
X757772Y437108D01*
X763868D01*
X760820Y431012D01*
X748120Y428980D02*
X743040Y439140D01*
X753200D01*
X748120Y428980D01*
Y431012D02*
X745072Y437108D01*
X751168D01*
X748120Y431012D01*
Y441680D02*
X743040Y451840D01*
X753200D01*
X748120Y441680D01*
Y443712D02*
X745072Y449808D01*
X751168D01*
X748120Y443712D01*
X735420Y441680D02*
X730340Y451840D01*
X740500D01*
X735420Y441680D01*
Y443712D02*
X732372Y449808D01*
X738468D01*
X735420Y443712D01*
Y428980D02*
X730340Y439140D01*
X740500D01*
X735420Y428980D01*
Y431012D02*
X732372Y437108D01*
X738468D01*
X735420Y431012D01*
X722720Y428980D02*
X717640Y439140D01*
X727800D01*
X722720Y428980D01*
Y431012D02*
X719672Y437108D01*
X725768D01*
X722720Y431012D01*
Y441680D02*
X717640Y451840D01*
X727800D01*
X722720Y441680D01*
Y443712D02*
X719672Y449808D01*
X725768D01*
X722720Y443712D01*
X710020Y441680D02*
X704940Y451840D01*
X715100D01*
X710020Y441680D01*
Y443712D02*
X706972Y449808D01*
X713068D01*
X710020Y443712D01*
Y428980D02*
X704940Y439140D01*
X715100D01*
X710020Y428980D01*
Y431012D02*
X706972Y437108D01*
X713068D01*
X710020Y431012D01*
X697320Y428980D02*
X692240Y439140D01*
X702400D01*
X697320Y428980D01*
Y431012D02*
X694272Y437108D01*
X700368D01*
X697320Y431012D01*
Y441680D02*
X692240Y451840D01*
X702400D01*
X697320Y441680D01*
Y443712D02*
X694272Y449808D01*
X700368D01*
X697320Y443712D01*
X402680Y441680D02*
X397600Y451840D01*
X407760D01*
X402680Y441680D01*
Y443712D02*
X399632Y449808D01*
X405728D01*
X402680Y443712D01*
Y428980D02*
X397600Y439140D01*
X407760D01*
X402680Y428980D01*
Y431012D02*
X399632Y437108D01*
X405728D01*
X402680Y431012D01*
X389980Y428980D02*
X384900Y439140D01*
X395060D01*
X389980Y428980D01*
Y431012D02*
X386932Y437108D01*
X393028D01*
X389980Y431012D01*
Y441680D02*
X384900Y451840D01*
X395060D01*
X389980Y441680D01*
Y443712D02*
X386932Y449808D01*
X393028D01*
X389980Y443712D01*
X377280Y441680D02*
X372200Y451840D01*
X382360D01*
X377280Y441680D01*
Y443712D02*
X374232Y449808D01*
X380328D01*
X377280Y443712D01*
Y428980D02*
X372200Y439140D01*
X382360D01*
X377280Y428980D01*
Y431012D02*
X374232Y437108D01*
X380328D01*
X377280Y431012D01*
X364580Y428980D02*
X359500Y439140D01*
X369660D01*
X364580Y428980D01*
Y431012D02*
X361532Y437108D01*
X367628D01*
X364580Y431012D01*
Y441680D02*
X359500Y451840D01*
X369660D01*
X364580Y441680D01*
Y443712D02*
X361532Y449808D01*
X367628D01*
X364580Y443712D01*
X351880Y441680D02*
X346800Y451840D01*
X356960D01*
X351880Y441680D01*
Y443712D02*
X348832Y449808D01*
X354928D01*
X351880Y443712D01*
Y428980D02*
X346800Y439140D01*
X356960D01*
X351880Y428980D01*
Y431012D02*
X348832Y437108D01*
X354928D01*
X351880Y431012D01*
X339180Y428980D02*
X334100Y439140D01*
X344260D01*
X339180Y428980D01*
Y431012D02*
X336132Y437108D01*
X342228D01*
X339180Y431012D01*
Y441680D02*
X334100Y451840D01*
X344260D01*
X339180Y441680D01*
Y443712D02*
X336132Y449808D01*
X342228D01*
X339180Y443712D01*
X326480Y441680D02*
X321400Y451840D01*
X331560D01*
X326480Y441680D01*
Y443712D02*
X323432Y449808D01*
X329528D01*
X326480Y443712D01*
Y428980D02*
X321400Y439140D01*
X331560D01*
X326480Y428980D01*
Y431012D02*
X323432Y437108D01*
X329528D01*
X326480Y431012D01*
X313780Y428980D02*
X308700Y439140D01*
X318860D01*
X313780Y428980D01*
Y431012D02*
X310732Y437108D01*
X316828D01*
X313780Y431012D01*
Y441680D02*
X308700Y451840D01*
X318860D01*
X313780Y441680D01*
Y443712D02*
X310732Y449808D01*
X316828D01*
X313780Y443712D01*
X301080Y441680D02*
X296000Y451840D01*
X306160D01*
X301080Y441680D01*
Y443712D02*
X298032Y449808D01*
X304128D01*
X301080Y443712D01*
Y428980D02*
X296000Y439140D01*
X306160D01*
X301080Y428980D01*
Y431012D02*
X298032Y437108D01*
X304128D01*
X301080Y431012D01*
X288380Y428980D02*
X283300Y439140D01*
X293460D01*
X288380Y428980D01*
Y431012D02*
X285332Y437108D01*
X291428D01*
X288380Y431012D01*
Y441680D02*
X283300Y451840D01*
X293460D01*
X288380Y441680D01*
Y443712D02*
X285332Y449808D01*
X291428D01*
X288380Y443712D01*
X275680Y441680D02*
X270600Y451840D01*
X280760D01*
X275680Y441680D01*
Y443712D02*
X272632Y449808D01*
X278728D01*
X275680Y443712D01*
Y428980D02*
X270600Y439140D01*
X280760D01*
X275680Y428980D01*
Y431012D02*
X272632Y437108D01*
X278728D01*
X275680Y431012D01*
X262980Y428980D02*
X257900Y439140D01*
X268060D01*
X262980Y428980D01*
Y431012D02*
X259932Y437108D01*
X266028D01*
X262980Y431012D01*
Y441680D02*
X257900Y451840D01*
X268060D01*
X262980Y441680D01*
Y443712D02*
X259932Y449808D01*
X266028D01*
X262980Y443712D01*
X250280Y441680D02*
X245200Y451840D01*
X255360D01*
X250280Y441680D01*
Y443712D02*
X247232Y449808D01*
X253328D01*
X250280Y443712D01*
Y428980D02*
X245200Y439140D01*
X255360D01*
X250280Y428980D01*
Y431012D02*
X247232Y437108D01*
X253328D01*
X250280Y431012D01*
X237580Y428980D02*
X232500Y439140D01*
X242660D01*
X237580Y428980D01*
Y431012D02*
X234532Y437108D01*
X240628D01*
X237580Y431012D01*
Y441680D02*
X232500Y451840D01*
X242660D01*
X237580Y441680D01*
Y443712D02*
X234532Y449808D01*
X240628D01*
X237580Y443712D01*
X199480Y441680D02*
X194400Y451840D01*
X204560D01*
X199480Y441680D01*
Y443712D02*
X196432Y449808D01*
X202528D01*
X199480Y443712D01*
Y428980D02*
X194400Y439140D01*
X204560D01*
X199480Y428980D01*
Y431012D02*
X196432Y437108D01*
X202528D01*
X199480Y431012D01*
X186780Y428980D02*
X181700Y439140D01*
X191860D01*
X186780Y428980D01*
Y431012D02*
X183732Y437108D01*
X189828D01*
X186780Y431012D01*
Y441680D02*
X181700Y451840D01*
X191860D01*
X186780Y441680D01*
Y443712D02*
X183732Y449808D01*
X189828D01*
X186780Y443712D01*
X174080Y428980D02*
X169000Y439140D01*
X179160D01*
X174080Y428980D01*
Y431012D02*
X171032Y437108D01*
X177128D01*
X174080Y431012D01*
Y355320D02*
X169000Y365480D01*
X179160D01*
X174080Y355320D01*
Y357352D02*
X171032Y363448D01*
X177128D01*
X174080Y357352D01*
Y368020D02*
X169000Y378180D01*
X179160D01*
X174080Y368020D01*
Y370052D02*
X171032Y376148D01*
X177128D01*
X174080Y370052D01*
X186780Y368020D02*
X181700Y378180D01*
X191860D01*
X186780Y368020D01*
Y370052D02*
X183732Y376148D01*
X189828D01*
X186780Y370052D01*
Y355320D02*
X181700Y365480D01*
X191860D01*
X186780Y355320D01*
Y357352D02*
X183732Y363448D01*
X189828D01*
X186780Y357352D01*
X199480Y355320D02*
X194400Y365480D01*
X204560D01*
X199480Y355320D01*
Y357352D02*
X196432Y363448D01*
X202528D01*
X199480Y357352D01*
Y368020D02*
X194400Y378180D01*
X204560D01*
X199480Y368020D01*
Y370052D02*
X196432Y376148D01*
X202528D01*
X199480Y370052D01*
X237580Y368020D02*
X232500Y378180D01*
X242660D01*
X237580Y368020D01*
Y370052D02*
X234532Y376148D01*
X240628D01*
X237580Y370052D01*
Y355320D02*
X232500Y365480D01*
X242660D01*
X237580Y355320D01*
Y357352D02*
X234532Y363448D01*
X240628D01*
X237580Y357352D01*
X250280Y355320D02*
X245200Y365480D01*
X255360D01*
X250280Y355320D01*
Y357352D02*
X247232Y363448D01*
X253328D01*
X250280Y357352D01*
Y368020D02*
X245200Y378180D01*
X255360D01*
X250280Y368020D01*
Y370052D02*
X247232Y376148D01*
X253328D01*
X250280Y370052D01*
X262980Y368020D02*
X257900Y378180D01*
X268060D01*
X262980Y368020D01*
Y370052D02*
X259932Y376148D01*
X266028D01*
X262980Y370052D01*
Y355320D02*
X257900Y365480D01*
X268060D01*
X262980Y355320D01*
Y357352D02*
X259932Y363448D01*
X266028D01*
X262980Y357352D01*
X275680Y355320D02*
X270600Y365480D01*
X280760D01*
X275680Y355320D01*
Y357352D02*
X272632Y363448D01*
X278728D01*
X275680Y357352D01*
Y368020D02*
X270600Y378180D01*
X280760D01*
X275680Y368020D01*
Y370052D02*
X272632Y376148D01*
X278728D01*
X275680Y370052D01*
X288380Y368020D02*
X283300Y378180D01*
X293460D01*
X288380Y368020D01*
Y370052D02*
X285332Y376148D01*
X291428D01*
X288380Y370052D01*
Y355320D02*
X283300Y365480D01*
X293460D01*
X288380Y355320D01*
Y357352D02*
X285332Y363448D01*
X291428D01*
X288380Y357352D01*
X301080Y355320D02*
X296000Y365480D01*
X306160D01*
X301080Y355320D01*
Y357352D02*
X298032Y363448D01*
X304128D01*
X301080Y357352D01*
Y368020D02*
X296000Y378180D01*
X306160D01*
X301080Y368020D01*
Y370052D02*
X298032Y376148D01*
X304128D01*
X301080Y370052D01*
X313780Y368020D02*
X308700Y378180D01*
X318860D01*
X313780Y368020D01*
Y370052D02*
X310732Y376148D01*
X316828D01*
X313780Y370052D01*
Y355320D02*
X308700Y365480D01*
X318860D01*
X313780Y355320D01*
Y357352D02*
X310732Y363448D01*
X316828D01*
X313780Y357352D01*
X326480Y355320D02*
X321400Y365480D01*
X331560D01*
X326480Y355320D01*
Y357352D02*
X323432Y363448D01*
X329528D01*
X326480Y357352D01*
Y368020D02*
X321400Y378180D01*
X331560D01*
X326480Y368020D01*
Y370052D02*
X323432Y376148D01*
X329528D01*
X326480Y370052D01*
X339180Y368020D02*
X334100Y378180D01*
X344260D01*
X339180Y368020D01*
Y370052D02*
X336132Y376148D01*
X342228D01*
X339180Y370052D01*
Y355320D02*
X334100Y365480D01*
X344260D01*
X339180Y355320D01*
Y357352D02*
X336132Y363448D01*
X342228D01*
X339180Y357352D01*
X351880Y355320D02*
X346800Y365480D01*
X356960D01*
X351880Y355320D01*
Y357352D02*
X348832Y363448D01*
X354928D01*
X351880Y357352D01*
Y368020D02*
X346800Y378180D01*
X356960D01*
X351880Y368020D01*
Y370052D02*
X348832Y376148D01*
X354928D01*
X351880Y370052D01*
X364580Y368020D02*
X359500Y378180D01*
X369660D01*
X364580Y368020D01*
Y370052D02*
X361532Y376148D01*
X367628D01*
X364580Y370052D01*
Y355320D02*
X359500Y365480D01*
X369660D01*
X364580Y355320D01*
Y357352D02*
X361532Y363448D01*
X367628D01*
X364580Y357352D01*
X377280Y355320D02*
X372200Y365480D01*
X382360D01*
X377280Y355320D01*
Y357352D02*
X374232Y363448D01*
X380328D01*
X377280Y357352D01*
Y368020D02*
X372200Y378180D01*
X382360D01*
X377280Y368020D01*
Y370052D02*
X374232Y376148D01*
X380328D01*
X377280Y370052D01*
X389980Y368020D02*
X384900Y378180D01*
X395060D01*
X389980Y368020D01*
Y370052D02*
X386932Y376148D01*
X393028D01*
X389980Y370052D01*
Y355320D02*
X384900Y365480D01*
X395060D01*
X389980Y355320D01*
Y357352D02*
X386932Y363448D01*
X393028D01*
X389980Y357352D01*
X402680Y355320D02*
X397600Y365480D01*
X407760D01*
X402680Y355320D01*
Y357352D02*
X399632Y363448D01*
X405728D01*
X402680Y357352D01*
Y368020D02*
X397600Y378180D01*
X407760D01*
X402680Y368020D01*
Y370052D02*
X399632Y376148D01*
X405728D01*
X402680Y370052D01*
X415380Y368020D02*
X410300Y378180D01*
X420460D01*
X415380Y368020D01*
Y370052D02*
X412332Y376148D01*
X418428D01*
X415380Y370052D01*
Y355320D02*
X410300Y365480D01*
X420460D01*
X415380Y355320D01*
Y357352D02*
X412332Y363448D01*
X418428D01*
X415380Y357352D01*
X439510Y522960D02*
X442050Y525500D01*
X444590D01*
X442050Y528040D01*
X444590Y530580D01*
X442050D01*
X439510Y533120D01*
X436970Y530580D01*
X434430D01*
X436970Y528040D01*
X434430Y525500D01*
X436970D01*
X439510Y522960D01*
X622390D02*
X624930Y525500D01*
X627470D01*
X624930Y528040D01*
X627470Y530580D01*
X624930D01*
X622390Y533120D01*
X619850Y530580D01*
X617310D01*
X619850Y528040D01*
X617310Y525500D01*
X619850D01*
X622390Y522960D01*
X599530Y441680D02*
X602070Y444220D01*
X604610D01*
X602070Y446760D01*
X604610Y449300D01*
X602070D01*
X599530Y451840D01*
X596990Y449300D01*
X594450D01*
X596990Y446760D01*
X594450Y444220D01*
X596990D01*
X599530Y441680D01*
X538570D02*
X541110Y444220D01*
X543650D01*
X541110Y446760D01*
X543650Y449300D01*
X541110D01*
X538570Y451840D01*
X536030Y449300D01*
X533490D01*
X536030Y446760D01*
X533490Y444220D01*
X536030D01*
X538570Y441680D01*
X626200Y571220D02*
X621120Y581380D01*
X631280D01*
X626200Y571220D01*
Y573252D02*
X623152Y579348D01*
X629248D01*
X626200Y573252D01*
Y558520D02*
X621120Y568680D01*
X631280D01*
X626200Y558520D01*
Y560552D02*
X623152Y566648D01*
X629248D01*
X626200Y560552D01*
X473800Y571220D02*
X468720Y581380D01*
X478880D01*
X473800Y571220D01*
Y573252D02*
X470752Y579348D01*
X476848D01*
X473800Y573252D01*
Y558520D02*
X468720Y568680D01*
X478880D01*
X473800Y558520D01*
Y560552D02*
X470752Y566648D01*
X476848D01*
X473800Y560552D01*
X626200Y545820D02*
X621120Y555980D01*
X631280D01*
X626200Y545820D01*
Y547852D02*
X623152Y553948D01*
X629248D01*
X626200Y547852D01*
Y531850D02*
X621120Y542010D01*
X631280D01*
X626200Y531850D01*
Y533882D02*
X623152Y539978D01*
X629248D01*
X626200Y533882D01*
X473800Y545820D02*
X468720Y555980D01*
X478880D01*
X473800Y545820D01*
Y547852D02*
X470752Y553948D01*
X476848D01*
X473800Y547852D01*
Y533120D02*
X468720Y543280D01*
X478880D01*
X473800Y533120D01*
Y535152D02*
X470752Y541248D01*
X476848D01*
X473800Y535152D01*
X651600Y622020D02*
X646520Y632180D01*
X656680D01*
X651600Y622020D01*
Y624052D02*
X648552Y630148D01*
X654648D01*
X651600Y624052D01*
X638900Y660120D02*
X633820Y670280D01*
X643980D01*
X638900Y660120D01*
Y662152D02*
X635852Y668248D01*
X641948D01*
X638900Y662152D01*
X651600Y660120D02*
X646520Y670280D01*
X656680D01*
X651600Y660120D01*
Y662152D02*
X648552Y668248D01*
X654648D01*
X651600Y662152D01*
Y647420D02*
X646520Y657580D01*
X656680D01*
X651600Y647420D01*
Y649452D02*
X648552Y655548D01*
X654648D01*
X651600Y649452D01*
X638900Y647420D02*
X633820Y657580D01*
X643980D01*
X638900Y647420D01*
Y649452D02*
X635852Y655548D01*
X641948D01*
X638900Y649452D01*
Y634720D02*
X633820Y644880D01*
X643980D01*
X638900Y634720D01*
Y636752D02*
X635852Y642848D01*
X641948D01*
X638900Y636752D01*
X651600Y634720D02*
X646520Y644880D01*
X656680D01*
X651600Y634720D01*
Y636752D02*
X648552Y642848D01*
X654648D01*
X651600Y636752D01*
X638900Y622020D02*
X633820Y632180D01*
X643980D01*
X638900Y622020D01*
Y624052D02*
X635852Y630148D01*
X641948D01*
X638900Y624052D01*
X461100Y660120D02*
X456020Y670280D01*
X466180D01*
X461100Y660120D01*
Y662152D02*
X458052Y668248D01*
X464148D01*
X461100Y662152D01*
X448400Y660120D02*
X443320Y670280D01*
X453480D01*
X448400Y660120D01*
Y662152D02*
X445352Y668248D01*
X451448D01*
X448400Y662152D01*
Y647420D02*
X443320Y657580D01*
X453480D01*
X448400Y647420D01*
Y649452D02*
X445352Y655548D01*
X451448D01*
X448400Y649452D01*
X461100Y647420D02*
X456020Y657580D01*
X466180D01*
X461100Y647420D01*
Y649452D02*
X458052Y655548D01*
X464148D01*
X461100Y649452D01*
Y634720D02*
X456020Y644880D01*
X466180D01*
X461100Y634720D01*
Y636752D02*
X458052Y642848D01*
X464148D01*
X461100Y636752D01*
X448400Y634720D02*
X443320Y644880D01*
X453480D01*
X448400Y634720D01*
Y636752D02*
X445352Y642848D01*
X451448D01*
X448400Y636752D01*
Y622020D02*
X443320Y632180D01*
X453480D01*
X448400Y622020D01*
Y624052D02*
X445352Y630148D01*
X451448D01*
X448400Y624052D01*
X461100Y622020D02*
X456020Y632180D01*
X466180D01*
X461100Y622020D01*
Y624052D02*
X458052Y630148D01*
X464148D01*
X461100Y624052D01*
X651600Y571220D02*
X646520Y581380D01*
X656680D01*
X651600Y571220D01*
Y573252D02*
X648552Y579348D01*
X654648D01*
X651600Y573252D01*
X638900Y571220D02*
X633820Y581380D01*
X643980D01*
X638900Y571220D01*
Y573252D02*
X635852Y579348D01*
X641948D01*
X638900Y573252D01*
Y558520D02*
X633820Y568680D01*
X643980D01*
X638900Y558520D01*
Y560552D02*
X635852Y566648D01*
X641948D01*
X638900Y560552D01*
X651600Y533120D02*
X646520Y543280D01*
X656680D01*
X651600Y533120D01*
Y535152D02*
X648552Y541248D01*
X654648D01*
X651600Y535152D01*
X638900Y531850D02*
X633820Y542010D01*
X643980D01*
X638900Y531850D01*
Y533882D02*
X635852Y539978D01*
X641948D01*
X638900Y533882D01*
Y545820D02*
X633820Y555980D01*
X643980D01*
X638900Y545820D01*
Y547852D02*
X635852Y553948D01*
X641948D01*
X638900Y547852D01*
X651600Y545820D02*
X646520Y555980D01*
X656680D01*
X651600Y545820D01*
Y547852D02*
X648552Y553948D01*
X654648D01*
X651600Y547852D01*
Y558520D02*
X646520Y568680D01*
X656680D01*
X651600Y558520D01*
Y560552D02*
X648552Y566648D01*
X654648D01*
X651600Y560552D01*
X461100Y571220D02*
X456020Y581380D01*
X466180D01*
X461100Y571220D01*
Y573252D02*
X458052Y579348D01*
X464148D01*
X461100Y573252D01*
X448400Y571220D02*
X443320Y581380D01*
X453480D01*
X448400Y571220D01*
Y573252D02*
X445352Y579348D01*
X451448D01*
X448400Y573252D01*
Y558520D02*
X443320Y568680D01*
X453480D01*
X448400Y558520D01*
Y560552D02*
X445352Y566648D01*
X451448D01*
X448400Y560552D01*
X461100Y558520D02*
X456020Y568680D01*
X466180D01*
X461100Y558520D01*
Y560552D02*
X458052Y566648D01*
X464148D01*
X461100Y560552D01*
Y545820D02*
X456020Y555980D01*
X466180D01*
X461100Y545820D01*
Y547852D02*
X458052Y553948D01*
X464148D01*
X461100Y547852D01*
X448400Y545820D02*
X443320Y555980D01*
X453480D01*
X448400Y545820D01*
Y547852D02*
X445352Y553948D01*
X451448D01*
X448400Y547852D01*
Y533120D02*
X443320Y543280D01*
X453480D01*
X448400Y533120D01*
Y535152D02*
X445352Y541248D01*
X451448D01*
X448400Y535152D01*
X461100Y533120D02*
X456020Y543280D01*
X466180D01*
X461100Y533120D01*
Y535152D02*
X458052Y541248D01*
X464148D01*
X461100Y535152D01*
X69040Y793627D02*
X66500Y798708D01*
X71580D01*
X69040Y793627D01*
Y794643D02*
X67516Y797691D01*
X70564D01*
X69040Y794643D01*
Y779628D02*
X70310Y780898D01*
X71580D01*
X70310Y782168D01*
X71580Y783438D01*
X70310D01*
X69040Y784707D01*
X67770Y783438D01*
X66500D01*
X67770Y782168D01*
X66500Y780898D01*
X67770D01*
X69040Y779628D01*
Y765628D02*
X70310Y766898D01*
X71580D01*
X70310Y768167D01*
X71580Y769437D01*
X70310D01*
X69040Y770707D01*
X67770Y769437D01*
X66500D01*
X67770Y768167D01*
X66500Y766898D01*
X67770D01*
X69040Y765628D01*
Y766644D02*
X69802Y767405D01*
X70564D01*
X69802Y768167D01*
X70564Y768930D01*
X69802D01*
X69040Y769691D01*
X68278Y768930D01*
X67516D01*
X68278Y768167D01*
X67516Y767405D01*
X68278D01*
X69040Y766644D01*
Y737627D02*
X66500Y742707D01*
X71580D01*
X69040Y737627D01*
D90*
X105080Y100000D02*
G03*
X105080Y100000I-5080J0D01*
G01*
X1005080D02*
G03*
X1005080Y100000I-5080J0D01*
G01*
X105080Y650000D02*
G03*
X105080Y650000I-5080J0D01*
G01*
X1005080D02*
G03*
X1005080Y650000I-5080J0D01*
G01*
D91*
X72098Y816465D02*
X70699Y817865D01*
X67899D01*
X66500Y816465D01*
Y815066D01*
X67899Y813666D01*
X70699D01*
X72098Y812267D01*
Y810867D01*
X70699Y809467D01*
X67899D01*
X66500Y810867D01*
X74897Y815066D02*
Y810867D01*
X76297Y809467D01*
X80496D01*
Y808068D01*
X79096Y806668D01*
X77696D01*
X80496Y809467D02*
Y815066D01*
X83295Y809467D02*
Y815066D01*
X84694D01*
X86094Y813666D01*
Y809467D01*
Y813666D01*
X87493Y815066D01*
X88893Y813666D01*
Y809467D01*
X91692Y817865D02*
Y809467D01*
X95891D01*
X97290Y810867D01*
Y812267D01*
Y813666D01*
X95891Y815066D01*
X91692D01*
X101489Y809467D02*
X104288D01*
X105687Y810867D01*
Y813666D01*
X104288Y815066D01*
X101489D01*
X100089Y813666D01*
Y810867D01*
X101489Y809467D01*
X108486D02*
X111286D01*
X109886D01*
Y817865D01*
X108486D01*
X126885D02*
Y809467D01*
Y813666D01*
X132484D01*
Y817865D01*
Y809467D01*
X135283D02*
X138082D01*
X136682D01*
Y815066D01*
X135283D01*
X143680Y816465D02*
Y815066D01*
X142281D01*
X145080D01*
X143680D01*
Y810867D01*
X145080Y809467D01*
X163274Y816465D02*
X161874Y817865D01*
X159075D01*
X157676Y816465D01*
Y810867D01*
X159075Y809467D01*
X161874D01*
X163274Y810867D01*
X167472Y809467D02*
X170272D01*
X171671Y810867D01*
Y813666D01*
X170272Y815066D01*
X167472D01*
X166073Y813666D01*
Y810867D01*
X167472Y809467D01*
X174470Y815066D02*
Y810867D01*
X175870Y809467D01*
X180068D01*
Y815066D01*
X182868Y809467D02*
Y815066D01*
X187066D01*
X188466Y813666D01*
Y809467D01*
X192664Y816465D02*
Y815066D01*
X191265D01*
X194064D01*
X192664D01*
Y810867D01*
X194064Y809467D01*
X215262Y817865D02*
X209664D01*
Y813666D01*
X212463D01*
X209664D01*
Y809467D01*
X218061D02*
X220860D01*
X219461D01*
Y815066D01*
X218061D01*
X225059Y809467D02*
Y815066D01*
X229258D01*
X230657Y813666D01*
Y809467D01*
X233456D02*
X236255D01*
X234856D01*
Y815066D01*
X233456D01*
X240454Y809467D02*
X244653D01*
X246052Y810867D01*
X244653Y812267D01*
X241854D01*
X240454Y813666D01*
X241854Y815066D01*
X246052D01*
X248851Y817865D02*
Y809467D01*
Y813666D01*
X250251Y815066D01*
X253050D01*
X254450Y813666D01*
Y809467D01*
X261447D02*
X258648D01*
X257249Y810867D01*
Y813666D01*
X258648Y815066D01*
X261447D01*
X262847Y813666D01*
Y812267D01*
X257249D01*
X271244Y817865D02*
Y809467D01*
X267045D01*
X265646Y810867D01*
Y813666D01*
X267045Y815066D01*
X271244D01*
X282440Y817865D02*
Y809467D01*
Y813666D01*
X288039D01*
Y817865D01*
Y809467D01*
X292237D02*
X295036D01*
X296436Y810867D01*
Y813666D01*
X295036Y815066D01*
X292237D01*
X290838Y813666D01*
Y810867D01*
X292237Y809467D01*
X299235D02*
X302034D01*
X300635D01*
Y817865D01*
X299235D01*
X310431Y809467D02*
X307632D01*
X306233Y810867D01*
Y813666D01*
X307632Y815066D01*
X310431D01*
X311831Y813666D01*
Y812267D01*
X306233D01*
X328625Y816465D02*
X327226Y817865D01*
X324427D01*
X323027Y816465D01*
Y815066D01*
X324427Y813666D01*
X327226D01*
X328625Y812267D01*
Y810867D01*
X327226Y809467D01*
X324427D01*
X323027Y810867D01*
X331425Y809467D02*
X334224D01*
X332824D01*
Y815066D01*
X331425D01*
X338422D02*
X344021D01*
X338422Y809467D01*
X344021D01*
X351018D02*
X348219D01*
X346820Y810867D01*
Y813666D01*
X348219Y815066D01*
X351018D01*
X352418Y813666D01*
Y812267D01*
X346820D01*
X368018Y809467D02*
Y817865D01*
X372216D01*
X373616Y816465D01*
Y813666D01*
X372216Y812267D01*
X368018D01*
X376415Y809467D02*
X379214D01*
X377815D01*
Y817865D01*
X376415D01*
X384812Y815066D02*
X387612D01*
X389011Y813666D01*
Y809467D01*
X384812D01*
X383413Y810867D01*
X384812Y812267D01*
X389011D01*
X393210Y816465D02*
Y815066D01*
X391810D01*
X394609D01*
X393210D01*
Y810867D01*
X394609Y809467D01*
X403007D02*
X400207D01*
X398808Y810867D01*
Y813666D01*
X400207Y815066D01*
X403007D01*
X404406Y813666D01*
Y812267D01*
X398808D01*
X412803Y817865D02*
Y809467D01*
X408605D01*
X407205Y810867D01*
Y813666D01*
X408605Y815066D01*
X412803D01*
X428403Y817865D02*
Y809467D01*
Y813666D01*
X434002D01*
Y817865D01*
Y809467D01*
X438200D02*
X440999D01*
X442399Y810867D01*
Y813666D01*
X440999Y815066D01*
X438200D01*
X436801Y813666D01*
Y810867D01*
X438200Y809467D01*
X445198D02*
X447997D01*
X446598D01*
Y817865D01*
X445198D01*
X456394Y809467D02*
X453595D01*
X452196Y810867D01*
Y813666D01*
X453595Y815066D01*
X456394D01*
X457794Y813666D01*
Y812267D01*
X452196D01*
X468990Y817865D02*
X474589D01*
X471789D01*
Y809467D01*
X477388Y815066D02*
Y810867D01*
X478787Y809467D01*
X482986D01*
Y808068D01*
X481586Y806668D01*
X480187D01*
X482986Y809467D02*
Y815066D01*
X485785Y806668D02*
Y815066D01*
X489984D01*
X491383Y813666D01*
Y810867D01*
X489984Y809467D01*
X485785D01*
X498381D02*
X495582D01*
X494182Y810867D01*
Y813666D01*
X495582Y815066D01*
X498381D01*
X499780Y813666D01*
Y812267D01*
X494182D01*
X55700Y822067D02*
X515380D01*
X55700Y803168D02*
X515380D01*
X55700Y822067D02*
Y719167D01*
X515380Y822067D02*
Y719167D01*
X121486Y822067D02*
Y719167D01*
X204264Y822067D02*
Y719167D01*
X362618Y822067D02*
Y719167D01*
X423003Y822067D02*
Y719167D01*
X55700Y733167D02*
X515380D01*
X55700Y719167D02*
X515380D01*
D92*
X126885Y798499D02*
X128052Y799665D01*
X130384D01*
X131551Y798499D01*
Y797333D01*
X130384Y796166D01*
X129218D01*
X130384D01*
X131551Y795000D01*
Y793834D01*
X130384Y792667D01*
X128052D01*
X126885Y793834D01*
X137382Y792667D02*
Y799665D01*
X133883Y796166D01*
X138548D01*
X145546Y799665D02*
X140881D01*
Y796166D01*
X143214Y797333D01*
X144380D01*
X145546Y796166D01*
Y793834D01*
X144380Y792667D01*
X142047D01*
X140881Y793834D01*
X209664Y798499D02*
X210830Y799665D01*
X213163D01*
X214329Y798499D01*
Y793834D01*
X213163Y792667D01*
X210830D01*
X209664Y793834D01*
Y798499D01*
X216662Y792667D02*
Y793834D01*
X217828D01*
Y792667D01*
X216662D01*
X222493Y798499D02*
X223659Y799665D01*
X225992D01*
X227158Y798499D01*
Y797333D01*
X225992Y796166D01*
X224826D01*
X225992D01*
X227158Y795000D01*
Y793834D01*
X225992Y792667D01*
X223659D01*
X222493Y793834D01*
X229491Y792667D02*
Y797333D01*
X230657D01*
X231823Y796166D01*
Y792667D01*
Y796166D01*
X232990Y797333D01*
X234156Y796166D01*
Y792667D01*
X236489D02*
Y797333D01*
X237655D01*
X238821Y796166D01*
Y792667D01*
Y796166D01*
X239988Y797333D01*
X241154Y796166D01*
Y792667D01*
X252817D02*
X250484Y795000D01*
Y797333D01*
X252817Y799665D01*
X256316Y792667D02*
X258648D01*
X257482D01*
Y799665D01*
X256316Y798499D01*
X262147Y792667D02*
X264480D01*
X263313D01*
Y799665D01*
X262147Y798499D01*
X267978Y792667D02*
Y793834D01*
X269145D01*
Y792667D01*
X267978D01*
X273810Y798499D02*
X274976Y799665D01*
X277309D01*
X278475Y798499D01*
Y797333D01*
X277309Y796166D01*
X278475Y795000D01*
Y793834D01*
X277309Y792667D01*
X274976D01*
X273810Y793834D01*
Y795000D01*
X274976Y796166D01*
X273810Y797333D01*
Y798499D01*
X274976Y796166D02*
X277309D01*
X280808Y792667D02*
X283140D01*
X281974D01*
Y799665D01*
X280808Y798499D01*
X286639Y792667D02*
X288972D01*
X287805D01*
Y799665D01*
X286639Y798499D01*
X292471Y792667D02*
Y797333D01*
X293637D01*
X294803Y796166D01*
Y792667D01*
Y796166D01*
X295970Y797333D01*
X297136Y796166D01*
Y792667D01*
X299468D02*
X301801D01*
X300635D01*
Y797333D01*
X299468D01*
X305300Y792667D02*
X307632D01*
X306466D01*
Y799665D01*
X305300D01*
X311131Y792667D02*
X313464Y795000D01*
Y797333D01*
X311131Y799665D01*
X368018Y792667D02*
Y799665D01*
X371517D01*
X372683Y798499D01*
Y796166D01*
X371517Y795000D01*
X368018D01*
X375016Y799665D02*
X379681D01*
X377348D01*
Y792667D01*
X382013Y799665D02*
Y792667D01*
Y796166D01*
X386679D01*
Y799665D01*
Y792667D01*
X428403D02*
Y799665D01*
X431902D01*
X433069Y798499D01*
Y796166D01*
X431902Y795000D01*
X428403D01*
X430736D02*
X433069Y792667D01*
X436567D02*
X438900D01*
X440066Y793834D01*
Y796166D01*
X438900Y797333D01*
X436567D01*
X435401Y796166D01*
Y793834D01*
X436567Y792667D01*
X442399Y797333D02*
Y793834D01*
X443565Y792667D01*
X447064D01*
Y797333D01*
X449397Y792667D02*
Y797333D01*
X452896D01*
X454062Y796166D01*
Y792667D01*
X461060Y799665D02*
Y792667D01*
X457561D01*
X456394Y793834D01*
Y796166D01*
X457561Y797333D01*
X461060D01*
X130384Y778668D02*
Y785665D01*
X126885Y782166D01*
X131551D01*
X138548Y778668D02*
X133883D01*
X138548Y783333D01*
Y784499D01*
X137382Y785665D01*
X135050D01*
X133883Y784499D01*
X209664D02*
X210830Y785665D01*
X213163D01*
X214329Y784499D01*
Y779834D01*
X213163Y778668D01*
X210830D01*
X209664Y779834D01*
Y784499D01*
X216662Y778668D02*
Y779834D01*
X217828D01*
Y778668D01*
X216662D01*
X227158Y785665D02*
X222493D01*
Y782166D01*
X224826Y783333D01*
X225992D01*
X227158Y782166D01*
Y779834D01*
X225992Y778668D01*
X223659D01*
X222493Y779834D01*
X229491Y778668D02*
Y783333D01*
X230657D01*
X231823Y782166D01*
Y778668D01*
Y782166D01*
X232990Y783333D01*
X234156Y782166D01*
Y778668D01*
X236489D02*
Y783333D01*
X237655D01*
X238821Y782166D01*
Y778668D01*
Y782166D01*
X239988Y783333D01*
X241154Y782166D01*
Y778668D01*
X252817D02*
X250484Y781000D01*
Y783333D01*
X252817Y785665D01*
X256316Y778668D02*
X258648D01*
X257482D01*
Y785665D01*
X256316Y784499D01*
X262147Y779834D02*
X263313Y778668D01*
X265646D01*
X266812Y779834D01*
Y784499D01*
X265646Y785665D01*
X263313D01*
X262147Y784499D01*
Y783333D01*
X263313Y782166D01*
X266812D01*
X269145Y778668D02*
Y779834D01*
X270311D01*
Y778668D01*
X269145D01*
X279641Y785665D02*
X277309Y784499D01*
X274976Y782166D01*
Y779834D01*
X276143Y778668D01*
X278475D01*
X279641Y779834D01*
Y781000D01*
X278475Y782166D01*
X274976D01*
X281974Y784499D02*
X283140Y785665D01*
X285473D01*
X286639Y784499D01*
Y783333D01*
X285473Y782166D01*
X286639Y781000D01*
Y779834D01*
X285473Y778668D01*
X283140D01*
X281974Y779834D01*
Y781000D01*
X283140Y782166D01*
X281974Y783333D01*
Y784499D01*
X283140Y782166D02*
X285473D01*
X293637Y785665D02*
X288972D01*
Y782166D01*
X291304Y783333D01*
X292471D01*
X293637Y782166D01*
Y779834D01*
X292471Y778668D01*
X290138D01*
X288972Y779834D01*
X295970Y778668D02*
Y783333D01*
X297136D01*
X298302Y782166D01*
Y778668D01*
Y782166D01*
X299468Y783333D01*
X300635Y782166D01*
Y778668D01*
X302967D02*
X305300D01*
X304133D01*
Y783333D01*
X302967D01*
X308799Y778668D02*
X311131D01*
X309965D01*
Y785665D01*
X308799D01*
X314630Y778668D02*
X316963Y781000D01*
Y783333D01*
X314630Y785665D01*
X368018Y778668D02*
Y785665D01*
X371517D01*
X372683Y784499D01*
Y782166D01*
X371517Y781000D01*
X368018D01*
X375016Y785665D02*
X379681D01*
X377348D01*
Y778668D01*
X382013Y785665D02*
Y778668D01*
Y782166D01*
X386679D01*
Y785665D01*
Y778668D01*
X428403D02*
Y785665D01*
X431902D01*
X433069Y784499D01*
Y782166D01*
X431902Y781000D01*
X428403D01*
X430736D02*
X433069Y778668D01*
X436567D02*
X438900D01*
X440066Y779834D01*
Y782166D01*
X438900Y783333D01*
X436567D01*
X435401Y782166D01*
Y779834D01*
X436567Y778668D01*
X442399Y783333D02*
Y779834D01*
X443565Y778668D01*
X447064D01*
Y783333D01*
X449397Y778668D02*
Y783333D01*
X452896D01*
X454062Y782166D01*
Y778668D01*
X461060Y785665D02*
Y778668D01*
X457561D01*
X456394Y779834D01*
Y782166D01*
X457561Y783333D01*
X461060D01*
X126885Y770499D02*
X128052Y771665D01*
X130384D01*
X131551Y770499D01*
Y769333D01*
X130384Y768166D01*
X129218D01*
X130384D01*
X131551Y767000D01*
Y765834D01*
X130384Y764668D01*
X128052D01*
X126885Y765834D01*
X133883Y764668D02*
X136216D01*
X135050D01*
Y771665D01*
X133883Y770499D01*
X209664Y764668D02*
X211996D01*
X210830D01*
Y771665D01*
X209664Y770499D01*
X215495Y764668D02*
Y765834D01*
X216662D01*
Y764668D01*
X215495D01*
X221327Y770499D02*
X222493Y771665D01*
X224826D01*
X225992Y770499D01*
Y765834D01*
X224826Y764668D01*
X222493D01*
X221327Y765834D01*
Y770499D01*
X228325Y764668D02*
X230657D01*
X229491D01*
Y771665D01*
X228325Y770499D01*
X238821Y771665D02*
X236489Y770499D01*
X234156Y768166D01*
Y765834D01*
X235322Y764668D01*
X237655D01*
X238821Y765834D01*
Y767000D01*
X237655Y768166D01*
X234156D01*
X241154Y764668D02*
Y769333D01*
X242320D01*
X243486Y768166D01*
Y764668D01*
Y768166D01*
X244653Y769333D01*
X245819Y768166D01*
Y764668D01*
X248151D02*
Y769333D01*
X249318D01*
X250484Y768166D01*
Y764668D01*
Y768166D01*
X251650Y769333D01*
X252817Y768166D01*
Y764668D01*
X264480D02*
X262147Y767000D01*
Y769333D01*
X264480Y771665D01*
X271477Y764668D02*
Y771665D01*
X267978Y768166D01*
X272644D01*
X274976Y770499D02*
X276143Y771665D01*
X278475D01*
X279641Y770499D01*
Y765834D01*
X278475Y764668D01*
X276143D01*
X274976Y765834D01*
Y770499D01*
X281974Y764668D02*
Y769333D01*
X283140D01*
X284307Y768166D01*
Y764668D01*
Y768166D01*
X285473Y769333D01*
X286639Y768166D01*
Y764668D01*
X288972D02*
X291304D01*
X290138D01*
Y769333D01*
X288972D01*
X294803Y764668D02*
X297136D01*
X295970D01*
Y771665D01*
X294803D01*
X300635Y764668D02*
X302967Y767000D01*
Y769333D01*
X300635Y771665D01*
X368018Y764668D02*
Y771665D01*
X371517D01*
X372683Y770499D01*
Y768166D01*
X371517Y767000D01*
X368018D01*
X375016Y771665D02*
X379681D01*
X377348D01*
Y764668D01*
X382013Y771665D02*
Y764668D01*
Y768166D01*
X386679D01*
Y771665D01*
Y764668D01*
X428403D02*
Y771665D01*
X431902D01*
X433069Y770499D01*
Y768166D01*
X431902Y767000D01*
X428403D01*
X430736D02*
X433069Y764668D01*
X436567D02*
X438900D01*
X440066Y765834D01*
Y768166D01*
X438900Y769333D01*
X436567D01*
X435401Y768166D01*
Y765834D01*
X436567Y764668D01*
X442399Y769333D02*
Y765834D01*
X443565Y764668D01*
X447064D01*
Y769333D01*
X449397Y764668D02*
Y769333D01*
X452896D01*
X454062Y768166D01*
Y764668D01*
X461060Y771665D02*
Y764668D01*
X457561D01*
X456394Y765834D01*
Y768166D01*
X457561Y769333D01*
X461060D01*
X130384Y750667D02*
Y757665D01*
X126885Y754166D01*
X131551D01*
X209664Y756499D02*
X210830Y757665D01*
X213163D01*
X214329Y756499D01*
Y755333D01*
X213163Y754166D01*
X211996D01*
X213163D01*
X214329Y753000D01*
Y751834D01*
X213163Y750667D01*
X210830D01*
X209664Y751834D01*
X216662Y750667D02*
Y751834D01*
X217828D01*
Y750667D01*
X216662D01*
X227158D02*
X222493D01*
X227158Y755333D01*
Y756499D01*
X225992Y757665D01*
X223659D01*
X222493Y756499D01*
X229491Y750667D02*
Y755333D01*
X230657D01*
X231823Y754166D01*
Y750667D01*
Y754166D01*
X232990Y755333D01*
X234156Y754166D01*
Y750667D01*
X236489D02*
Y755333D01*
X237655D01*
X238821Y754166D01*
Y750667D01*
Y754166D01*
X239988Y755333D01*
X241154Y754166D01*
Y750667D01*
X252817D02*
X250484Y753000D01*
Y755333D01*
X252817Y757665D01*
X256316Y750667D02*
X258648D01*
X257482D01*
Y757665D01*
X256316Y756499D01*
X266812Y750667D02*
X262147D01*
X266812Y755333D01*
Y756499D01*
X265646Y757665D01*
X263313D01*
X262147Y756499D01*
X273810Y757665D02*
X269145D01*
Y754166D01*
X271477Y755333D01*
X272644D01*
X273810Y754166D01*
Y751834D01*
X272644Y750667D01*
X270311D01*
X269145Y751834D01*
X276143Y750667D02*
Y751834D01*
X277309D01*
Y750667D01*
X276143D01*
X281974Y751834D02*
X283140Y750667D01*
X285473D01*
X286639Y751834D01*
Y756499D01*
X285473Y757665D01*
X283140D01*
X281974Y756499D01*
Y755333D01*
X283140Y754166D01*
X286639D01*
X288972Y756499D02*
X290138Y757665D01*
X292471D01*
X293637Y756499D01*
Y755333D01*
X292471Y754166D01*
X293637Y753000D01*
Y751834D01*
X292471Y750667D01*
X290138D01*
X288972Y751834D01*
Y753000D01*
X290138Y754166D01*
X288972Y755333D01*
Y756499D01*
X290138Y754166D02*
X292471D01*
X299468Y750667D02*
Y757665D01*
X295970Y754166D01*
X300635D01*
X302967Y750667D02*
Y755333D01*
X304133D01*
X305300Y754166D01*
Y750667D01*
Y754166D01*
X306466Y755333D01*
X307632Y754166D01*
Y750667D01*
X309965D02*
X312298D01*
X311131D01*
Y755333D01*
X309965D01*
X315796Y750667D02*
X318129D01*
X316963D01*
Y757665D01*
X315796D01*
X321628Y750667D02*
X323960Y753000D01*
Y755333D01*
X321628Y757665D01*
X368018Y750667D02*
Y757665D01*
X371517D01*
X372683Y756499D01*
Y754166D01*
X371517Y753000D01*
X368018D01*
X375016Y757665D02*
X379681D01*
X377348D01*
Y750667D01*
X382013Y757665D02*
Y750667D01*
Y754166D01*
X386679D01*
Y757665D01*
Y750667D01*
X428403D02*
Y757665D01*
X431902D01*
X433069Y756499D01*
Y754166D01*
X431902Y753000D01*
X428403D01*
X430736D02*
X433069Y750667D01*
X436567D02*
X438900D01*
X440066Y751834D01*
Y754166D01*
X438900Y755333D01*
X436567D01*
X435401Y754166D01*
Y751834D01*
X436567Y750667D01*
X442399Y755333D02*
Y751834D01*
X443565Y750667D01*
X447064D01*
Y755333D01*
X449397Y750667D02*
Y755333D01*
X452896D01*
X454062Y754166D01*
Y750667D01*
X461060Y757665D02*
Y750667D01*
X457561D01*
X456394Y751834D01*
Y754166D01*
X457561Y755333D01*
X461060D01*
X130384Y736667D02*
Y743665D01*
X126885Y740166D01*
X131551D01*
X214329Y743665D02*
X211996Y742499D01*
X209664Y740166D01*
Y737834D01*
X210830Y736667D01*
X213163D01*
X214329Y737834D01*
Y739000D01*
X213163Y740166D01*
X209664D01*
X216662Y736667D02*
Y737834D01*
X217828D01*
Y736667D01*
X216662D01*
X222493D02*
X224826D01*
X223659D01*
Y743665D01*
X222493Y742499D01*
X228325Y736667D02*
Y741333D01*
X229491D01*
X230657Y740166D01*
Y736667D01*
Y740166D01*
X231823Y741333D01*
X232990Y740166D01*
Y736667D01*
X235322D02*
Y741333D01*
X236489D01*
X237655Y740166D01*
Y736667D01*
Y740166D01*
X238821Y741333D01*
X239988Y740166D01*
Y736667D01*
X251650D02*
X249318Y739000D01*
Y741333D01*
X251650Y743665D01*
X259814Y736667D02*
X255149D01*
X259814Y741333D01*
Y742499D01*
X258648Y743665D01*
X256316D01*
X255149Y742499D01*
X265646Y736667D02*
Y743665D01*
X262147Y740166D01*
X266812D01*
X269145Y742499D02*
X270311Y743665D01*
X272644D01*
X273810Y742499D01*
Y737834D01*
X272644Y736667D01*
X270311D01*
X269145Y737834D01*
Y742499D01*
X276143Y736667D02*
Y737834D01*
X277309D01*
Y736667D01*
X276143D01*
X281974D02*
X284307D01*
X283140D01*
Y743665D01*
X281974Y742499D01*
X292471Y743665D02*
X287805D01*
Y740166D01*
X290138Y741333D01*
X291304D01*
X292471Y740166D01*
Y737834D01*
X291304Y736667D01*
X288972D01*
X287805Y737834D01*
X294803Y743665D02*
X299468D01*
Y742499D01*
X294803Y737834D01*
Y736667D01*
X301801D02*
Y741333D01*
X302967D01*
X304133Y740166D01*
Y736667D01*
Y740166D01*
X305300Y741333D01*
X306466Y740166D01*
Y736667D01*
X308799D02*
X311131D01*
X309965D01*
Y741333D01*
X308799D01*
X314630Y736667D02*
X316963D01*
X315796D01*
Y743665D01*
X314630D01*
X320462Y736667D02*
X322794Y739000D01*
Y741333D01*
X320462Y743665D01*
X368018Y736667D02*
Y743665D01*
X371517D01*
X372683Y742499D01*
Y740166D01*
X371517Y739000D01*
X368018D01*
X375016Y743665D02*
X379681D01*
X377348D01*
Y736667D01*
X382013Y743665D02*
Y736667D01*
Y740166D01*
X386679D01*
Y743665D01*
Y736667D01*
X428403D02*
Y743665D01*
X431902D01*
X433069Y742499D01*
Y740166D01*
X431902Y739000D01*
X428403D01*
X430736D02*
X433069Y736667D01*
X436567D02*
X438900D01*
X440066Y737834D01*
Y740166D01*
X438900Y741333D01*
X436567D01*
X435401Y740166D01*
Y737834D01*
X436567Y736667D01*
X442399Y741333D02*
Y737834D01*
X443565Y736667D01*
X447064D01*
Y741333D01*
X449397Y736667D02*
Y741333D01*
X452896D01*
X454062Y740166D01*
Y736667D01*
X461060Y743665D02*
Y736667D01*
X457561D01*
X456394Y737834D01*
Y740166D01*
X457561Y741333D01*
X461060D01*
X130384Y722667D02*
Y729665D01*
X126885Y726166D01*
X131551D01*
X138548Y722667D02*
X133883D01*
X138548Y727333D01*
Y728499D01*
X137382Y729665D01*
X135050D01*
X133883Y728499D01*
X145546Y729665D02*
X143214Y728499D01*
X140881Y726166D01*
Y723834D01*
X142047Y722667D01*
X144380D01*
X145546Y723834D01*
Y725000D01*
X144380Y726166D01*
X140881D01*
X159346Y729665D02*
X164011D01*
X161679D01*
Y722667D01*
X167510D02*
X169843D01*
X171009Y723834D01*
Y726166D01*
X169843Y727333D01*
X167510D01*
X166344Y726166D01*
Y723834D01*
X167510Y722667D01*
X174508Y728499D02*
Y727333D01*
X173342D01*
X175674D01*
X174508D01*
Y723834D01*
X175674Y722667D01*
X180339Y727333D02*
X182672D01*
X183838Y726166D01*
Y722667D01*
X180339D01*
X179173Y723834D01*
X180339Y725000D01*
X183838D01*
X186171Y722667D02*
X188503D01*
X187337D01*
Y729665D01*
X186171D01*
D93*
X71580Y754167D02*
G03*
X71580Y754167I-2540J0D01*
G01*
M02*
